<svg width="500" height="162" version="1.1" xmlns="http://www.w3.org/2000/svg" desc="Created with imagetracer.js version 1.2.6" ><path fill="rgb(0,0,0)" stroke="rgb(0,0,0)" stroke-width="1" opacity="0" d="M 0 0 L 499.5 0 L 500 0.5 L 500 162 L 86.5 162 L 83.5 161 L 82.5 162 L 74.5 162 L 74.5 161 L 81.5 161 L 92.5 158 L 110 148.5 L 109.5 147 L 100.5 151 L 90.5 153 L 73.5 153 Q 43 147.5 28 126.5 Q 19.4 115.6 15 100.5 L 13 90.5 L 13 71.5 L 17 55.5 Q 22.1 42.1 31 32.5 L 29.5 32 Q 15.5 43 8 60.5 L 4 74.5 L 4 96.5 Q 10.7 129.3 32.5 147 Q 41.4 154.6 53.5 159 L 61.5 161 L 71 161.5 L 60.5 162 L 57.5 161 L 56.5 162 L 0 162 L 0 0 Z M 113 2 L 113 3 L 131 3 L 113 2 Z M 107 3 L 107 4 L 111 4 L 107 3 Z M 133 3 L 133 4 L 136 4 L 133 3 Z M 104 4 L 104 5 L 106 5 L 104 4 Z M 112 4 Q 92 8 80 18 Q 55 36 48 71 L 48 88 L 50 97 L 59 115 Q 68 127 83 134 Q 84 131 82 132 Q 64 117 59 90 L 59 75 L 62 61 Q 67 47 75 37 Q 91 16 122 10 L 144 10 L 149 12 L 151 12 L 149 9 L 132 4 L 112 4 Z M 138 4 L 138 5 L 140 5 L 138 4 Z M 80 5 L 80 6 L 82 6 L 80 5 Z M 83 6 Q 64 10 52 20 Q 31 36 25 68 L 25 92 L 26 97 Q 29 113 38 124 Q 48 136 64 143 L 78 147 L 91 147 L 92 148 Q 96 149 94 145 L 88 145 L 81 143 L 61 132 Q 41 117 36 89 L 36 66 L 37 61 Q 41 44 50 33 Q 63 15 86 8 Q 87 5 83 6 Z M 72 7 L 72 8 L 74 8 L 72 7 Z M 69 8 L 69 9 L 71 9 L 69 8 Z M 122 11 L 122 12 L 143 12 L 122 11 Z M 116 12 L 116 13 L 120 13 L 116 12 Z M 145 12 L 145 13 L 148 13 L 145 12 Z M 113 13 L 113 14 L 115 14 L 113 13 Z M 137 15 L 137 16 L 153 16 L 137 15 Z M 131 16 L 131 17 L 134 17 L 131 16 Z M 156 16 L 156 17 L 159 17 L 156 16 Z M 135 17 Q 110 21 95 34 Q 82 43 75 58 L 72 65 L 69 80 L 71 100 L 78 116 Q 77 118 80 117 L 77 105 L 77 86 L 79 77 L 90 55 L 110 37 L 128 29 L 137 27 L 146 27 L 147 26 L 161 27 L 175 31 Q 189 37 199 47 Q 198 49 201 48 L 202 49 L 198 43 Q 187 28 170 21 L 155 17 L 135 17 Z M 161 17 L 161 18 L 163 18 L 161 17 Z M 122 18 L 122 19 L 124 19 L 122 18 Z M 165 18 L 165 19 L 167 19 L 165 18 Z M 119 19 L 119 20 L 121 20 L 119 19 Z M 168 19 L 168 20 L 170 20 L 168 19 Z M 137 28 L 137 29 L 145 29 L 137 28 Z M 153 28 L 153 29 L 160 29 L 153 28 Z M 133 29 L 133 30 L 135 30 L 133 29 Z M 162 29 L 162 30 L 165 30 L 162 29 Z M 129 30 L 129 31 L 131 31 L 129 30 Z M 167 30 L 167 31 L 169 31 L 167 30 Z M 170 31 L 170 32 L 172 32 L 170 31 Z M 173 32 L 173 33 L 175 33 L 173 32 Z M 29 49 L 28 52 L 29 52 L 29 49 Z M 40 57 L 39 60 L 40 60 L 40 57 Z M 18 58 L 17 62 L 18 62 L 18 58 Z M 26 58 L 25 62 L 26 62 L 26 58 Z M 50 58 L 49 61 L 50 61 L 50 58 Z M 39 60 L 38 65 L 39 65 L 39 60 Z M 64 60 L 63 64 L 64 64 L 64 60 Z M 49 61 L 48 64 L 49 64 L 49 61 Z M 17 62 L 16 65 L 17 65 L 17 62 Z M 25 62 L 24 67 L 25 67 L 25 62 Z M 63 64 L 62 67 L 63 67 L 63 64 Z M 48 65 L 47 69 L 48 69 L 48 65 Z M 5 66 L 4 69 L 5 69 L 5 66 Z M 16 66 L 15 70 L 16 70 L 16 66 Z M 38 66 L 37 76 L 38 76 L 38 66 Z M 24 68 L 23 92 L 24 92 L 24 68 Z M 70 68 L 69 72 L 70 72 L 70 68 Z M 62 69 L 61 73 L 62 73 L 62 69 Z M 4 70 L 3 74 L 4 74 L 4 70 Z M 47 71 L 46 87 L 47 87 L 47 71 Z M 69 72 L 68 77 L 69 77 L 69 72 Z M 15 73 L 14 89 L 15 89 L 15 73 Z M 3 75 L 2 96 L 3 96 L 3 75 Z M 61 76 L 60 87 L 61 87 L 61 76 Z M 81 76 L 80 79 L 81 79 L 81 76 Z M 304 78 L 304 79 L 315 79 L 304 78 Z M 434 78 L 434 79 L 443 79 L 434 78 Z M 120 79 L 120 80 L 153 80 L 120 79 Z M 161 79 L 161 80 L 168 80 L 161 79 Z M 188 79 L 188 80 L 195 80 L 188 79 Z M 207 79 L 207 80 L 227 80 L 207 79 Z M 248 79 L 248 80 L 268 80 L 248 79 Z M 301 79 L 301 80 L 303 80 L 301 79 Z M 316 79 L 316 80 L 318 80 L 316 79 Z M 338 79 L 338 80 L 371 80 L 338 79 Z M 379 79 L 379 80 L 407 80 L 379 79 Z M 430 79 L 430 80 L 432 80 L 430 79 Z M 463 79 L 463 80 L 470 80 L 463 79 Z M 490 79 L 490 80 L 497 80 L 490 79 Z M 38 80 L 37 89 L 38 89 L 38 80 Z M 80 80 L 79 85 L 80 85 L 80 80 Z M 228 80 L 228 81 L 230 81 L 228 80 Z M 269 80 L 269 81 L 271 81 L 269 80 Z M 304 80 L 295 84 Q 289 89 286 97 L 286 110 L 290 118 Q 295 124 305 126 L 313 126 L 323 122 Q 330 118 332 109 Q 334 95 328 89 Q 322 78 304 80 Z M 433 80 L 421 86 L 415 99 Q 414 110 418 116 Q 423 124 435 126 L 442 126 L 450 123 L 454 118 L 449 113 L 440 118 L 431 116 Q 426 112 424 106 L 424 101 L 426 95 L 435 88 Q 444 87 447 92 L 450 91 L 453 87 L 444 80 L 433 80 Z M 68 81 L 67 86 L 68 86 L 68 81 Z M 118 81 L 118 89 L 131 89 L 131 90 L 131 125 L 140 125 L 140 125 L 140 89 L 153 89 L 153 82 L 153 81 L 118 81 Z M 155 81 L 154 89 L 155 89 L 155 81 Z M 161 81 L 159 83 L 159 109 Q 161 110 160 115 L 163 120 Q 167 124 174 126 Q 184 127 190 122 L 195 113 L 195 82 L 195 81 L 186 81 L 186 112 L 182 117 Q 175 118 172 116 L 168 109 L 168 82 L 168 81 L 161 81 Z M 197 81 L 196 113 L 197 113 L 197 81 Z M 205 81 L 204 124 L 205 124 L 205 81 Z M 206 81 L 206 125 L 215 125 L 215 108 L 220 107 L 228 124 L 230 125 L 239 125 L 228 107 L 232 105 Q 236 102 238 96 Q 239 89 236 87 L 227 81 L 206 81 Z M 246 81 L 246 125 L 267 125 L 276 121 L 279 116 L 278 107 L 271 102 L 273 101 L 277 96 L 276 87 Q 273 82 268 81 L 246 81 Z M 336 81 L 336 89 L 350 90 L 338 90 L 338 91 L 349 91 L 349 125 L 358 125 L 358 125 L 358 89 L 371 89 L 371 82 L 371 81 L 336 81 Z M 377 81 L 376 124 L 377 124 L 377 81 Z M 378 81 L 378 125 L 408 125 L 408 117 L 387 117 L 387 107 L 388 107 L 388 116 L 408 116 L 408 115 L 389 115 L 389 107 L 405 107 L 406 106 L 406 98 L 387 98 L 387 89 L 407 89 L 407 82 L 407 81 L 378 81 Z M 461 81 L 461 125 L 470 125 L 470 106 L 489 106 L 489 125 L 497 125 Q 499 124 497 123 L 497 111 L 498 110 L 497 105 L 497 96 L 498 95 Q 499 85 497 81 L 489 81 L 489 98 L 470 98 L 470 81 L 461 81 Z M 472 81 L 471 97 L 488 97 L 488 82 L 487 82 L 487 96 L 472 96 L 472 81 Z M 117 82 L 116 89 L 117 89 L 117 82 Z M 185 82 L 184 112 L 185 112 L 185 82 Z M 245 82 L 244 106 L 245 106 L 245 82 Z M 335 82 L 334 88 L 335 88 L 335 82 Z M 373 82 L 372 88 L 373 88 L 373 82 Z M 409 82 L 408 88 L 409 88 L 409 82 Z M 460 82 L 459 124 L 460 124 L 460 82 Z M 79 85 L 78 105 L 79 105 L 79 85 Z M 279 88 L 278 96 L 279 96 L 279 88 Z M 69 89 L 68 95 L 69 95 L 69 89 Z M 436 89 L 436 90 L 441 90 L 436 89 Z M 39 90 L 38 94 L 39 94 L 39 90 Z M 48 90 L 47 93 L 48 93 L 48 90 Z M 120 90 L 120 91 L 129 91 L 129 92 L 129 124 L 130 124 L 130 91 L 130 90 L 120 90 Z M 141 90 L 142 124 L 142 91 L 153 91 L 141 90 Z M 359 90 L 360 124 L 360 91 L 371 91 L 359 90 Z M 388 90 L 388 97 L 406 97 L 406 96 L 390 96 L 389 91 L 407 91 L 388 90 Z M 62 91 L 61 95 L 62 95 L 62 91 Z M 16 92 L 15 96 L 16 96 L 16 92 Z M 25 92 L 24 97 L 25 97 L 25 92 Z M 240 92 L 239 95 L 240 95 L 240 92 Z M 49 94 L 48 97 L 49 97 L 49 94 Z M 333 94 L 332 97 L 333 97 L 333 94 Z M 40 95 L 39 98 L 40 98 L 40 95 Z M 70 95 L 69 99 L 70 99 L 70 95 Z M 63 96 L 62 99 L 63 99 L 63 96 Z M 427 96 L 426 99 L 427 99 L 427 96 Z M 4 97 L 3 102 L 4 102 L 4 97 Z M 17 97 L 16 100 L 17 100 L 17 97 Z M 50 97 L 49 100 L 50 100 L 50 97 Z M 285 97 L 284 109 L 285 109 L 285 97 Z M 334 97 L 333 108 L 334 108 L 334 97 Z M 26 98 L 25 101 L 26 101 L 26 98 Z M 408 99 L 407 106 L 408 106 L 408 99 Z M 414 99 L 413 107 L 414 107 L 414 99 Z M 64 100 L 63 103 L 64 103 L 64 100 Z M 71 100 L 70 103 L 71 103 L 71 100 Z M 275 100 L 273 102 L 275 102 L 275 100 Z M 426 100 L 425 105 L 426 105 L 426 100 Z M 18 101 L 17 104 L 18 104 L 18 101 Z M 5 102 L 4 106 L 5 106 L 5 102 Z M 19 104 L 18 107 L 19 107 L 19 104 Z M 80 106 L 79 111 L 80 111 L 80 106 Z M 230 106 L 230 108 L 232 107 L 230 106 Z M 427 106 L 426 109 L 427 109 L 427 106 Z M 29 107 L 28 110 L 29 110 L 29 107 Z M 471 107 L 472 122 L 472 108 L 487 108 L 487 124 L 488 124 L 488 107 L 471 107 Z M 216 108 L 217 124 L 217 109 L 219 109 L 216 108 Z M 281 109 L 280 115 L 281 115 L 281 109 Z M 171 110 L 170 113 L 171 113 L 171 110 Z M 159 111 L 158 114 L 159 114 L 159 111 Z M 172 113 Q 170 116 173 115 L 172 113 Z M 196 113 L 195 116 L 196 116 L 196 113 Z M 174 115 L 174 116 L 182 116 L 174 115 Z M 437 116 L 437 117 L 439 117 L 437 116 Z M 268 125 L 268 126 L 271 126 L 268 125 Z M 133 126 L 133 127 L 140 127 L 133 126 Z M 171 126 L 171 127 L 173 127 L 171 126 Z M 207 126 L 207 127 L 214 127 L 207 126 Z M 230 126 L 230 127 L 239 127 L 230 126 Z M 248 126 L 248 127 L 266 127 L 248 126 Z M 315 126 L 315 127 L 317 127 L 315 126 Z M 351 126 L 351 127 L 358 127 L 351 126 Z M 380 126 L 380 127 L 407 127 L 380 126 Z M 444 126 L 444 127 L 446 127 L 444 126 Z M 463 126 L 463 127 L 469 127 L 463 126 Z M 490 126 L 490 127 L 496 127 L 490 126 Z M 41 127 L 40 129 L 42 130 L 41 127 Z M 175 127 L 175 128 L 181 128 L 175 127 Z M 306 127 L 306 128 L 312 128 L 306 127 Z M 436 127 L 436 128 L 440 128 L 436 127 Z M 120 140 L 120 141 L 130 141 L 120 140 Z M 197 140 L 197 141 L 206 141 L 197 140 Z M 235 140 L 235 141 L 240 141 L 235 140 Z M 276 140 L 276 141 L 279 141 L 276 140 Z M 241 141 L 241 142 L 243 142 L 241 141 Z M 85 142 L 85 143 L 87 143 L 85 142 Z M 118 142 L 118 157 L 131 157 L 131 154 L 121 154 L 130 153 L 122 152 L 122 151 L 130 151 L 130 148 L 121 148 Q 123 144 130 146 L 131 144 L 130 142 L 118 142 Z M 158 142 L 156 144 L 156 157 L 159 157 L 160 148 L 164 156 L 168 157 L 168 143 L 165 142 L 165 151 L 161 145 L 158 142 Z M 196 142 L 194 144 L 194 157 L 207 157 L 207 154 L 198 154 L 198 151 L 206 151 L 206 148 L 198 148 L 199 145 L 199 147 L 201 146 L 207 146 L 207 144 L 206 142 L 196 142 Z M 233 142 L 233 157 Q 238 159 236 152 L 243 157 Q 247 158 246 155 L 241 152 L 243 151 L 245 146 Q 242 141 233 142 Z M 276 142 L 270 147 L 271 155 L 275 157 L 282 156 L 284 153 L 284 149 L 278 149 L 276 152 L 276 153 L 278 152 L 280 153 Q 279 155 276 154 Q 272 153 273 148 L 277 145 L 282 147 L 283 144 L 276 142 Z M 306 142 L 312 151 L 312 157 L 316 157 L 316 150 Q 320 147 321 142 L 317 143 L 314 148 L 313 147 L 309 142 L 306 142 Z M 89 143 L 89 144 L 91 144 L 89 143 Z M 117 143 L 116 157 L 117 157 L 117 143 Z M 155 143 L 154 157 L 155 157 L 155 143 Z M 164 143 L 162 146 L 164 147 L 164 143 Z M 170 143 L 169 156 L 170 156 L 170 143 Z M 232 143 L 231 157 L 232 157 L 232 143 Z M 193 144 L 192 156 L 193 156 L 193 144 Z M 247 145 L 246 148 L 247 148 L 247 145 Z M 70 146 L 70 147 L 72 147 L 70 146 Z M 269 146 L 268 153 L 269 153 L 269 146 Z M 278 146 L 277 148 L 280 148 L 278 146 Z M 74 147 L 74 148 L 76 148 L 74 147 Z M 79 148 L 79 149 L 88 149 L 79 148 Z M 132 148 L 131 151 L 132 151 L 132 148 Z M 275 148 L 274 152 L 275 152 L 275 148 Z M 65 149 L 65 150 L 67 150 L 65 149 Z M 98 149 L 98 150 L 100 150 L 98 149 Z M 286 149 L 285 153 L 286 153 L 286 149 Z M 69 150 L 69 151 L 72 151 L 69 150 Z M 92 150 L 92 151 L 96 151 L 92 150 Z M 311 150 L 310 157 L 311 157 L 311 150 Z M 74 151 L 74 152 L 90 152 L 74 151 Z M 161 151 L 161 157 L 162 154 L 161 151 Z M 200 152 L 200 153 L 207 153 L 200 152 Z M 238 153 L 238 156 Q 241 155 238 153 Z M 209 154 L 208 157 L 209 157 L 209 154 Z M 120 158 L 120 159 L 130 159 L 120 158 Z M 157 158 L 157 159 L 159 159 L 157 158 Z M 166 158 L 166 159 L 168 159 L 166 158 Z M 196 158 L 196 159 L 207 159 L 196 158 Z M 234 158 L 234 159 L 236 159 L 234 158 Z M 243 158 L 243 159 L 246 159 L 243 158 Z M 275 158 L 275 159 L 280 159 L 275 158 Z M 313 158 L 313 159 L 315 159 L 313 158 Z M 91 159 L 91 160 L 93 160 L 91 159 Z M 54 160 L 54 161 L 56 161 L 54 160 Z M 88 160 L 88 161 L 90 161 L 88 160 Z " /><path fill="rgb(0,0,0)" stroke="rgb(0,0,0)" stroke-width="1" opacity="0" d="M 305.5 88 L 312.5 88 L 321 94.5 Q 323.9 98.1 323 105.5 Q 321.9 112.9 316.5 116 Q 313.2 118.7 306.5 118 Q 300 116.5 297 111.5 Q 293.9 107.1 295 98.5 L 299.5 91 L 305.5 88 Z M 306 89 L 306 90 L 313 90 L 306 89 Z M 303 90 L 303 91 L 305 91 L 303 90 Z M 321 96 L 320 99 L 321 99 L 321 96 Z M 297 99 L 296 107 L 297 107 L 297 99 Z M 322 100 L 321 105 L 322 105 L 322 100 Z M 298 107 L 297 110 L 298 110 L 298 107 Z M 321 107 L 320 110 L 321 110 L 321 107 Z M 304 115 L 304 116 L 306 116 L 304 115 Z M 313 115 L 313 116 L 315 116 L 313 115 Z M 308 116 L 308 117 L 311 117 L 308 116 Z " /><path fill="rgb(0,0,0)" stroke="rgb(0,0,0)" stroke-width="1" opacity="0" d="M 215 89 L 225.5 89 L 228 91.5 Q 229.3 96.8 226.5 98 L 224.5 99 L 215 99 L 215 89 Z M 216 90 L 216 98 L 224 98 L 224 97 L 217 97 L 217 91 L 226 91 L 216 90 Z M 227 95 L 225 97 L 227 97 L 227 95 Z " /><path fill="rgb(0,0,0)" stroke="rgb(0,0,0)" stroke-width="1" opacity="0" d="M 255 89 L 265.5 89 L 268 91.5 Q 269 97 265.5 98 L 255 98 L 255 89 Z M 256 90 L 256 97 L 266 97 L 266 96 L 257 96 L 257 91 L 266 91 L 256 90 Z " /><path fill="rgb(0,0,0)" stroke="rgb(0,0,0)" stroke-width="1" opacity="0" d="M 255 106 Q 265.3 104 270 108.5 Q 271.3 114.8 267.5 116 L 265.5 117 L 255 117 L 255 106 Z M 256 107 L 256 116 L 266 116 L 266 115 L 257 115 L 257 108 L 266 108 L 256 107 Z M 269 109 L 268 114 L 269 114 L 269 109 Z " /><path fill="rgb(0,0,0)" stroke="rgb(0,0,0)" stroke-width="1" opacity="0" d="M 236.5 145 L 237 148.5 L 236 148.5 L 236.5 145 Z " /><path fill="rgb(0,0,0)" stroke="rgb(0,0,0)" stroke-width="1" opacity="0" d="M 238.5 145 L 239.5 147 L 241 146.5 Q 241.7 149.5 238 148 L 238.5 145 Z " /><path fill="rgb(146,189,113)" stroke="rgb(146,189,113)" stroke-width="1" opacity="0.6980392156862745" d="M 112.5 2 L 131 2.5 L 112.5 3 L 112.5 2 Z " /><path fill="rgb(146,189,113)" stroke="rgb(146,189,113)" stroke-width="1" opacity="0.6980392156862745" d="M 106.5 3 L 111.5 4 L 131.5 4 L 135.5 3 L 135.5 4 L 132 4.5 L 136.5 5 L 139.5 4 L 139.5 5 L 137 5.5 L 145.5 8 L 145.5 7 L 144 6.5 L 145.5 6 L 148 7.5 L 146 8.5 L 148.5 9 L 150 8.5 L 149 9.5 L 150.5 12 L 144.5 13 L 144.5 12 L 148 11.5 L 143.5 10 L 121.5 10 L 121.5 11 L 143 11.5 L 121.5 12 Q 120.2 9.7 115.5 11 L 115.5 12 L 120 12.5 L 112.5 14 L 112.5 13 L 115 12.5 L 111.5 12 L 103 15.5 L 105 16.5 L 94.5 22 L 94.5 20 L 92 21.5 Q 94.3 22.8 91.5 24 L 91.5 22 L 89 23.5 L 90 24.5 L 86.5 28 L 77 36.5 L 70.5 46 L 69 45.5 L 70 47.5 L 67 48.5 L 65 54.5 L 66 56.5 L 65 56.5 L 64.5 55 L 63 59.5 L 64 59.5 L 64.5 58 L 65 59.5 L 62.5 67 L 61.5 64 L 59 74.5 L 59 89.5 L 60.5 95 L 61.5 91 L 62 94.5 L 61 99.5 L 62.5 103 L 63.5 100 L 65 104.5 L 64 104.5 L 63.5 103 L 63 105.5 L 64.5 108 L 65.5 106 L 69 113.5 L 68 115.5 L 71 116.5 L 70 118.5 Q 72 116.8 74 120.5 L 81 129.5 Q 78.8 130.8 81.5 132 L 83 131.5 L 82.5 130 Q 85.3 131.3 83 132.5 Q 83.8 134.8 81.5 134 L 81.5 136 L 79.5 132 L 78 132.5 L 78.5 134 L 76.5 130 L 75 130.5 L 75.5 132 L 73.5 128 L 72 128.5 L 72.5 130 L 61 119.5 L 54 109.5 L 56 109.5 L 54.5 107 L 53 107.5 L 54 105.5 L 52 105.5 L 53 102.5 L 51.5 100 L 50.5 102 L 48 94.5 L 49 94.5 L 49.5 97 L 50 93.5 L 48 87.5 L 48 70.5 L 50 61.5 L 49 61.5 L 48.5 64 L 48 61.5 L 49.5 58 L 50.5 61 L 51 57.5 L 50 55.5 L 51 55.5 L 51.5 57 L 53 52.5 L 52 50.5 L 57.5 41 Q 58.8 43.3 60 40.5 L 59.5 39 L 58 39.5 L 62 37.5 L 61.5 36 L 60 36.5 L 73.5 21 L 87.5 11 L 87.5 13 L 90 11.5 L 89.5 10 L 91.5 11 L 91.5 9 L 94.5 10 L 97 8.5 L 95 7.5 L 98.5 6 L 102.5 7 L 106 5.5 L 103 4.5 L 106.5 3 Z M 107 4 L 107 5 L 111 5 L 107 4 Z M 74 22 L 67 30 L 75 23 L 74 22 Z M 87 25 L 86 27 L 88 26 L 87 25 Z M 63 60 L 62 64 L 63 64 L 63 60 Z M 51 97 L 50 100 L 51 100 L 51 97 Z M 63 118 L 62 120 L 69 125 L 63 118 Z M 76 124 L 75 126 L 78 128 L 76 124 Z " /><path fill="rgb(146,189,113)" stroke="rgb(146,189,113)" stroke-width="1" opacity="0.6980392156862745" d="M 79.5 5 L 86 6 Q 87.3 9 83.5 8 L 78 10.5 L 80 11.5 L 73.5 15 L 73.5 13 L 71 14.5 Q 73.3 15.8 70.5 17 L 64.5 21 L 64.5 19 L 62 20.5 L 63 21.5 L 53 31.5 L 45.5 43 L 44 42.5 L 45 44.5 L 43 44.5 L 44 47.5 L 42.5 50 L 41.5 48 L 38 59.5 L 39 59.5 L 39.5 57 L 40 59.5 L 38.5 65 L 37.5 60 L 36 65.5 L 36 88.5 L 37 88.5 L 37.5 80 L 38 88.5 L 37 93.5 L 38 93.5 L 38.5 90 L 39 93.5 L 38 97.5 L 39 97.5 L 39.5 95 L 40 97.5 L 39 100.5 L 40 100.5 L 40.5 99 L 41 100.5 L 40 103.5 L 41 103.5 L 41.5 102 L 43 105.5 L 42 105.5 L 41.5 104 L 41 106.5 L 42.5 109 L 43.5 107 L 46 111.5 L 44 111.5 L 45.5 114 Q 46.8 111.8 48 114.5 Q 52.3 123.3 59.5 129 L 64 132.5 Q 61.8 133.8 64.5 135 L 66 134.5 L 65.5 133 L 66.5 136 L 68.5 135 L 75 138.5 L 73 139.5 L 77.5 141 L 79.5 140 L 79.5 141 L 78 141.5 L 83.5 143 L 86.5 142 L 86.5 143 L 84 143.5 Q 87.6 146.1 94 145 Q 95.7 149.1 91.5 148 L 90.5 147 L 77.5 147 L 63.5 143 L 63.5 144 L 65 144.5 L 63.5 145 L 61 143.5 L 63 142.5 L 59.5 141 L 59.5 143 L 51 137.5 Q 53.3 136.3 50.5 135 L 49 135.5 L 49.5 137 L 40 128.5 L 33 118.5 L 34 116.5 L 31 115.5 L 27 105.5 L 28 105.5 L 28.5 107 L 29 104.5 L 25.5 92 L 24.5 97 L 23 91.5 L 23 68.5 L 24 68.5 L 24.5 92 L 25 67.5 L 24 62.5 L 25.5 58 L 26.5 62 L 29 52.5 L 28 52.5 L 27.5 54 L 27 52.5 L 29.5 47 L 30.5 49 L 34 41.5 L 32 41.5 L 38.5 32 Q 39.8 34.3 41 31.5 L 40.5 30 L 39 30.5 L 52 18.5 L 51.5 20 L 54 18.5 Q 51.3 16.8 55.5 15 L 68.5 8 L 73.5 7 L 77.5 8 L 82 6.5 Q 78.7 6.6 79.5 5 Z M 72 8 L 72 9 L 74 9 L 72 8 Z M 69 9 L 69 10 L 71 10 L 69 9 Z M 52 31 L 50 34 L 52 33 L 52 31 Z M 30 49 L 29 52 L 30 52 L 30 49 Z M 26 62 L 25 67 L 26 67 L 26 62 Z M 30 107 L 29 110 L 30 110 L 30 107 Z M 51 120 L 50 122 L 52 123 L 51 120 Z M 43 128 L 42 130 L 46 132 L 43 128 Z M 60 130 L 61 132 L 62 132 L 60 130 Z " /><path fill="rgb(146,189,113)" stroke="rgb(146,189,113)" stroke-width="1" opacity="0.6980392156862745" d="M 136.5 15 L 153 15.5 L 136.5 16 L 136.5 15 Z " /><path fill="rgb(146,189,113)" stroke="rgb(146,189,113)" stroke-width="1" opacity="0.6980392156862745" d="M 130.5 16 L 134.5 17 L 154.5 17 L 158.5 16 L 158.5 17 L 155 17.5 L 159.5 18 L 162.5 17 L 162.5 18 L 160 18.5 L 163.5 19 L 166.5 18 L 174 21.5 L 172 22.5 L 177.5 25 L 177.5 23 L 181 25.5 Q 178.8 26.8 181.5 28 L 183 27.5 L 182.5 26 L 196 37.5 L 190.5 33 L 189 33.5 L 195.5 40 L 196.5 39 L 201 43.5 L 198 42.5 L 200.5 46 Q 201.8 43.8 203 46.5 L 201.5 49 L 199.5 48 L 198.5 49 L 193 43.5 Q 195.3 42.3 192.5 41 L 191 41.5 L 191.5 43 L 182 36.5 L 182.5 35 L 180.5 36 L 180.5 34 L 177.5 35 L 166 30.5 L 169 29.5 L 160.5 27 L 146.5 26 L 145.5 27 L 136 27.5 L 145 28.5 L 136.5 29 L 131.5 28 L 122 31.5 L 124 32.5 L 122.5 33 L 119.5 32 L 119.5 33 L 121 33.5 L 110.5 39 L 110.5 37 L 108 38.5 Q 110.3 39.8 107.5 41 L 107.5 39 L 105 40.5 Q 107.8 42.2 103.5 44 L 93 53.5 L 82.5 72 L 81.5 70 L 81 72.5 L 82 74.5 L 81 74.5 L 80.5 73 L 80 75.5 L 81 78.5 L 80 78.5 L 79.5 76 L 79 79.5 L 80 84.5 L 79 85.5 L 79 104.5 Q 76.7 105.8 78 110.5 L 79 110.5 L 79.5 106 L 80 110.5 L 79 114.5 L 80.5 117 L 81.5 115 L 82 116.5 Q 80.8 119.3 79.5 117 Q 77.3 117.8 78 115.5 L 75 114.5 L 74 111.5 L 75 108.5 L 74 108.5 L 73.5 110 L 72 106.5 L 73 103.5 L 72 103.5 L 71.5 105 L 70 100.5 L 71 95.5 L 70 95.5 L 69.5 99 L 68 89.5 L 69 89.5 L 69.5 95 L 70 87.5 Q 67.3 85.8 69 79.5 Q 71.5 78 70 72.5 L 69 72.5 L 68.5 77 L 68 72.5 L 69.5 68 L 70.5 72 L 72 64.5 L 71 62.5 L 72.5 60 L 73.5 62 L 74 59.5 L 73.5 58 L 75 58.5 L 74 56.5 L 77 55.5 L 76.5 54 L 75 54.5 L 77.5 51 Q 78.8 53.3 80 50.5 L 79.5 49 L 78 49.5 L 94.5 32 L 97.5 30 L 97.5 32 L 100 30.5 Q 97.8 29.3 100.5 28 L 100.5 30 L 103 28.5 Q 100.8 27.2 103.5 26 L 105.5 25 L 105.5 27 L 113 23.5 L 111 22.5 L 114.5 21 L 117.5 22 L 117.5 21 L 116 20.5 L 123.5 18 L 123.5 19 L 121 19.5 L 124.5 20 L 134 17.5 Q 129.6 17.9 130.5 16 Z M 165 19 L 165 20 L 167 20 L 165 19 Z M 119 20 L 119 21 L 121 21 L 119 20 Z M 168 20 L 168 21 L 170 21 L 168 20 Z M 170 30 L 170 31 L 172 31 L 170 30 Z M 173 31 L 173 32 L 175 32 L 173 31 Z M 197 45 L 199 48 L 199 47 L 197 45 Z M 92 53 L 90 56 L 92 55 L 92 53 Z M 79 80 L 78 85 L 79 85 L 79 80 Z M 78 85 L 77 105 L 78 105 L 78 85 Z M 72 100 L 71 103 L 72 103 L 72 100 Z " /><path fill="rgb(146,189,113)" stroke="rgb(146,189,113)" stroke-width="1" opacity="0.6980392156862745" d="M 152.5 28 L 160 28.5 L 152.5 29 L 152.5 28 Z " /><path fill="rgb(146,189,113)" stroke="rgb(146,189,113)" stroke-width="1" opacity="0.6980392156862745" d="M 132.5 29 L 135 29.5 L 132.5 30 L 132.5 29 Z " /><path fill="rgb(146,189,113)" stroke="rgb(146,189,113)" stroke-width="1" opacity="0.6980392156862745" d="M 161.5 29 L 165 29.5 L 161.5 30 L 161.5 29 Z " /><path fill="rgb(146,189,113)" stroke="rgb(146,189,113)" stroke-width="1" opacity="0.6980392156862745" d="M 128.5 30 L 131 30.5 L 128.5 31 L 128.5 30 Z " /><path fill="rgb(146,189,113)" stroke="rgb(146,189,113)" stroke-width="1" opacity="0.6980392156862745" d="M 28.5 31 L 31 32.5 L 30 34.5 L 32 34.5 L 28.5 38 Q 27.2 35.8 26 38.5 L 26.5 40 L 28 39.5 L 24 41.5 L 24.5 43 L 26 42.5 L 22.5 48 L 21 47.5 L 22 49.5 L 20 49.5 L 21 52.5 L 19.5 55 L 18.5 53 L 17 57.5 L 18 57.5 L 18.5 56 L 19 57.5 L 16.5 65 L 15.5 62 L 15 65.5 L 16 69.5 L 15 69.5 L 14.5 66 L 13 71.5 L 13 90.5 L 14.5 96 L 15.5 92 L 16 95.5 L 15 100.5 L 16.5 104 L 17.5 101 L 20 108.5 L 19 111.5 L 20.5 114 L 21.5 112 L 24 116.5 L 22 116.5 L 23.5 119 Q 24.8 116.8 26 119.5 Q 31.4 130.1 40.5 137 L 44 139.5 Q 41.8 140.8 44.5 142 L 46 141.5 L 45.5 140 L 47.5 144 L 49 143.5 L 48.5 142 L 57 146.5 L 55 147.5 L 57.5 148 L 59.5 147 L 59.5 148 L 58 148.5 L 67.5 152 L 72.5 152 L 73.5 151 L 89.5 151 L 89.5 152 L 73 152.5 L 90.5 153 L 96 151.5 L 91 150.5 L 95.5 150 L 100.5 151 L 109.5 147 L 110 148.5 L 108.5 152 L 104.5 154 L 104.5 152 L 102 153.5 Q 104.3 154.8 101.5 156 L 98.5 157 L 95.5 156 L 93 157.5 L 95 158.5 L 87.5 161 L 82.5 160 L 73.5 162 L 70.5 161 L 61.5 161 L 53.5 159 L 53.5 160 L 56 160.5 L 53.5 161 L 51 159.5 L 53 158.5 L 48.5 157 L 48.5 158 L 50 158.5 L 48.5 159 L 41 154.5 Q 43.3 153.3 40.5 152 L 39 152.5 L 39.5 154 L 38.5 151 L 36.5 152 L 20 136.5 L 22 136.5 L 20.5 134 Q 18.7 136.8 17 132.5 L 19 132.5 L 17.5 130 Q 16.3 132.3 15 129.5 L 17 129.5 L 15.5 127 Q 14.3 129.3 13 126.5 L 12 124.5 L 14 124.5 L 10.5 117 Q 9.3 119.3 8 116.5 L 7 113.5 L 8 113.5 L 8.5 115 L 9 112.5 L 5.5 102 L 4.5 106 L 3 97.5 L 4 96.5 L 4 74.5 L 3 70.5 L 4 70.5 L 4.5 74 L 5 69.5 L 4 66.5 L 5 66.5 L 5.5 69 L 8 60.5 L 7 60.5 L 6.5 62 L 6 60.5 L 15.5 45 Q 16.8 47.3 18 44.5 L 17.5 43 L 16 43.5 L 28.5 31 Z M 17 58 L 16 62 L 17 62 L 17 58 Z M 5 97 L 4 102 L 5 102 L 5 97 Z M 18 104 L 17 107 L 18 107 L 18 104 Z M 29 125 L 28 127 L 30 128 L 29 125 Z M 33 147 L 34 149 L 35 149 L 33 147 Z M 91 158 L 91 159 L 93 159 L 91 158 Z M 88 159 L 88 160 L 90 160 L 88 159 Z " /><path fill="rgb(146,189,113)" stroke="rgb(146,189,113)" stroke-width="1" opacity="0.6980392156862745" d="M 47.5 65 L 48 68.5 L 47 68.5 L 47.5 65 Z " /><path fill="rgb(146,189,113)" stroke="rgb(146,189,113)" stroke-width="1" opacity="0.6980392156862745" d="M 37.5 66 L 38 75.5 L 37 75.5 L 37.5 66 Z " /><path fill="rgb(146,189,113)" stroke="rgb(146,189,113)" stroke-width="1" opacity="0.6980392156862745" d="M 61.5 69 L 62 72.5 L 61 72.5 L 61.5 69 Z " /><path fill="rgb(146,189,113)" stroke="rgb(146,189,113)" stroke-width="1" opacity="0.6980392156862745" d="M 46.5 71 L 47 86.5 L 46 86.5 L 46.5 71 Z " /><path fill="rgb(146,189,113)" stroke="rgb(146,189,113)" stroke-width="1" opacity="0.6980392156862745" d="M 14.5 73 L 15 88.5 L 14 88.5 L 14.5 73 Z " /><path fill="rgb(146,189,113)" stroke="rgb(146,189,113)" stroke-width="1" opacity="0.6980392156862745" d="M 2.5 75 L 3 95.5 L 2 95.5 L 2.5 75 Z " /><path fill="rgb(146,189,113)" stroke="rgb(146,189,113)" stroke-width="1" opacity="0.6980392156862745" d="M 60.5 76 L 61 86.5 L 60 86.5 L 60.5 76 Z " /><path fill="rgb(146,189,113)" stroke="rgb(146,189,113)" stroke-width="1" opacity="0.6980392156862745" d="M 303.5 78 Q 313.1 76.3 318 79.5 L 315 80.5 L 320.5 82 L 322.5 82 L 330 88.5 L 331 90.5 L 329 90.5 L 331.5 97 L 332.5 94 Q 335.5 98.5 334 107.5 L 333 107.5 L 332.5 97 L 332 108.5 L 333 110.5 L 332 110.5 L 331.5 109 L 331 111.5 L 332 113.5 L 329 114.5 L 330 116.5 L 325 119.5 L 326 120.5 L 322.5 124 L 322.5 122 L 320 123.5 L 320.5 125 L 317.5 124 L 317.5 125 L 319 125.5 L 314.5 127 L 314.5 126 L 317 125.5 L 313.5 125 L 312.5 126 L 304.5 126 L 300.5 125 L 298.5 126 L 295 123.5 Q 297.2 122.2 294.5 121 L 293 121.5 L 293.5 123 L 287 115.5 L 288 112.5 L 286.5 110 L 285.5 112 L 285 110.5 L 286 109.5 L 286 96.5 L 285 94.5 L 286 94.5 L 286.5 96 L 287 93.5 L 286.5 92 L 288 92.5 L 287 90.5 L 294.5 82 L 296.5 81 L 296.5 83 L 303 80.5 L 300 79.5 L 303.5 78 Z M 304 79 L 304 80 L 315 80 L 304 79 Z M 306 88 L 306 89 L 313 89 L 306 88 Z M 303 89 L 303 90 L 305 90 L 303 89 Z M 306 90 L 303 91 L 299 95 L 298 94 L 295 99 L 296 107 L 297 99 Q 296 107 299 112 L 306 116 L 303 117 L 307 118 Q 312 119 315 117 L 312 116 L 317 114 L 321 107 L 322 110 L 323 106 Q 324 99 322 96 L 321 99 L 319 95 Q 315 92 317 90 L 315 91 L 306 90 Z M 300 91 L 298 94 L 301 92 L 300 91 Z M 297 107 L 296 110 L 297 110 L 297 107 Z " /><path fill="rgb(146,189,113)" stroke="rgb(146,189,113)" stroke-width="1" opacity="0.6980392156862745" d="M 433.5 78 L 443 78.5 L 433.5 79 L 433.5 78 Z " /><path fill="rgb(146,189,113)" stroke="rgb(146,189,113)" stroke-width="1" opacity="0.6980392156862745" d="M 119.5 79 L 153 79.5 L 119.5 80 L 119.5 79 Z " /><path fill="rgb(146,189,113)" stroke="rgb(146,189,113)" stroke-width="1" opacity="0.6980392156862745" d="M 160.5 79 L 168 79.5 L 160.5 80 L 160.5 79 Z " /><path fill="rgb(146,189,113)" stroke="rgb(146,189,113)" stroke-width="1" opacity="0.6980392156862745" d="M 187.5 79 L 195 79.5 L 187.5 80 L 187.5 79 Z " /><path fill="rgb(146,189,113)" stroke="rgb(146,189,113)" stroke-width="1" opacity="0.6980392156862745" d="M 206.5 79 L 226.5 79 L 230 80.5 L 227 81.5 L 231.5 83 L 231.5 81 L 237 85.5 L 236 87.5 L 239 88.5 L 238.5 90 L 237.5 88 L 237 90.5 L 238 95.5 L 236 100.5 L 238 100.5 L 233 103.5 L 234 104.5 L 231 107.5 L 232 108.5 L 233 110.5 L 232 112.5 L 235 113.5 L 236 115.5 L 235 117.5 L 238 118.5 L 239 120.5 L 238 122.5 L 241 123.5 L 239 123.5 L 238.5 125 L 229.5 125 L 229.5 126 L 239 126.5 L 229.5 127 L 223 117.5 L 225 117.5 L 223.5 115 L 222 115.5 L 223 113.5 L 220 112.5 L 219 109 L 217 109.5 L 217 123.5 L 216 123.5 L 216 108.5 L 218.5 108 L 220 108.5 L 220 107 L 215 107 L 215 125 L 206 125 L 206 81 L 226.5 81 L 226.5 80 L 206.5 80 L 206.5 79 Z M 215 89 L 215 99 L 225 99 L 227 98 L 226 97 L 227 95 L 227 97 L 228 97 L 228 91 L 227 93 L 226 93 L 226 91 L 217 91 L 217 97 L 224 97 L 224 98 L 216 98 L 216 90 L 226 90 L 215 89 Z M 229 106 L 230 108 Q 231 105 229 106 Z " /><path fill="rgb(146,189,113)" stroke="rgb(146,189,113)" stroke-width="1" opacity="0.6980392156862745" d="M 247.5 79 L 267.5 79 Q 274.7 80.8 278 86.5 L 279 95.5 L 275 101.5 L 279 105.5 L 278 106.5 L 280 117.5 L 277 118.5 L 278 120.5 L 275 122.5 L 275.5 121 L 273 122.5 Q 275.3 123.7 272.5 125 L 267.5 126 L 266.5 125 L 246 125 L 246 81 L 267.5 81 L 267.5 80 L 247.5 80 L 247.5 79 Z M 269 81 L 269 82 L 271 82 L 269 81 Z M 278 88 L 277 96 L 278 96 L 278 88 Z M 255 89 L 255 98 L 266 98 L 266 97 L 256 97 L 256 90 L 266 90 L 255 89 Z M 257 91 L 257 96 L 266 96 L 267 94 L 267 96 L 268 96 L 268 91 L 267 93 L 266 93 L 266 91 L 257 91 Z M 255 106 L 255 117 L 266 117 L 266 116 L 256 116 L 256 107 L 266 107 L 255 106 Z M 267 107 L 266 108 L 257 108 L 257 115 L 268 116 L 267 115 L 268 110 L 268 108 Q 270 109 270 114 L 270 109 L 267 107 Z M 268 124 L 268 125 L 271 125 L 268 124 Z " /><path fill="rgb(146,189,113)" stroke="rgb(146,189,113)" stroke-width="1" opacity="0.6980392156862745" d="M 337.5 79 L 371 79.5 L 337.5 80 L 337.5 79 Z " /><path fill="rgb(146,189,113)" stroke="rgb(146,189,113)" stroke-width="1" opacity="0.6980392156862745" d="M 378.5 79 L 407 79.5 L 378.5 80 L 378.5 79 Z " /><path fill="rgb(146,189,113)" stroke="rgb(146,189,113)" stroke-width="1" opacity="0.6980392156862745" d="M 429.5 79 Q 434.6 81.4 443.5 80 L 445.5 79 L 445.5 80 L 444 80.5 L 447.5 82 L 447.5 80 L 453 84.5 L 453 86.5 L 452 88.5 L 453 89.5 L 449.5 93 L 446.5 94 L 442 90.5 L 444 89.5 L 441.5 89 Q 440.3 91.3 435.5 90 L 435.5 89 L 441 88.5 L 434.5 88 L 432 89.5 L 434 90.5 L 432.5 91 L 430.5 90 Q 432.2 92.2 428 94.5 L 426.5 99 L 425.5 96 L 425 99.5 L 426 104.5 L 425 104.5 L 424.5 100 L 424 105.5 L 425.5 109 L 426.5 106 L 427 108.5 L 426 110.5 L 429 111.5 L 430.5 114 L 433 115.5 L 432.5 117 L 438.5 116 L 438.5 117 L 436 117.5 L 439.5 118 L 443 116.5 L 441 115.5 L 446.5 112 L 448.5 113 L 448.5 111 L 450.5 115 L 452 114.5 L 451.5 113 L 454 115.5 L 454 117.5 L 451 121.5 Q 453.8 123.3 449.5 125 L 443.5 127 L 443.5 126 L 446 125.5 L 442.5 125 Q 440.7 127.7 434.5 126 L 427.5 124 L 427.5 126 L 426.5 123 L 424.5 124 L 420 120.5 L 421.5 121 L 423 120.5 L 419.5 117 Q 418.3 119.3 417 116.5 L 418 114.5 L 415 113.5 L 416 108.5 L 415 107.5 L 415 98.5 L 416 94.5 L 415 92.5 L 422.5 83 L 429.5 79 Z M 430 80 L 430 81 L 432 81 L 430 80 Z M 423 84 L 422 86 L 424 85 L 423 84 Z M 421 86 L 419 89 L 421 88 L 421 86 Z " /><path fill="rgb(146,189,113)" stroke="rgb(146,189,113)" stroke-width="1" opacity="0.6980392156862745" d="M 462.5 79 L 470 79.5 L 462.5 80 L 462.5 79 Z " /><path fill="rgb(146,189,113)" stroke="rgb(146,189,113)" stroke-width="1" opacity="0.6980392156862745" d="M 489.5 79 L 497 79.5 L 489.5 80 L 489.5 79 Z " /><path fill="rgb(146,189,113)" stroke="rgb(146,189,113)" stroke-width="1" opacity="0.6980392156862745" d="M 67.5 81 L 68 85.5 L 67 85.5 L 67.5 81 Z " /><path fill="rgb(146,189,113)" stroke="rgb(146,189,113)" stroke-width="1" opacity="0.6980392156862745" d="M 118 81 L 152.5 81 L 153 81.5 L 153 89 L 140 89 L 140 124.5 L 139.5 125 L 131 125 L 131 89.5 L 130.5 89 L 118 89 L 118 81 Z " /><path fill="rgb(146,189,113)" stroke="rgb(146,189,113)" stroke-width="1" opacity="0.6980392156862745" d="M 154.5 81 L 155 88.5 L 154 88.5 L 154.5 81 Z " /><path fill="rgb(146,189,113)" stroke="rgb(146,189,113)" stroke-width="1" opacity="0.6980392156862745" d="M 160.5 81 L 167.5 81 L 168 81.5 L 168 108.5 L 169.5 113 L 170.5 110 L 173.5 115 Q 181.5 117 183.5 113 L 185 113.5 L 184 111.5 L 184 82.5 L 185 82.5 L 185.5 112 L 186 81 L 194.5 81 L 195 81.5 L 195 112.5 L 196 112.5 L 196.5 81 L 197 112.5 L 193.5 119 Q 192.3 116.8 191 119.5 L 191.5 121 L 193 120.5 L 185.5 126 L 181.5 125 L 170.5 127 L 161 119.5 L 163 119.5 L 161.5 117 Q 160.2 119.3 159 116.5 L 160 109.5 L 159 108.5 L 159 82.5 L 160.5 81 Z M 195 113 L 194 116 L 195 116 L 195 113 Z M 174 116 L 174 117 L 182 117 L 174 116 Z M 171 125 L 171 126 L 173 126 L 171 125 Z " /><path fill="rgb(146,189,113)" stroke="rgb(146,189,113)" stroke-width="1" opacity="0.6980392156862745" d="M 204.5 81 L 205 123.5 L 204 123.5 L 204.5 81 Z " /><path fill="rgb(146,189,113)" stroke="rgb(146,189,113)" stroke-width="1" opacity="0.6980392156862745" d="M 336 81 L 370.5 81 L 371 81.5 L 371 89 L 358 89 L 358 124.5 L 357.5 125 L 349 125 L 349 91 L 337.5 91 L 337.5 90 L 350 89.5 L 336 89 L 336 81 Z " /><path fill="rgb(146,189,113)" stroke="rgb(146,189,113)" stroke-width="1" opacity="0.6980392156862745" d="M 376.5 81 L 377 123.5 L 376 123.5 L 376.5 81 Z " /><path fill="rgb(146,189,113)" stroke="rgb(146,189,113)" stroke-width="1" opacity="0.6980392156862745" d="M 378 81 L 406.5 81 L 407 81.5 L 407 89 L 387 89 L 387 98 L 406 98 L 406 105.5 L 404.5 107 L 389 107 L 389 115 L 407.5 115 L 407.5 116 L 388 116 L 388 106.5 L 387 106.5 L 387 117 L 408 117 L 408 125 L 378 125 L 378 81 Z " /><path fill="rgb(146,189,113)" stroke="rgb(146,189,113)" stroke-width="1" opacity="0.6980392156862745" d="M 461 81 L 470 81 L 470 98 L 489 98 L 489 81 L 497 81 Q 499 85.5 498 94.5 L 497 95.5 L 497 104.5 L 498 109.5 L 497 110.5 L 497 122.5 Q 499.3 123.7 496.5 125 L 489 125 L 489 106 L 470 106 L 470 125 L 461 125 L 461 81 Z " /><path fill="rgb(146,189,113)" stroke="rgb(146,189,113)" stroke-width="1" opacity="0.6980392156862745" d="M 471.5 81 L 472 96 L 487 96 L 487 81.5 L 488 81.5 L 488 97 L 471 97 L 471.5 81 Z " /><path fill="rgb(146,189,113)" stroke="rgb(146,189,113)" stroke-width="1" opacity="0.6980392156862745" d="M 116.5 82 L 117 88.5 L 116 88.5 L 116.5 82 Z " /><path fill="rgb(146,189,113)" stroke="rgb(146,189,113)" stroke-width="1" opacity="0.6980392156862745" d="M 244.5 82 L 245 105.5 L 244 105.5 L 244.5 82 Z " /><path fill="rgb(146,189,113)" stroke="rgb(146,189,113)" stroke-width="1" opacity="0.6980392156862745" d="M 334.5 82 L 335 87.5 L 334 87.5 L 334.5 82 Z " /><path fill="rgb(146,189,113)" stroke="rgb(146,189,113)" stroke-width="1" opacity="0.6980392156862745" d="M 372.5 82 L 373 87.5 L 372 87.5 L 372.5 82 Z " /><path fill="rgb(146,189,113)" stroke="rgb(146,189,113)" stroke-width="1" opacity="0.6980392156862745" d="M 408.5 82 L 409 87.5 L 408 87.5 L 408.5 82 Z " /><path fill="rgb(146,189,113)" stroke="rgb(146,189,113)" stroke-width="1" opacity="0.6980392156862745" d="M 459.5 82 L 460 123.5 L 459 123.5 L 459.5 82 Z " /><path fill="rgb(146,189,113)" stroke="rgb(146,189,113)" stroke-width="1" opacity="0.6980392156862745" d="M 47.5 90 L 48 92.5 L 47 92.5 L 47.5 90 Z " /><path fill="rgb(146,189,113)" stroke="rgb(146,189,113)" stroke-width="1" opacity="0.6980392156862745" d="M 119.5 90 L 129.5 90 L 130 90.5 L 130 123.5 L 129 123.5 L 129 91.5 L 128.5 91 L 119.5 91 L 119.5 90 Z " /><path fill="rgb(146,189,113)" stroke="rgb(146,189,113)" stroke-width="1" opacity="0.6980392156862745" d="M 141 90 L 153 90.5 L 142 91 L 141.5 124 L 141 90 Z " /><path fill="rgb(146,189,113)" stroke="rgb(146,189,113)" stroke-width="1" opacity="0.6980392156862745" d="M 359 90 L 371 90.5 L 360 91 L 359.5 124 L 359 90 Z " /><path fill="rgb(146,189,113)" stroke="rgb(146,189,113)" stroke-width="1" opacity="0.6980392156862745" d="M 388 90 L 407 90.5 L 389 91 L 389.5 96 L 405.5 96 L 405.5 97 L 388 97 L 388 90 Z " /><path fill="rgb(146,189,113)" stroke="rgb(146,189,113)" stroke-width="1" opacity="0.6980392156862745" d="M 239.5 92 L 240 94.5 L 239 94.5 L 239.5 92 Z " /><path fill="rgb(146,189,113)" stroke="rgb(146,189,113)" stroke-width="1" opacity="0.6980392156862745" d="M 62.5 96 L 63 98.5 L 62 98.5 L 62.5 96 Z " /><path fill="rgb(146,189,113)" stroke="rgb(146,189,113)" stroke-width="1" opacity="0.6980392156862745" d="M 16.5 97 L 17 99.5 L 16 99.5 L 16.5 97 Z " /><path fill="rgb(146,189,113)" stroke="rgb(146,189,113)" stroke-width="1" opacity="0.6980392156862745" d="M 284.5 97 L 285 108.5 L 284 108.5 L 284.5 97 Z " /><path fill="rgb(146,189,113)" stroke="rgb(146,189,113)" stroke-width="1" opacity="0.6980392156862745" d="M 25.5 98 L 26 100.5 L 25 100.5 L 25.5 98 Z " /><path fill="rgb(146,189,113)" stroke="rgb(146,189,113)" stroke-width="1" opacity="0.6980392156862745" d="M 407.5 99 L 408 105.5 L 407 105.5 L 407.5 99 Z " /><path fill="rgb(146,189,113)" stroke="rgb(146,189,113)" stroke-width="1" opacity="0.6980392156862745" d="M 413.5 99 L 414 106.5 L 413 106.5 L 413.5 99 Z " /><path fill="rgb(146,189,113)" stroke="rgb(146,189,113)" stroke-width="1" opacity="0.6980392156862745" d="M 321.5 100 L 322 104.5 L 321 104.5 L 321.5 100 Z " /><path fill="rgb(146,189,113)" stroke="rgb(146,189,113)" stroke-width="1" opacity="0.6980392156862745" d="M 471 107 L 488 107 L 488 123.5 L 487 123.5 L 487 108 L 472 108 L 471.5 122 L 471 107 Z " /><path fill="rgb(146,189,113)" stroke="rgb(146,189,113)" stroke-width="1" opacity="0.6980392156862745" d="M 280.5 109 L 281 114.5 L 280 114.5 L 280.5 109 Z " /><path fill="rgb(146,189,113)" stroke="rgb(146,189,113)" stroke-width="1" opacity="0.6980392156862745" d="M 158.5 111 L 159 113.5 L 158 113.5 L 158.5 111 Z " /><path fill="rgb(146,189,113)" stroke="rgb(146,189,113)" stroke-width="1" opacity="0.6980392156862745" d="M 307.5 116 L 311 116.5 L 307.5 117 L 307.5 116 Z " /><path fill="rgb(146,189,113)" stroke="rgb(146,189,113)" stroke-width="1" opacity="0.6980392156862745" d="M 132.5 126 L 140 126.5 L 132.5 127 L 132.5 126 Z " /><path fill="rgb(146,189,113)" stroke="rgb(146,189,113)" stroke-width="1" opacity="0.6980392156862745" d="M 206.5 126 L 214 126.5 L 206.5 127 L 206.5 126 Z " /><path fill="rgb(146,189,113)" stroke="rgb(146,189,113)" stroke-width="1" opacity="0.6980392156862745" d="M 247.5 126 L 266 126.5 L 247.5 127 L 247.5 126 Z " /><path fill="rgb(146,189,113)" stroke="rgb(146,189,113)" stroke-width="1" opacity="0.6980392156862745" d="M 350.5 126 L 358 126.5 L 350.5 127 L 350.5 126 Z " /><path fill="rgb(146,189,113)" stroke="rgb(146,189,113)" stroke-width="1" opacity="0.6980392156862745" d="M 379.5 126 L 407 126.5 L 379.5 127 L 379.5 126 Z " /><path fill="rgb(146,189,113)" stroke="rgb(146,189,113)" stroke-width="1" opacity="0.6980392156862745" d="M 462.5 126 L 469 126.5 L 462.5 127 L 462.5 126 Z " /><path fill="rgb(146,189,113)" stroke="rgb(146,189,113)" stroke-width="1" opacity="0.6980392156862745" d="M 489.5 126 L 496 126.5 L 489.5 127 L 489.5 126 Z " /><path fill="rgb(146,189,113)" stroke="rgb(146,189,113)" stroke-width="1" opacity="0.6980392156862745" d="M 174.5 127 L 181 127.5 L 174.5 128 L 174.5 127 Z " /><path fill="rgb(146,189,113)" stroke="rgb(146,189,113)" stroke-width="1" opacity="0.6980392156862745" d="M 305.5 127 L 312 127.5 L 305.5 128 L 305.5 127 Z " /><path fill="rgb(146,189,113)" stroke="rgb(146,189,113)" stroke-width="1" opacity="0.6980392156862745" d="M 435.5 127 L 440 127.5 L 435.5 128 L 435.5 127 Z " /><path fill="rgb(146,189,113)" stroke="rgb(146,189,113)" stroke-width="1" opacity="0.6980392156862745" d="M 119.5 140 L 130 140.5 L 119.5 141 L 119.5 140 Z " /><path fill="rgb(146,189,113)" stroke="rgb(146,189,113)" stroke-width="1" opacity="0.6980392156862745" d="M 157.5 140 L 160 141.5 Q 157.8 142.8 160.5 144 L 164 143.5 L 163 148.5 L 164.5 151 L 165 142 L 168 142.5 L 168 157 L 165 157.5 L 168 158.5 L 165.5 159 L 161.5 154 L 160.5 157 L 160 151.5 L 160 149.5 L 159.5 148 L 159 157 L 156 156.5 L 156 143.5 L 159 141.5 L 157.5 140 Z " /><path fill="rgb(146,189,113)" stroke="rgb(146,189,113)" stroke-width="1" opacity="0.6980392156862745" d="M 196.5 140 L 206 140.5 L 196.5 141 L 196.5 140 Z " /><path fill="rgb(146,189,113)" stroke="rgb(146,189,113)" stroke-width="1" opacity="0.6980392156862745" d="M 234.5 140 Q 244.3 139.3 247 145.5 L 246.5 148 L 245.5 145 L 244 149.5 L 246 149.5 L 244 151.5 L 248 155.5 L 245.5 159 L 242.5 159 L 238.5 155 L 237 155.5 L 238 152.5 L 236 151.5 L 236 157 L 233.5 157 L 233.5 158 L 236 158.5 L 233.5 159 L 231 156.5 L 231 143.5 L 232 143.5 L 232.5 157 L 233 142 L 240 141.5 L 234.5 141 L 234.5 140 Z M 241 142 L 241 143 L 243 143 L 241 142 Z M 237 145 L 236 149 L 237 149 L 237 145 Z M 239 145 L 238 148 Q 242 149 241 147 L 240 147 L 239 145 Z M 242 151 L 245 155 L 246 155 L 242 151 Z M 243 157 L 243 158 L 246 158 L 243 157 Z " /><path fill="rgb(146,189,113)" stroke="rgb(146,189,113)" stroke-width="1" opacity="0.6980392156862745" d="M 275.5 140 Q 280.6 139.4 282 142.5 L 281.5 144 L 283.5 143 L 283 144.5 L 282 146.5 L 286 149.5 Q 285.9 155.9 281.5 158 L 274.5 159 L 274.5 158 L 280 157.5 L 272.5 156 L 272.5 158 L 269.5 154 L 271 154.5 L 269.5 146 L 268.5 153 L 268 146.5 L 273 143.5 Q 270.7 142.3 273.5 141 L 273.5 143 L 279 141.5 Q 274.6 141.9 275.5 140 Z M 277 145 L 273 148 L 274 152 L 276 147 L 275 149 L 276 152 L 276 151 L 278 149 L 284 149 L 282 147 L 277 148 L 278 146 L 277 145 Z M 285 149 L 284 153 L 285 153 L 285 149 Z M 278 152 L 276 153 L 276 154 Q 279 155 280 153 L 278 152 Z " /><path fill="rgb(146,189,113)" stroke="rgb(146,189,113)" stroke-width="1" opacity="0.6980392156862745" d="M 307.5 140 L 310 141.5 Q 307.8 142.8 310.5 144 Q 312 141.5 313.5 145 Q 315.8 145.8 315 143.5 L 318 141.5 L 317.5 143 L 321 142 L 320 145.5 L 322 145.5 L 318.5 149 Q 317.3 146.8 316 149.5 L 316 157 L 312 157 L 311.5 150 L 310.5 157 L 310 150.5 L 304 143.5 L 306 143.5 Q 305.2 140.9 308.5 142 L 308.5 141 L 307.5 140 Z M 309 146 L 308 148 L 310 149 L 309 146 Z M 313 146 L 313 148 L 315 147 L 313 146 Z " /><path fill="rgb(146,189,113)" stroke="rgb(146,189,113)" stroke-width="1" opacity="0.6980392156862745" d="M 118 142 L 129.5 142 L 131 143.5 L 129.5 146 Q 122.8 144.3 121 147.5 L 129.5 148 Q 130.8 145.8 132 148.5 Q 132.5 152.5 129.5 153 L 121 153.5 L 131 154 L 130.5 157 L 118 157 L 118 142 Z M 131 148 L 130 151 L 131 151 L 131 148 Z M 122 151 L 122 152 L 130 152 L 122 151 Z " /><path fill="rgb(146,189,113)" stroke="rgb(146,189,113)" stroke-width="1" opacity="0.6980392156862745" d="M 195.5 142 L 205.5 142 L 207 143.5 L 207 146 L 200.5 146 L 199 146.5 L 198.5 145 L 198 148 L 206 148 L 206 151 L 198 151 L 198 154 L 207 153.5 L 199 152.5 L 206.5 152 Q 209.5 152.5 209 156.5 L 206.5 159 L 195.5 159 L 195.5 158 L 207 157.5 L 194 157 L 194 143.5 L 195.5 142 Z M 208 154 L 207 157 L 208 157 L 208 154 Z " /><path fill="rgb(146,189,113)" stroke="rgb(146,189,113)" stroke-width="1" opacity="0.6980392156862745" d="M 88.5 143 L 91 143.5 L 88.5 144 L 88.5 143 Z " /><path fill="rgb(146,189,113)" stroke="rgb(146,189,113)" stroke-width="1" opacity="0.6980392156862745" d="M 116.5 143 L 117 156.5 L 116 156.5 L 116.5 143 Z " /><path fill="rgb(146,189,113)" stroke="rgb(146,189,113)" stroke-width="1" opacity="0.6980392156862745" d="M 154.5 143 L 155 156.5 L 154 156.5 L 154.5 143 Z " /><path fill="rgb(146,189,113)" stroke="rgb(146,189,113)" stroke-width="1" opacity="0.6980392156862745" d="M 169.5 143 L 170 155.5 L 169 155.5 L 169.5 143 Z " /><path fill="rgb(146,189,113)" stroke="rgb(146,189,113)" stroke-width="1" opacity="0.6980392156862745" d="M 192.5 144 L 193 155.5 L 192 155.5 L 192.5 144 Z " /><path fill="rgb(146,189,113)" stroke="rgb(146,189,113)" stroke-width="1" opacity="0.6980392156862745" d="M 69.5 146 L 72 146.5 L 69.5 147 L 69.5 146 Z " /><path fill="rgb(146,189,113)" stroke="rgb(146,189,113)" stroke-width="1" opacity="0.6980392156862745" d="M 73.5 147 L 76 147.5 L 73.5 148 L 73.5 147 Z " /><path fill="rgb(146,189,113)" stroke="rgb(146,189,113)" stroke-width="1" opacity="0.6980392156862745" d="M 78.5 148 L 88 148.5 L 78.5 149 L 78.5 148 Z " /><path fill="rgb(146,189,113)" stroke="rgb(146,189,113)" stroke-width="1" opacity="0.6980392156862745" d="M 64.5 149 L 67 149.5 L 64.5 150 L 64.5 149 Z " /><path fill="rgb(146,189,113)" stroke="rgb(146,189,113)" stroke-width="1" opacity="0.6980392156862745" d="M 97.5 149 L 100 149.5 L 97.5 150 L 97.5 149 Z " /><path fill="rgb(146,189,113)" stroke="rgb(146,189,113)" stroke-width="1" opacity="0.6980392156862745" d="M 68.5 150 L 72 150.5 L 68.5 151 L 68.5 150 Z " /><path fill="rgb(146,189,113)" stroke="rgb(146,189,113)" stroke-width="1" opacity="0.6980392156862745" d="M 119.5 158 L 130 158.5 L 119.5 159 L 119.5 158 Z " /><path fill="rgb(146,189,113)" stroke="rgb(146,189,113)" stroke-width="1" opacity="0.6980392156862745" d="M 156.5 158 L 159 158.5 L 156.5 159 L 156.5 158 Z " /><path fill="rgb(146,189,113)" stroke="rgb(146,189,113)" stroke-width="1" opacity="0.6980392156862745" d="M 312.5 158 L 315 158.5 L 312.5 159 L 312.5 158 Z " /><path fill="rgb(146,189,113)" stroke="rgb(146,189,113)" stroke-width="1" opacity="0.6980392156862745" d="M 57.5 161 L 60 161.5 L 57.5 162 L 57.5 161 Z " /><path fill="rgb(146,189,113)" stroke="rgb(146,189,113)" stroke-width="1" opacity="0.6980392156862745" d="M 83.5 161 L 86 161.5 L 83.5 162 L 83.5 161 Z " /></svg>