<svg width="209" height="65" version="1.1" xmlns="http://www.w3.org/2000/svg" desc="Created with imagetracer.js version 1.2.6" ><path fill="#052D82" stroke="#052D82" stroke-width="1" opacity="0" d="M 0 0 L 70 0.5 L 68 2.5 L 68 40.5 L 73.5 45 L 134.5 45 L 140 40.5 L 140 3.5 L 138 0 L 209 0 L 209 54 L 205 54 L 205 55.5 L 204 55.5 L 204 54 L 195.5 54 L 195 52 L 192.5 52 L 190.5 55 L 185.5 54 L 183 55.5 Q 183.8 52.9 180.5 54 L 178.5 54 Q 173.3 55.5 175 51 L 171 51 Q 172.7 55.1 168.5 54 Q 166.5 58 164.5 54 Q 159.8 52.8 158.5 55 L 158 51 L 155 51.5 L 155 63 L 166.5 63 L 167.5 62 Q 169 64.5 174.5 63 L 176.5 63 Q 182 64.5 183.5 62 Q 184.8 64.3 189.5 63 L 191.5 62 L 192.5 63 L 200 63 L 200.5 58 L 203 61.5 L 201 62 L 200.5 65 L 0 65 L 0.5 62 Q 1.8 64.3 6.5 63 Q 8.5 59 10.5 63 Q 16.3 64.3 17.5 61 L 17.5 63 Q 23.2 64.8 21 58.5 L 22 58.5 L 22 63 L 29.5 63 L 31.5 63 L 38.5 62 Q 40 64.5 45.5 63 L 47.5 63 Q 52.3 64.3 53.5 62 L 58 63 L 58 58 L 59.5 58 L 59 59.5 L 60.5 63 Q 66 64.5 67.5 62 Q 69.3 64.7 75.5 63 L 75.5 61 Q 76.8 64.3 82.5 63 L 84.5 63 L 93 63 L 93 56.5 Q 91.1 52.3 84 54 L 83.5 56 Q 82.5 53 77.5 54 L 76 54.5 L 74.5 51 Q 70.8 49.8 72 53.5 L 71 53.5 Q 71.8 50.9 68.5 52 L 66.5 55 L 65.5 54 L 54 54 L 53.5 56 Q 52.8 53.3 48.5 54 L 47 54.5 L 45.5 51 L 42 52.5 L 42.5 54 Q 38.1 52.5 39 55.5 L 37.5 55 L 32.5 54 L 31 54.5 L 32 51 L 26 52 L 25.5 54 L 18.5 54 L 16.5 55 L 11.5 54 L 9 55.5 L 7.5 52 L 3.5 51 L 0.5 53 L 0 0 Z M 107 51 L 104 52 L 103 55 L 98 54 Q 94 55 95 61 Q 96 64 102 63 L 103 61 L 104 61 Q 103 65 108 63 L 110 53 Q 111 50 107 51 Z M 111 51 L 111 63 L 119 63 L 120 58 L 120 63 Q 124 64 123 62 L 124 62 L 125 63 L 135 63 L 137 63 L 147 63 L 147 59 L 148 59 Q 146 65 152 63 Q 154 56 150 54 Q 144 53 143 55 L 138 54 L 135 56 Q 137 50 133 51 L 131 51 Q 126 50 128 54 L 126 54 Q 124 58 122 54 L 116 54 L 115 51 L 111 51 Z " /><path fill="#052D82" stroke="#052D82" stroke-width="1" opacity="0" d="M 73.5 3 L 134.5 3 L 136 4.5 L 136 40 L 72 40 L 72 4.5 L 73.5 3 Z M 89 8 L 81 11 L 78 14 L 75 25 Q 74 29 77 31 L 82 35 L 96 35 L 97 33 L 97 35 L 126 35 L 127 34 L 125 31 L 128 25 L 130 14 L 132 12 Q 134 13 133 9 L 120 9 L 119 8 L 105 8 L 103 10 L 104 13 L 99 30 Q 100 32 97 31 L 98 24 L 86 29 L 84 30 L 89 13 L 100 20 L 102 14 L 102 8 L 89 8 Z " /><path fill="#052D82" stroke="#052D82" stroke-width="1" opacity="0" d="M 117.5 12 Q 119.8 11.3 119 13.5 L 116 19.5 L 114 31 Q 110.2 32.5 111 29.5 L 114 18.5 L 117.5 12 Z " /><path fill="#052D82" stroke="#052D82" stroke-width="1" opacity="0" d="M 3 56 L 9 57.5 L 5 58 L 4.5 60 L 3 56 Z " /><path fill="#052D82" stroke="#052D82" stroke-width="1" opacity="0" d="M 208.5 59 L 209 65 Q 205.2 66.5 206 63.5 L 208.5 59 Z " /><path fill="rgb(255,255,255)" stroke="rgb(255,255,255)" stroke-width="1" opacity="0.9372549019607843" d="M 69 4 L 71 4.5 L 70 5.5 L 70 38.5 L 70.5 40 L 69 39.5 L 69 4 Z " /><path fill="rgb(255,255,255)" stroke="rgb(255,255,255)" stroke-width="1" opacity="0.9372549019607843" d="M 86.5 10 L 90 11.5 L 88.5 11 L 84.5 12 L 84.5 11 L 86.5 10 Z " /><path fill="rgb(255,255,255)" stroke="rgb(255,255,255)" stroke-width="1" opacity="0.9372549019607843" d="M 120 10 L 131 10.5 Q 129.8 13.3 128.5 11 L 121.5 11 L 121 12.5 L 120 12.5 L 120 10 Z " /><path fill="rgb(255,255,255)" stroke="rgb(255,255,255)" stroke-width="1" opacity="0.9372549019607843" d="M 80.5 13 L 79.5 15 L 80.5 13 Z " /><path fill="rgb(255,255,255)" stroke="rgb(255,255,255)" stroke-width="1" opacity="0.9372549019607843" d="M 105.5 13 L 106 15.5 L 105 15.5 L 105.5 13 Z " /><path fill="rgb(255,255,255)" stroke="rgb(255,255,255)" stroke-width="1" opacity="0.9372549019607843" d="M 78.5 29 L 79.5 31 L 78.5 29 Z " /><path fill="rgb(255,255,255)" stroke="rgb(255,255,255)" stroke-width="1" opacity="0.9372549019607843" d="M 123.5 30 L 125 33.5 L 123 32.5 L 123.5 30 Z " /><path fill="rgb(255,255,255)" stroke="rgb(255,255,255)" stroke-width="1" opacity="0.9372549019607843" d="M 99.5 32 L 98.5 34 L 99.5 32 Z " /><path fill="rgb(255,255,255)" stroke="rgb(255,255,255)" stroke-width="1" opacity="0.9372549019607843" d="M 135.5 41 L 136 43 L 72 42.5 L 134.5 42 L 135.5 41 Z " /><path fill="rgb(255,255,255)" stroke="rgb(255,255,255)" stroke-width="1" opacity="0.9372549019607843" d="M 2.5 53 L 5 53.5 L 0.5 56 L 2.5 53 Z " /><path fill="rgb(255,255,255)" stroke="rgb(255,255,255)" stroke-width="1" opacity="0.9372549019607843" d="M 28.5 53 L 30 53.5 L 28.5 56 Q 25.5 54.5 28.5 53 Z " /><path fill="rgb(255,255,255)" stroke="rgb(255,255,255)" stroke-width="1" opacity="0.9372549019607843" d="M 105 53 L 108 53.5 L 105.5 61 L 105 57.5 L 106 55.5 L 105 53 Z " /><path fill="rgb(255,255,255)" stroke="rgb(255,255,255)" stroke-width="1" opacity="0.9372549019607843" d="M 112 53 L 114 53.5 L 114 61 L 112 60.5 L 112 53 Z " /><path fill="rgb(255,255,255)" stroke="rgb(255,255,255)" stroke-width="1" opacity="0.9372549019607843" d="M 129.5 53 L 130 55.5 L 128 56.5 L 129.5 53 Z " /><path fill="rgb(255,255,255)" stroke="rgb(255,255,255)" stroke-width="1" opacity="0.9372549019607843" d="M 173.5 53 L 174 60 L 172 60 L 172 57 Q 169.3 58.1 170 55.5 L 172 55.5 L 173.5 53 Z " /><path fill="rgb(255,255,255)" stroke="rgb(255,255,255)" stroke-width="1" opacity="0.9372549019607843" d="M 69.5 54 L 69 55.5 L 70 59.5 L 68 60.5 L 69 58.5 L 68 55.5 L 69.5 54 Z " /><path fill="rgb(255,255,255)" stroke="rgb(255,255,255)" stroke-width="1" opacity="0.9372549019607843" d="M 12.5 55 Q 14.8 54.3 14 56.5 L 12 56.5 L 11.5 58 L 11 56.5 L 12.5 55 Z " /><path fill="rgb(255,255,255)" stroke="rgb(255,255,255)" stroke-width="1" opacity="0.9372549019607843" d="M 34.5 55 L 33 57.5 Q 34 61.3 31 60 L 32.5 56 L 34.5 55 Z " /><path fill="rgb(255,255,255)" stroke="rgb(255,255,255)" stroke-width="1" opacity="0.9372549019607843" d="M 44.5 55 L 45 59.5 L 44 59.5 L 44.5 55 Z " /><path fill="rgb(255,255,255)" stroke="rgb(255,255,255)" stroke-width="1" opacity="0.9372549019607843" d="M 49.5 55 L 52.5 57 L 51.5 59 L 51 57 Q 46.1 55.4 48 61 L 50 61.5 L 48.5 62 Q 46.3 61.3 47 57.5 L 49.5 55 Z " /><path fill="rgb(255,255,255)" stroke="rgb(255,255,255)" stroke-width="1" opacity="0.9372549019607843" d="M 62 55 L 64 55.5 L 62 56.5 L 62 55 Z " /><path fill="rgb(255,255,255)" stroke="rgb(255,255,255)" stroke-width="1" opacity="0.9372549019607843" d="M 79 55 L 82 56.5 L 81.5 58 L 80.5 56 L 79 56.5 L 79 55 Z " /><path fill="rgb(255,255,255)" stroke="rgb(255,255,255)" stroke-width="1" opacity="0.9372549019607843" d="M 89.5 55 Q 91.8 55.8 91 59.5 L 90 59.5 L 89.5 55 Z " /><path fill="rgb(255,255,255)" stroke="rgb(255,255,255)" stroke-width="1" opacity="0.9372549019607843" d="M 98.5 55 Q 101.1 54.3 100 57 L 97 58.5 Q 99.2 59.8 96.5 61 L 96 57.5 L 98.5 55 Z " /><path fill="rgb(255,255,255)" stroke="rgb(255,255,255)" stroke-width="1" opacity="0.9372549019607843" d="M 120.5 55 L 121.5 57 L 119.5 57 L 117 57.5 L 117.5 61 L 116 61 L 116 56 L 120.5 55 Z " /><path fill="rgb(255,255,255)" stroke="rgb(255,255,255)" stroke-width="1" opacity="0.9372549019607843" d="M 139.5 55 L 138.5 57 L 137 56.5 L 139.5 55 Z " /><path fill="rgb(255,255,255)" stroke="rgb(255,255,255)" stroke-width="1" opacity="0.9372549019607843" d="M 148.5 55 L 149.5 57 L 148.5 55 Z " /><path fill="rgb(255,255,255)" stroke="rgb(255,255,255)" stroke-width="1" opacity="0.9372549019607843" d="M 85 56 Q 87.7 54.9 87 57.5 L 86 59.5 L 86.5 61 L 85 61 L 85 56 Z " /><path fill="rgb(255,255,255)" stroke="rgb(255,255,255)" stroke-width="1" opacity="0.9372549019607843" d="M 141.5 56 L 141 57.5 L 142 61.5 L 137.5 62 L 136.5 60 L 140 61 Q 139 57.2 141.5 56 Z " /><path fill="rgb(255,255,255)" stroke="rgb(255,255,255)" stroke-width="1" opacity="0.9372549019607843" d="M 176 56 Q 179.3 54.7 178 59.5 L 177.5 61 L 180.5 60 L 181.5 62 Q 177 63 176 60.5 L 176 56 Z " /><path fill="rgb(255,255,255)" stroke="rgb(255,255,255)" stroke-width="1" opacity="0.9372549019607843" d="M 197.5 56 L 200 56.5 Q 197.9 59.8 197.5 56 Z " /><path fill="rgb(255,255,255)" stroke="rgb(255,255,255)" stroke-width="1" opacity="0.9372549019607843" d="M 27 57 L 29 57.5 L 28 59.5 L 28.5 61 L 27 61 L 27 57 Z " /><path fill="rgb(255,255,255)" stroke="rgb(255,255,255)" stroke-width="1" opacity="0.9372549019607843" d="M 56.5 57 L 57 60.5 L 55 61.5 L 56.5 57 Z " /><path fill="rgb(255,255,255)" stroke="rgb(255,255,255)" stroke-width="1" opacity="0.9372549019607843" d="M 64 57 Q 67.3 55.7 66 60.5 Q 65.3 62.8 61.5 62 L 60.5 60 L 64 61 L 64 57 Z " /><path fill="rgb(255,255,255)" stroke="rgb(255,255,255)" stroke-width="1" opacity="0.9372549019607843" d="M 124 57 Q 127.3 55.9 126 60 Q 122.7 61.1 124 57 Z " /><path fill="rgb(255,255,255)" stroke="rgb(255,255,255)" stroke-width="1" opacity="0.9372549019607843" d="M 184.5 57 L 185.5 59 L 184.5 57 Z " /><path fill="rgb(255,255,255)" stroke="rgb(255,255,255)" stroke-width="1" opacity="0.9372549019607843" d="M 192.5 57 Q 195.5 56.1 194 60.5 L 194.5 62 L 192.5 57 Z " /><path fill="rgb(255,255,255)" stroke="rgb(255,255,255)" stroke-width="1" opacity="0.9372549019607843" d="M 23.5 58 L 25 60.5 L 23 61.5 L 23 59.5 L 23.5 58 Z " /><path fill="rgb(255,255,255)" stroke="rgb(255,255,255)" stroke-width="1" opacity="0.9372549019607843" d="M 77.5 58 L 79 61.5 L 78 61.5 L 77.5 58 Z " /><path fill="rgb(255,255,255)" stroke="rgb(255,255,255)" stroke-width="1" opacity="0.9372549019607843" d="M 101 58 Q 104 57 103 60 Q 100 61 101 58 Z " /><path fill="rgb(255,255,255)" stroke="rgb(255,255,255)" stroke-width="1" opacity="0.9372549019607843" d="M 129.5 58 L 130 59.5 L 129.5 62 L 127 61.5 L 129.5 58 Z " /><path fill="rgb(255,255,255)" stroke="rgb(255,255,255)" stroke-width="1" opacity="0.9372549019607843" d="M 164.5 58 L 165 60.5 L 164 60.5 L 164.5 58 Z " /><path fill="rgb(255,255,255)" stroke="rgb(255,255,255)" stroke-width="1" opacity="0.9372549019607843" d="M 206.5 58 L 207 60 L 203 59.5 L 206.5 58 Z " /><path fill="rgb(255,255,255)" stroke="rgb(255,255,255)" stroke-width="1" opacity="0.9372549019607843" d="M 10.5 60 L 11.5 62 L 10.5 60 Z " /><path fill="rgb(255,255,255)" stroke="rgb(255,255,255)" stroke-width="1" opacity="0.9372549019607843" d="M 39.5 60 L 44 61.5 L 40.5 62 L 39.5 60 Z " /><path fill="rgb(255,255,255)" stroke="rgb(255,255,255)" stroke-width="1" opacity="0.9372549019607843" d="M 82.5 60 L 81.5 62 L 82.5 60 Z " /><path fill="rgb(255,255,255)" stroke="rgb(255,255,255)" stroke-width="1" opacity="0.9372549019607843" d="M 188.5 60 L 189 62 L 185 61.5 L 188.5 60 Z " /><path fill="rgb(255,255,255)" stroke="rgb(255,255,255)" stroke-width="1" opacity="0.9372549019607843" d="M 32.5 61 L 36 61.5 L 32.5 62 L 32.5 61 Z " /><path fill="rgb(255,255,255)" stroke="rgb(255,255,255)" stroke-width="1" opacity="0.9372549019607843" d="M 203.5 63 L 204 65 L 202 64.5 L 203.5 63 Z " /><path fill="rgb(255,255,255)" stroke="rgb(255,255,255)" stroke-width="1" opacity="0.996078431372549" d="M 71.5 2 L 70.5 4 L 71.5 2 Z " /><path fill="rgb(255,255,255)" stroke="rgb(255,255,255)" stroke-width="1" opacity="0.996078431372549" d="M 136.5 2 L 138 4.5 L 137 4.5 L 136.5 2 Z " /><path fill="rgb(255,255,255)" stroke="rgb(255,255,255)" stroke-width="1" opacity="0.996078431372549" d="M 89.5 10 L 101 10.5 L 98.5 18 Q 92 14.9 89.5 10 Z " /><path fill="rgb(255,255,255)" stroke="rgb(255,255,255)" stroke-width="1" opacity="0.996078431372549" d="M 107.5 10 L 114.5 10 L 115 11.5 L 109 32.5 L 109.5 34 L 99 33.5 L 101 31.5 L 103 21.5 L 106 15.5 L 106 11.5 L 107.5 10 Z " /><path fill="rgb(255,255,255)" stroke="rgb(255,255,255)" stroke-width="1" opacity="0.996078431372549" d="M 86.5 11 L 87 12.5 L 82 32 L 96 27 L 93.5 34 L 92.5 33 L 81.5 33 L 80 31.5 L 77 27.5 L 77 23.5 L 79 15.5 L 81.5 13 L 86.5 11 Z " /><path fill="rgb(255,255,255)" stroke="rgb(255,255,255)" stroke-width="1" opacity="0.996078431372549" d="M 121 11 L 129 11 L 129 13.5 L 123 32.5 L 123.5 34 L 113 33.5 L 115 33 L 121 11 Z " /><path fill="rgb(255,255,255)" stroke="rgb(255,255,255)" stroke-width="1" opacity="0.996078431372549" d="M 70.5 40 L 71.5 42 L 70.5 40 Z " /><path fill="rgb(255,255,255)" stroke="rgb(255,255,255)" stroke-width="1" opacity="0.996078431372549" d="M 5.5 53 L 6.5 55 L 5.5 53 Z " /><path fill="rgb(255,255,255)" stroke="rgb(255,255,255)" stroke-width="1" opacity="0.996078431372549" d="M 156.5 53 L 157 60.5 L 156 60.5 L 156.5 53 Z " /><path fill="rgb(255,255,255)" stroke="rgb(255,255,255)" stroke-width="1" opacity="0.996078431372549" d="M 2.5 54 L 2 55.5 L 1.5 61 L 0 58.5 L 0 56.5 L 2.5 54 Z " /><path fill="rgb(255,255,255)" stroke="rgb(255,255,255)" stroke-width="1" opacity="0.996078431372549" d="M 27.5 55 L 28.5 57 Q 25.7 57.7 27.5 55 Z " /><path fill="rgb(255,255,255)" stroke="rgb(255,255,255)" stroke-width="1" opacity="0.996078431372549" d="M 192 55 Q 195 54 194 57 Q 191 58 192 55 Z " /><path fill="rgb(255,255,255)" stroke="rgb(255,255,255)" stroke-width="1" opacity="0.996078431372549" d="M 14.5 56 L 15.5 58 L 14.5 56 Z " /><path fill="rgb(255,255,255)" stroke="rgb(255,255,255)" stroke-width="1" opacity="0.996078431372549" d="M 19.5 56 L 20 60.5 L 19 60.5 L 19.5 56 Z " /><path fill="rgb(255,255,255)" stroke="rgb(255,255,255)" stroke-width="1" opacity="0.996078431372549" d="M 35.5 56 L 37 58.5 L 36 58.5 L 35.5 56 Z " /><path fill="rgb(255,255,255)" stroke="rgb(255,255,255)" stroke-width="1" opacity="0.996078431372549" d="M 40.5 56 L 40 57.5 L 39.5 60 L 39 57.5 L 40.5 56 Z " /><path fill="rgb(255,255,255)" stroke="rgb(255,255,255)" stroke-width="1" opacity="0.996078431372549" d="M 55 56 L 58 56.5 L 56 57 L 55.5 61 L 55 56 Z " /><path fill="rgb(255,255,255)" stroke="rgb(255,255,255)" stroke-width="1" opacity="0.996078431372549" d="M 78.5 56 L 77.5 58 L 78.5 56 Z " /><path fill="rgb(255,255,255)" stroke="rgb(255,255,255)" stroke-width="1" opacity="0.996078431372549" d="M 100.5 56 L 101.5 58 L 100.5 56 Z " /><path fill="rgb(255,255,255)" stroke="rgb(255,255,255)" stroke-width="1" opacity="0.996078431372549" d="M 120.5 56 Q 122.8 56.8 122 60.5 L 121 60.5 L 120.5 56 Z " /><path fill="rgb(255,255,255)" stroke="rgb(255,255,255)" stroke-width="1" opacity="0.996078431372549" d="M 140.5 56 Q 142.8 56.8 142 60.5 L 141 60.5 L 140.5 56 Z " /><path fill="rgb(255,255,255)" stroke="rgb(255,255,255)" stroke-width="1" opacity="0.996078431372549" d="M 145.5 56 L 146 60.5 L 145 60.5 L 145.5 56 Z " /><path fill="rgb(255,255,255)" stroke="rgb(255,255,255)" stroke-width="1" opacity="0.996078431372549" d="M 148.5 56 Q 150.8 56.8 150 60.5 L 149 60.5 L 148.5 56 Z " /><path fill="rgb(255,255,255)" stroke="rgb(255,255,255)" stroke-width="1" opacity="0.996078431372549" d="M 163.5 56 Q 165.8 55.3 165 57.5 L 163.5 56 Z " /><path fill="rgb(255,255,255)" stroke="rgb(255,255,255)" stroke-width="1" opacity="0.996078431372549" d="M 169.5 56 L 169 57.5 L 168.5 61 L 168 57.5 L 169.5 56 Z " /><path fill="rgb(255,255,255)" stroke="rgb(255,255,255)" stroke-width="1" opacity="0.996078431372549" d="M 181.5 56 L 182 60.5 L 181 60.5 L 181.5 56 Z " /><path fill="rgb(255,255,255)" stroke="rgb(255,255,255)" stroke-width="1" opacity="0.996078431372549" d="M 185.5 56 L 187 58.5 L 185 57.5 L 185.5 56 Z " /><path fill="rgb(255,255,255)" stroke="rgb(255,255,255)" stroke-width="1" opacity="0.996078431372549" d="M 198.5 56 L 198 57.5 L 197.5 59 L 197 57.5 L 198.5 56 Z " /><path fill="rgb(255,255,255)" stroke="rgb(255,255,255)" stroke-width="1" opacity="0.996078431372549" d="M 10.5 57 L 12.5 61 L 14 61.5 L 12.5 62 Q 8.8 60.8 10.5 57 Z " /><path fill="rgb(255,255,255)" stroke="rgb(255,255,255)" stroke-width="1" opacity="0.996078431372549" d="M 48.5 57 L 49 60.5 L 48 60.5 L 48.5 57 Z " /><path fill="rgb(255,255,255)" stroke="rgb(255,255,255)" stroke-width="1" opacity="0.996078431372549" d="M 73.5 57 L 74 60.5 L 73 60.5 L 73.5 57 Z " /><path fill="rgb(255,255,255)" stroke="rgb(255,255,255)" stroke-width="1" opacity="0.996078431372549" d="M 82.5 57 L 83 59.5 L 79.5 62 L 79.5 61 L 82 59.5 L 82.5 57 Z " /><path fill="rgb(255,255,255)" stroke="rgb(255,255,255)" stroke-width="1" opacity="0.996078431372549" d="M 133.5 57 L 134 60.5 L 133 60.5 L 133.5 57 Z " /><path fill="rgb(255,255,255)" stroke="rgb(255,255,255)" stroke-width="1" opacity="0.996078431372549" d="M 188.5 59 Q 190.8 58.3 190 60.5 L 188.5 59 Z " /><path fill="rgb(255,255,255)" stroke="rgb(255,255,255)" stroke-width="1" opacity="0.996078431372549" d="M 69.5 60 L 70.5 62 Q 67.7 62.7 69.5 60 Z " /><path fill="rgb(255,255,255)" stroke="rgb(255,255,255)" stroke-width="1" opacity="0.996078431372549" d="M 97.5 60 L 100 61.5 L 98.5 62 L 97.5 60 Z " /><path fill="rgb(255,255,255)" stroke="rgb(255,255,255)" stroke-width="1" opacity="0.996078431372549" d="M 125.5 60 L 126.5 62 L 125.5 60 Z " /><path fill="rgb(255,255,255)" stroke="rgb(255,255,255)" stroke-width="1" opacity="0.996078431372549" d="M 204 60 L 206 60.5 L 204.5 64 L 204 60 Z " /><path fill="rgb(255,255,255)" stroke="rgb(255,255,255)" stroke-width="1" opacity="0.7058823529411765" d="M 72.5 0 L 135 0.5 L 131.5 2 L 75.5 2 L 72.5 1 L 71.5 4 L 71 1.5 L 72.5 0 Z " /><path fill="rgb(255,255,255)" stroke="rgb(255,255,255)" stroke-width="1" opacity="0.7058823529411765" d="M 136.5 1 Q 139.5 2.5 136.5 4 Q 133.5 2.5 136.5 1 Z " /><path fill="rgb(255,255,255)" stroke="rgb(255,255,255)" stroke-width="1" opacity="0.7058823529411765" d="M 138.5 4 L 139 39.5 L 138 39.5 L 137 37.5 L 137 6.5 L 138.5 4 Z " /><path fill="rgb(255,255,255)" stroke="rgb(255,255,255)" stroke-width="1" opacity="0.7058823529411765" d="M 70.5 5 L 71 38.5 L 70 38.5 L 70.5 5 Z " /><path fill="rgb(255,255,255)" stroke="rgb(255,255,255)" stroke-width="1" opacity="0.7058823529411765" d="M 104.5 10 L 106 12.5 L 105 12.5 L 104.5 10 Z " /><path fill="rgb(255,255,255)" stroke="rgb(255,255,255)" stroke-width="1" opacity="0.7058823529411765" d="M 131.5 10 L 129.5 13 L 131.5 10 Z " /><path fill="rgb(255,255,255)" stroke="rgb(255,255,255)" stroke-width="1" opacity="0.7058823529411765" d="M 87 11 L 89 11.5 L 87 12.5 L 87 11 Z " /><path fill="rgb(255,255,255)" stroke="rgb(255,255,255)" stroke-width="1" opacity="0.7058823529411765" d="M 90.5 12 L 91.5 14 L 90.5 12 Z " /><path fill="rgb(255,255,255)" stroke="rgb(255,255,255)" stroke-width="1" opacity="0.7058823529411765" d="M 94.5 15 L 95.5 17 L 94.5 15 Z " /><path fill="rgb(255,255,255)" stroke="rgb(255,255,255)" stroke-width="1" opacity="0.7058823529411765" d="M 99.5 16 L 100 17.5 Q 98.5 20.5 97 17.5 L 99 17.5 L 99.5 16 Z " /><path fill="rgb(255,255,255)" stroke="rgb(255,255,255)" stroke-width="1" opacity="0.7058823529411765" d="M 85.5 18 L 86 20.5 L 85 20.5 L 85.5 18 Z " /><path fill="rgb(255,255,255)" stroke="rgb(255,255,255)" stroke-width="1" opacity="0.7058823529411765" d="M 111.5 23 L 112 25.5 L 111 25.5 L 111.5 23 Z " /><path fill="rgb(255,255,255)" stroke="rgb(255,255,255)" stroke-width="1" opacity="0.7058823529411765" d="M 76.5 27 L 77.5 29 L 76.5 27 Z " /><path fill="rgb(255,255,255)" stroke="rgb(255,255,255)" stroke-width="1" opacity="0.7058823529411765" d="M 124.5 28 L 125 30.5 L 124 30.5 L 124.5 28 Z " /><path fill="rgb(255,255,255)" stroke="rgb(255,255,255)" stroke-width="1" opacity="0.7058823529411765" d="M 82.5 30 L 83.5 32 Q 80.7 32.7 82.5 30 Z " /><path fill="rgb(255,255,255)" stroke="rgb(255,255,255)" stroke-width="1" opacity="0.7058823529411765" d="M 109.5 30 L 111 33.5 L 110 33.5 L 109.5 30 Z " /><path fill="rgb(255,255,255)" stroke="rgb(255,255,255)" stroke-width="1" opacity="0.7058823529411765" d="M 79.5 31 L 81.5 33 L 92 33.5 L 81.5 34 L 79.5 31 Z " /><path fill="rgb(255,255,255)" stroke="rgb(255,255,255)" stroke-width="1" opacity="0.7058823529411765" d="M 114.5 31 L 112.5 34 L 112 32 L 114.5 31 Z " /><path fill="rgb(255,255,255)" stroke="rgb(255,255,255)" stroke-width="1" opacity="0.7058823529411765" d="M 124.5 32 L 125.5 34 L 124.5 32 Z " /><path fill="rgb(255,255,255)" stroke="rgb(255,255,255)" stroke-width="1" opacity="0.7058823529411765" d="M 69.5 40 L 72.5 41 L 74 41.5 L 71.5 43 L 69.5 40 Z " /><path fill="rgb(255,255,255)" stroke="rgb(255,255,255)" stroke-width="1" opacity="0.7058823529411765" d="M 136.5 40 Q 139.5 41.5 136.5 43 L 136.5 40 Z " /><path fill="rgb(255,255,255)" stroke="rgb(255,255,255)" stroke-width="1" opacity="0.7058823529411765" d="M 73.5 43 L 135 43.5 L 73.5 44 L 73.5 43 Z " /><path fill="rgb(255,255,255)" stroke="rgb(255,255,255)" stroke-width="1" opacity="0.7058823529411765" d="M 1.5 53 L 0.5 55 L 1.5 53 Z " /><path fill="rgb(255,255,255)" stroke="rgb(255,255,255)" stroke-width="1" opacity="0.7058823529411765" d="M 30.5 53 L 30 54.5 L 29.5 57 L 29 54.5 L 30.5 53 Z " /><path fill="rgb(255,255,255)" stroke="rgb(255,255,255)" stroke-width="1" opacity="0.7058823529411765" d="M 43.5 53 L 44 55.5 L 44 57.5 L 42.5 61 L 40 59.5 L 39 56.5 L 41 55.5 L 41 57.5 Q 40 61.3 43 60 L 42 55.5 L 43.5 53 Z " /><path fill="rgb(255,255,255)" stroke="rgb(255,255,255)" stroke-width="1" opacity="0.7058823529411765" d="M 45.5 53 L 46 55.5 L 45 55.5 L 45.5 53 Z " /><path fill="rgb(255,255,255)" stroke="rgb(255,255,255)" stroke-width="1" opacity="0.7058823529411765" d="M 69.5 53 L 68.5 55 L 69.5 53 Z " /><path fill="rgb(255,255,255)" stroke="rgb(255,255,255)" stroke-width="1" opacity="0.7058823529411765" d="M 72.5 53 L 75 53.5 L 74 55.5 Q 76.3 56.7 75 61.5 L 74 61.5 L 73.5 56 L 72.5 62 L 72 56.5 L 73 54.5 L 72.5 53 Z " /><path fill="rgb(255,255,255)" stroke="rgb(255,255,255)" stroke-width="1" opacity="0.7058823529411765" d="M 130.5 53 L 131 61.5 L 130 61.5 L 130.5 53 Z " /><path fill="rgb(255,255,255)" stroke="rgb(255,255,255)" stroke-width="1" opacity="0.7058823529411765" d="M 134.5 53 L 134 54.5 L 135 61.5 L 134 61.5 L 133 54.5 L 134.5 53 Z " /><path fill="rgb(255,255,255)" stroke="rgb(255,255,255)" stroke-width="1" opacity="0.7058823529411765" d="M 155.5 53 L 156 61.5 L 155 61.5 L 155.5 53 Z " /><path fill="rgb(255,255,255)" stroke="rgb(255,255,255)" stroke-width="1" opacity="0.7058823529411765" d="M 157.5 53 L 158 61.5 L 157 61.5 L 157.5 53 Z " /><path fill="rgb(255,255,255)" stroke="rgb(255,255,255)" stroke-width="1" opacity="0.7058823529411765" d="M 193.5 53 L 192 55.5 L 191.5 57 L 191 55.5 L 193.5 53 Z " /><path fill="rgb(255,255,255)" stroke="rgb(255,255,255)" stroke-width="1" opacity="0.7058823529411765" d="M 3.5 54 L 6.5 55 L 8 54.5 Q 8.8 56.8 6.5 56 L 3.5 55 L 2 55.5 L 3.5 54 Z " /><path fill="rgb(255,255,255)" stroke="rgb(255,255,255)" stroke-width="1" opacity="0.7058823529411765" d="M 107.5 54 L 108 56.5 L 107 62 L 105 61.5 L 107.5 54 Z " /><path fill="rgb(255,255,255)" stroke="rgb(255,255,255)" stroke-width="1" opacity="0.7058823529411765" d="M 11.5 55 L 10.5 57 L 11.5 55 Z " /><path fill="rgb(255,255,255)" stroke="rgb(255,255,255)" stroke-width="1" opacity="0.7058823529411765" d="M 19.5 55 Q 22.8 53.9 22 56.5 L 22.5 58 L 21 57.5 L 20.5 62 L 20 57.5 L 20.5 56 Q 17.8 55.4 19 61.5 L 18 61.5 Q 16.8 56.3 19.5 55 Z " /><path fill="rgb(255,255,255)" stroke="rgb(255,255,255)" stroke-width="1" opacity="0.7058823529411765" d="M 23.5 55 Q 25.8 55.8 25 59.5 L 24 59.5 L 23.5 55 Z " /><path fill="rgb(255,255,255)" stroke="rgb(255,255,255)" stroke-width="1" opacity="0.7058823529411765" d="M 32.5 55 L 34.5 56 Q 35.8 53.7 37 56.5 L 34 57.5 L 37 59 L 35.5 63 L 33 62.5 L 36 61.5 L 33 60.5 L 34 56.5 L 32.5 56 L 31 56.5 L 32.5 55 Z " /><path fill="rgb(255,255,255)" stroke="rgb(255,255,255)" stroke-width="1" opacity="0.7058823529411765" d="M 48.5 55 L 47.5 57 L 48.5 55 Z " /><path fill="rgb(255,255,255)" stroke="rgb(255,255,255)" stroke-width="1" opacity="0.7058823529411765" d="M 51.5 55 L 52.5 57 L 51.5 55 Z " /><path fill="rgb(255,255,255)" stroke="rgb(255,255,255)" stroke-width="1" opacity="0.7058823529411765" d="M 55.5 55 L 59 55.5 L 55.5 56 L 55.5 55 Z " /><path fill="rgb(255,255,255)" stroke="rgb(255,255,255)" stroke-width="1" opacity="0.7058823529411765" d="M 61.5 55 L 62.5 58 L 64.5 55 L 65.5 57 L 64 56.5 Q 65.5 60.9 62.5 60 L 60 59.5 L 61 57.5 Q 58.7 56.3 61.5 55 Z " /><path fill="rgb(255,255,255)" stroke="rgb(255,255,255)" stroke-width="1" opacity="0.7058823529411765" d="M 81.5 55 L 82.5 57 L 81.5 55 Z " /><path fill="rgb(255,255,255)" stroke="rgb(255,255,255)" stroke-width="1" opacity="0.7058823529411765" d="M 85.5 55 Q 89.9 53.5 89 56.5 L 90.5 61 L 92 60.5 L 89 62 L 89 57 L 87.5 57 L 85.5 55 Z " /><path fill="rgb(255,255,255)" stroke="rgb(255,255,255)" stroke-width="1" opacity="0.7058823529411765" d="M 97.5 55 L 96.5 57 L 97.5 55 Z " /><path fill="rgb(255,255,255)" stroke="rgb(255,255,255)" stroke-width="1" opacity="0.7058823529411765" d="M 116.5 55 L 120 55.5 L 116.5 56 L 116.5 55 Z " /><path fill="rgb(255,255,255)" stroke="rgb(255,255,255)" stroke-width="1" opacity="0.7058823529411765" d="M 125.5 55 L 124.5 57 L 125.5 55 Z " /><path fill="rgb(255,255,255)" stroke="rgb(255,255,255)" stroke-width="1" opacity="0.7058823529411765" d="M 127 55 L 129 55.5 L 128.5 58 L 127 55 Z " /><path fill="rgb(255,255,255)" stroke="rgb(255,255,255)" stroke-width="1" opacity="0.7058823529411765" d="M 137.5 55 L 139.5 56 L 141.5 55 L 141.5 56 Q 138.9 55.2 140 58.5 L 138.5 61 L 137.5 59 L 136 59.5 L 137 57.5 Q 134.8 56.3 137.5 55 Z M 138 56 L 139 58 Q 140 55 138 56 Z " /><path fill="rgb(255,255,255)" stroke="rgb(255,255,255)" stroke-width="1" opacity="0.7058823529411765" d="M 145.5 55 Q 148.8 53.9 148 56.5 L 148.5 58 L 146 57.5 L 146.5 56 Q 143.8 55.4 145 61.5 L 144 61.5 Q 142.8 56.3 145.5 55 Z " /><path fill="rgb(255,255,255)" stroke="rgb(255,255,255)" stroke-width="1" opacity="0.7058823529411765" d="M 149.5 55 Q 152.3 56.3 151 61.5 L 150 61.5 L 149.5 55 Z " /><path fill="rgb(255,255,255)" stroke="rgb(255,255,255)" stroke-width="1" opacity="0.7058823529411765" d="M 160.5 55 Q 163.8 53.9 163 56.5 L 163.5 58 L 162 57.5 L 161.5 59 L 161 57.5 L 161.5 56 Q 158.8 55.4 160 61.5 L 159 61.5 Q 157.8 56.3 160.5 55 Z " /><path fill="rgb(255,255,255)" stroke="rgb(255,255,255)" stroke-width="1" opacity="0.7058823529411765" d="M 164.5 55 Q 167.5 56.6 166 62 L 164 61.5 L 165 56.5 L 164.5 55 Z " /><path fill="rgb(255,255,255)" stroke="rgb(255,255,255)" stroke-width="1" opacity="0.7058823529411765" d="M 181.5 55 Q 184 56 183 60.5 L 182 60.5 L 181.5 56 L 179.5 61 L 178 60.5 L 180 60 Q 179 56.2 181.5 55 Z " /><path fill="rgb(255,255,255)" stroke="rgb(255,255,255)" stroke-width="1" opacity="0.7058823529411765" d="M 185.5 55 L 187.5 56 Q 188.8 53.7 190 56.5 L 189.5 59 Q 187.3 58.3 188 60.5 L 184 61.5 L 185 59.5 L 184.5 58 L 187.5 59 L 187.5 58 Q 185.3 58.8 186 56.5 L 184 56.5 L 185.5 55 Z " /><path fill="rgb(255,255,255)" stroke="rgb(255,255,255)" stroke-width="1" opacity="0.7058823529411765" d="M 197.5 55 Q 202.8 53.8 204 56.5 L 201.5 57 L 197 56 L 197 61.5 L 195.5 62 L 193.5 63 Q 191.3 62.3 192 58.5 L 193 58.5 Q 191.5 62.9 194.5 62 L 194.5 60 L 196 60.5 Q 195 56 197.5 55 Z " /><path fill="rgb(255,255,255)" stroke="rgb(255,255,255)" stroke-width="1" opacity="0.7058823529411765" d="M 16.5 57 L 17 60.5 Q 15.5 63.5 14 60.5 L 16 60.5 L 16.5 57 Z " /><path fill="rgb(255,255,255)" stroke="rgb(255,255,255)" stroke-width="1" opacity="0.7058823529411765" d="M 49.5 57 L 53 59 L 52.5 62 Q 50.8 58.9 49 60.5 L 49.5 57 Z " /><path fill="rgb(255,255,255)" stroke="rgb(255,255,255)" stroke-width="1" opacity="0.7058823529411765" d="M 76.5 57 L 78 61.5 L 76 60.5 L 76.5 57 Z " /><path fill="rgb(255,255,255)" stroke="rgb(255,255,255)" stroke-width="1" opacity="0.7058823529411765" d="M 120.5 57 L 121 61.5 L 120 61.5 L 120.5 57 Z " /><path fill="rgb(255,255,255)" stroke="rgb(255,255,255)" stroke-width="1" opacity="0.7058823529411765" d="M 122.5 57 L 123 61.5 L 122 61.5 L 122.5 57 Z " /><path fill="rgb(255,255,255)" stroke="rgb(255,255,255)" stroke-width="1" opacity="0.7058823529411765" d="M 167.5 57 L 168 59.5 L 167 59.5 L 167.5 57 Z " /><path fill="rgb(255,255,255)" stroke="rgb(255,255,255)" stroke-width="1" opacity="0.7058823529411765" d="M 11.5 58 L 13 60.5 L 11 59.5 L 11.5 58 Z " /><path fill="rgb(255,255,255)" stroke="rgb(255,255,255)" stroke-width="1" opacity="0.7058823529411765" d="M 45.5 58 L 46 60.5 L 44 61.5 L 45.5 58 Z " /><path fill="rgb(255,255,255)" stroke="rgb(255,255,255)" stroke-width="1" opacity="0.7058823529411765" d="M 81.5 58 L 82 59.5 L 80 60.5 L 81.5 58 Z " /><path fill="rgb(255,255,255)" stroke="rgb(255,255,255)" stroke-width="1" opacity="0.7058823529411765" d="M 198.5 58 L 199 61.5 L 198 61.5 L 198.5 58 Z " /><path fill="rgb(255,255,255)" stroke="rgb(255,255,255)" stroke-width="1" opacity="0.7058823529411765" d="M 2.5 59 L 3.5 61 L 2.5 59 Z " /><path fill="rgb(255,255,255)" stroke="rgb(255,255,255)" stroke-width="1" opacity="0.7058823529411765" d="M 6.5 59 Q 8.8 58.3 8 60.5 Q 7.5 63.5 3.5 63 L 3.5 62 L 6 61.5 Q 3.7 60.3 6.5 59 Z " /><path fill="rgb(255,255,255)" stroke="rgb(255,255,255)" stroke-width="1" opacity="0.7058823529411765" d="M 0.5 60 L 1.5 62 L 0.5 60 Z " /><path fill="rgb(255,255,255)" stroke="rgb(255,255,255)" stroke-width="1" opacity="0.7058823529411765" d="M 98.5 60 L 98.5 62 L 100 62.5 L 98.5 63 Q 95.5 61.5 98.5 60 Z " /><path fill="rgb(255,255,255)" stroke="rgb(255,255,255)" stroke-width="1" opacity="0.7058823529411765" d="M 100.5 60 L 103 60.5 Q 100.9 63.8 100.5 60 Z " /><path fill="rgb(255,255,255)" stroke="rgb(255,255,255)" stroke-width="1" opacity="0.7058823529411765" d="M 203.5 60 L 204 62.5 L 202 63.5 L 203.5 60 Z " /><path fill="rgb(255,255,255)" stroke="rgb(255,255,255)" stroke-width="1" opacity="0.7058823529411765" d="M 60.5 61 L 63 62.5 L 61.5 63 L 60.5 61 Z " /><path fill="rgb(255,255,255)" stroke="rgb(255,255,255)" stroke-width="1" opacity="0.7058823529411765" d="M 68.5 61 L 71 62.5 L 69.5 63 L 68.5 61 Z " /><path fill="rgb(255,255,255)" stroke="rgb(255,255,255)" stroke-width="1" opacity="0.7058823529411765" d="M 136.5 61 L 140 62.5 L 137.5 63 L 136.5 61 Z " /><path fill="rgb(255,255,255)" stroke="rgb(255,255,255)" stroke-width="1" opacity="0.7058823529411765" d="M 168.5 61 L 171 62.5 L 169.5 63 L 168.5 61 Z " /><path fill="rgb(255,255,255)" stroke="rgb(255,255,255)" stroke-width="1" opacity="0.7058823529411765" d="M 176.5 61 L 179 62.5 L 177.5 63 L 176.5 61 Z " /><path fill="rgb(255,255,255)" stroke="rgb(255,255,255)" stroke-width="1" opacity="0.7058823529411765" d="M 189.5 61 L 188.5 63 L 186 62.5 L 189.5 61 Z " /><path fill="rgb(255,255,255)" stroke="rgb(255,255,255)" stroke-width="1" opacity="0.7058823529411765" d="M 205.5 62 L 206 63.5 L 204 64.5 L 205.5 62 Z " /><path fill="rgb(255,255,255)" stroke="rgb(255,255,255)" stroke-width="1" opacity="0.19215686274509805" d="M 70.5 0 L 72 0.5 L 69 3.5 L 69 40.5 L 73.5 44 L 134.5 44 L 138 41.5 L 139 39.5 L 139 4.5 L 136.5 1 L 135 0.5 L 138 0 L 140 3.5 L 140 40.5 L 134.5 45 L 73.5 45 L 68 40.5 L 68 2.5 L 70.5 0 Z " /><path fill="rgb(255,255,255)" stroke="rgb(255,255,255)" stroke-width="1" opacity="0.19215686274509805" d="M 73.5 2 L 134.5 2 L 137 4.5 L 137 39.5 L 135.5 41 L 133.5 42 L 74.5 42 L 71 39.5 L 71 4.5 L 73.5 2 Z M 74 3 L 72 5 L 72 40 L 136 40 L 136 5 L 135 3 L 74 3 Z " /><path fill="rgb(255,255,255)" stroke="rgb(255,255,255)" stroke-width="1" opacity="0.19215686274509805" d="M 88.5 8 L 101.5 8 L 102 10 L 85.5 10 L 79 13 L 76.5 23 L 76 19.5 L 78 13.5 L 80.5 11 L 88.5 8 Z " /><path fill="rgb(255,255,255)" stroke="rgb(255,255,255)" stroke-width="1" opacity="0.19215686274509805" d="M 104.5 8 L 133 9 Q 134.5 12.8 131.5 12 L 130 13.5 L 130 17.5 L 126.5 26 L 126 24.5 L 129 13.5 L 132 10.5 L 119.5 10 L 120 11.5 L 119.5 13 L 117.5 12 L 114.5 18 L 114 15.5 L 116.5 11 L 118 10.5 L 104.5 10 L 105 11.5 L 100 32 Q 97 31 98 34 L 110.5 34 L 111 32.5 L 110 29.5 L 111.5 26 L 112 28.5 L 111 31 Q 115.5 32.8 114 27.5 L 117.5 18 L 118 19.5 L 113.5 32 Q 110.9 31.3 112 34 L 126 33.5 L 124.5 31 Q 126.8 30.3 126 32.5 Q 128.3 33.8 125.5 35 L 97.5 35 L 97 33.5 L 96 33.5 L 95.5 35 L 81.5 35 L 75 27.5 L 75 24.5 L 76 24.5 L 76 27.5 L 81.5 34 L 94.5 34 L 95 32.5 L 97 25.5 L 95.5 26 L 83 31 L 87 13.5 L 88.5 12 L 98.5 19 L 100 18.5 Q 100.8 20.8 98.5 20 L 88.5 13 L 85 29 L 98 24 L 97 31 Q 99.7 32.1 99 29.5 L 104 12.5 L 103 9.5 L 104.5 8 Z " /><path fill="rgb(255,255,255)" stroke="rgb(255,255,255)" stroke-width="1" opacity="0.19215686274509805" d="M 118.5 14 L 119 16.5 L 118 16.5 L 118.5 14 Z " /><path fill="rgb(255,255,255)" stroke="rgb(255,255,255)" stroke-width="1" opacity="0.19215686274509805" d="M 112.5 22 L 113 24.5 L 112 24.5 L 112.5 22 Z " /><path fill="rgb(255,255,255)" stroke="rgb(255,255,255)" stroke-width="1" opacity="0.19215686274509805" d="M 125.5 27 L 126 29.5 L 125 29.5 L 125.5 27 Z " /><path fill="rgb(255,255,255)" stroke="rgb(255,255,255)" stroke-width="1" opacity="0.19215686274509805" d="M 3.5 51 L 9 53.5 L 9.5 56 Q 10.5 53 15.5 54 L 17.5 55 L 18.5 54 L 26 54 Q 24.8 51 28.5 52 L 32 51 L 32 53 L 27 53 L 27 54.5 L 26 56.5 L 27 62 Q 30.7 63.4 29 57.5 L 30.5 54 L 32.5 54 Q 37.1 53.4 38.5 56 L 39 54 L 43 54.5 L 39 56.5 L 38 59.5 L 39 62 L 41 62.5 L 39.5 63 L 37.5 62 L 36 62.5 Q 38.3 61.3 37 56.5 Q 36.3 54.3 32.5 55 Q 30 56 31 60.5 L 32.5 63 L 30.5 62 L 29.5 63 L 22 63 L 21 57.5 L 23 58.5 Q 21.7 63.3 25 62 Q 26.5 56.6 23.5 55 Q 19 54 18 56.5 L 17 61.5 L 21 62.5 L 17.5 63 L 15.5 63 L 14 62.5 L 17 60.5 Q 17.8 55.8 14.5 55 Q 10.8 54.3 10 56.5 Q 9 61.5 12 62.5 L 10.5 63 L 8.5 61 L 6 62.5 L 8 59 L 4.5 61 Q 1.5 60.5 2 56.5 L 5.5 55 L 8 56 L 6.5 53 Q 1.8 51.8 0.5 54 L 1.5 52 L 3.5 51 Z M 3 56 L 5 60 L 5 58 L 9 58 L 3 56 Z " /><path fill="rgb(255,255,255)" stroke="rgb(255,255,255)" stroke-width="1" opacity="0.19215686274509805" d="M 43.5 51 L 47 52.5 L 47.5 55 L 51.5 54 L 54 55.5 L 54.5 54 L 65.5 54 L 67 54.5 L 68.5 52 L 71 52 L 71 54 Q 73.7 52.9 73 55.5 L 71 59.5 L 72 62 L 76 61.5 L 74 54.5 L 74.5 53 Q 70.8 54 72 51 L 76 52.5 L 76.5 55 L 81.5 54 L 84 55.5 Q 83.5 52.5 90.5 54 Q 94.8 55.9 93 63 L 84.5 63 L 83.5 62 L 81.5 63 L 83 60.5 Q 84 56 81.5 55 Q 76.8 54.3 76 57.5 Q 75.3 61.3 77.5 62 L 79 62.5 L 77.5 63 L 75.5 63 Q 69.7 65.1 71 60.5 L 70 57.5 L 71 55.5 L 69.5 53 L 67 56.5 L 69 62.5 L 66.5 63 L 63 62.5 L 66 62 Q 67.5 56.6 64.5 55 Q 60.8 54.3 60 56.5 L 61 58.5 L 60 61.5 L 60.5 63 L 59 59.5 L 59.5 58 L 58 58 L 58 63 L 54.5 63 L 52.5 63 L 51 62.5 L 53 62 Q 54.5 56.6 51.5 55 Q 47.8 54.3 47 56.5 Q 46 61.5 49 62.5 L 47.5 63 L 45.5 63 L 42 62.5 L 46 60.5 L 45 56.5 L 46 53 L 42 52.5 L 43.5 51 Z M 55 55 L 55 62 L 57 62 Q 56 58 59 57 L 59 55 L 55 55 Z M 85 55 L 85 62 L 87 62 L 87 57 L 89 57 L 89 62 L 91 62 Q 93 61 91 60 L 91 55 L 85 55 Z " /><path fill="rgb(255,255,255)" stroke="rgb(255,255,255)" stroke-width="1" opacity="0.19215686274509805" d="M 106.5 51 Q 110.9 49.5 110 52.5 L 108 63 Q 102.8 65.1 104 60.5 L 100.5 55 Q 96.8 54.3 96 56.5 Q 95 61.5 98 62.5 L 95 60.5 Q 94 55 97.5 54 L 102.5 55 L 104 52 L 106.5 51 Z M 105 53 L 104 56 L 105 58 Q 103 63 107 62 L 108 57 Q 110 51 105 53 Z " /><path fill="rgb(255,255,255)" stroke="rgb(255,255,255)" stroke-width="1" opacity="0.19215686274509805" d="M 111 51 L 115 51 L 115.5 54 L 121.5 54 Q 123.5 58 125.5 54 L 128 54 Q 126.3 49.9 130.5 51 L 132.5 51 Q 136.3 50 135 53 L 133 53.5 L 133 62 Q 136 63.3 135 59.5 L 135 57.5 L 134 54.5 L 135 54.5 L 135.5 56 Q 136.5 53 141.5 54 L 143.5 54 Q 150.5 52.5 152 56.5 L 152 63 L 148 63 L 148.5 61 L 151 62 Q 152.5 56.6 149.5 55 Q 145 54 144 56.5 Q 142 63.4 146 62 Q 145 58.2 147.5 57 L 149 59.5 L 148 59.5 L 147.5 58 L 147 63 L 140 62.5 L 143 61.5 L 142 55 Q 137.4 53.8 136 56.5 L 137 58.5 L 136 61.5 L 136.5 63 L 134.5 63 L 128 62.5 L 131 62 L 131 53.5 L 129 53 Q 130.3 56.3 125.5 55 Q 123 56 124 60.5 L 125.5 63 Q 123.3 63.8 124 61.5 L 122 55 L 116 55 L 116 62 L 118 62 L 118 57 L 119.5 57 L 119 58.5 L 119 63 L 111 63 L 111 51 Z M 112 53 L 112 62 L 114 62 L 114 54 L 112 53 Z " /><path fill="rgb(255,255,255)" stroke="rgb(255,255,255)" stroke-width="1" opacity="0.19215686274509805" d="M 155 51 Q 159.1 49.7 158 53 Q 153.9 54.3 155 51 Z " /><path fill="rgb(255,255,255)" stroke="rgb(255,255,255)" stroke-width="1" opacity="0.19215686274509805" d="M 171 51 L 175 51 Q 173.3 55.5 178.5 54 L 180.5 54 Q 183.8 52.9 183 55.5 L 185.5 54 L 190.5 55 L 192.5 52 L 195 52 L 195.5 54 L 204 54 L 204 55.5 L 205 55.5 L 205 54 L 209 54 Q 209.9 60 206.5 63 L 206 61.5 L 208 55 L 206 55 Q 207.3 59.1 204 58 L 202.5 55 Q 197.3 53.8 196 56.5 L 195.5 61 L 194 57.5 L 195 55.5 L 193.5 53 L 191 56.5 L 193 62.5 L 191.5 62 L 189.5 63 L 190 61.5 L 189 57.5 Q 191.3 56.3 188.5 55 Q 184.8 54.3 184 56.5 L 185 59.5 L 184 62 L 186 62.5 L 184.5 63 L 182.5 63 L 179 62.5 L 183 60.5 Q 184 56 181.5 55 L 178.5 60 L 178 55 Q 174.5 53.9 176 61.5 L 176.5 63 L 174.5 63 L 171 62.5 L 174 62 L 174 53.5 L 172 53 Q 173.3 56 169.5 55 Q 166.5 55.5 167 59.5 L 169 62.5 L 166.5 63 L 155 62.5 L 158 62 L 158 55.5 L 159.5 54 Q 165.3 52.7 166.5 56 Q 167.6 53.3 171 54 L 171 51 Z M 161 55 L 159 57 Q 158 63 161 62 Q 163 61 161 60 L 163 59 L 163 57 Q 165 58 164 62 Q 168 63 166 57 Q 165 54 161 55 Z " /><path fill="rgb(255,255,255)" stroke="rgb(255,255,255)" stroke-width="1" opacity="0.19215686274509805" d="M 12 57 L 15 58.5 L 13.5 61 L 12 57 Z " /><path fill="rgb(255,255,255)" stroke="rgb(255,255,255)" stroke-width="1" opacity="0.19215686274509805" d="M 41 57 L 43 57.5 L 42.5 60 Q 39.5 60.7 41 57 Z " /><path fill="rgb(255,255,255)" stroke="rgb(255,255,255)" stroke-width="1" opacity="0.19215686274509805" d="M 79.5 57 Q 82.1 56.2 81 59.5 L 79 60.5 L 80 58.5 L 78 58.5 L 79.5 57 Z " /><path fill="rgb(255,255,255)" stroke="rgb(255,255,255)" stroke-width="1" opacity="0.19215686274509805" d="M 98 57 L 101 58.5 L 99.5 61 L 98 57 Z " /><path fill="rgb(255,255,255)" stroke="rgb(255,255,255)" stroke-width="1" opacity="0.19215686274509805" d="M 126 57 L 129 58.5 L 127.5 61 L 126 57 Z " /><path fill="rgb(255,255,255)" stroke="rgb(255,255,255)" stroke-width="1" opacity="0.19215686274509805" d="M 170.5 57 Q 173.1 56.2 172 59.5 L 170 60.5 L 171 58.5 L 169 58.5 L 170.5 57 Z " /><path fill="rgb(255,255,255)" stroke="rgb(255,255,255)" stroke-width="1" opacity="0.19215686274509805" d="M 199 57 Q 202.8 55.5 202 58.5 L 203 60.5 L 202 60.5 L 200.5 58 L 200 63 L 195 62.5 L 199 62 L 199 57 Z " /><path fill="rgb(255,255,255)" stroke="rgb(255,255,255)" stroke-width="1" opacity="0.19215686274509805" d="M 0.5 61 L 3 62.5 L 1.5 63 L 0.5 61 Z " /><path fill="rgb(255,255,255)" stroke="rgb(255,255,255)" stroke-width="1" opacity="0.19215686274509805" d="M 102.5 61 L 101.5 63 L 100 62.5 L 102.5 61 Z " /><path fill="rgb(255,255,255)" stroke="rgb(255,255,255)" stroke-width="1" opacity="0.19215686274509805" d="M 120.5 62 L 123 62.5 L 120.5 63 L 120.5 62 Z " /><path fill="rgb(255,255,255)" stroke="rgb(255,255,255)" stroke-width="1" opacity="0.19215686274509805" d="M 201 62 L 203 62.5 L 201.5 65 L 201 62 Z " /></svg>
