<svg width="300" height="300" version="1.1" xmlns="http://www.w3.org/2000/svg" desc="Created with imagetracer.js version 1.2.6" ><path fill="rgb(239,123,33)" stroke="rgb(239,123,33)" stroke-width="1" opacity="0.6666666666666666" d="M 142.5 1 L 142.5 3 L 146 3.5 L 141 4 L 142.5 1 Z " /><path fill="rgb(239,123,33)" stroke="rgb(239,123,33)" stroke-width="1" opacity="0.6666666666666666" d="M 150.5 2 L 156 3.5 L 151.5 4 L 149.5 4 L 147 3.5 L 150.5 2 Z " /><path fill="rgb(239,123,33)" stroke="rgb(239,123,33)" stroke-width="1" opacity="0.6666666666666666" d="M 157 2 L 163.5 4 L 165.5 4 L 167 4.5 Q 165.8 7.3 164.5 5 L 158.5 3 L 157 3.5 L 157 2 Z " /><path fill="rgb(239,123,33)" stroke="rgb(239,123,33)" stroke-width="1" opacity="0.6666666666666666" d="M 129.5 4 L 131.5 4 L 133 4.5 L 130.5 6 L 128.5 6 L 124.5 7 L 122.5 7 L 118 6.5 L 123.5 5 L 125.5 6 L 129.5 4 Z " /><path fill="rgb(239,123,33)" stroke="rgb(239,123,33)" stroke-width="1" opacity="0.6666666666666666" d="M 134.5 4 L 137 4.5 L 134.5 5 L 134.5 4 Z " /><path fill="rgb(239,123,33)" stroke="rgb(239,123,33)" stroke-width="1" opacity="0.6666666666666666" d="M 169.5 4 L 171.5 7 Q 169.3 7.8 170 5.5 L 168 5.5 L 169.5 4 Z " /><path fill="rgb(239,123,33)" stroke="rgb(239,123,33)" stroke-width="1" opacity="0.6666666666666666" d="M 191.5 4 L 194 5.5 L 192.5 5 L 191.5 4 Z " /><path fill="rgb(239,123,33)" stroke="rgb(239,123,33)" stroke-width="1" opacity="0.6666666666666666" d="M 103.5 7 L 109 10.5 L 104 11 L 103.5 9 Q 103.7 13.7 100.5 15 L 90.5 18 L 90.5 17 L 101 12.5 Q 100.3 7.8 103.5 7 Z " /><path fill="rgb(239,123,33)" stroke="rgb(239,123,33)" stroke-width="1" opacity="0.6666666666666666" d="M 114.5 7 L 113.5 9 L 110 8.5 L 114.5 7 Z " /><path fill="rgb(239,123,33)" stroke="rgb(239,123,33)" stroke-width="1" opacity="0.6666666666666666" d="M 173.5 7 L 177 7.5 L 173.5 8 L 173.5 7 Z " /><path fill="rgb(239,123,33)" stroke="rgb(239,123,33)" stroke-width="1" opacity="0.6666666666666666" d="M 179.5 7 Q 181.3 10.1 183 8.5 L 180.5 10 L 178 8.5 L 179.5 7 Z " /><path fill="rgb(239,123,33)" stroke="rgb(239,123,33)" stroke-width="1" opacity="0.6666666666666666" d="M 185.5 9 L 194 11.5 L 191.5 12 L 186.5 11 L 185.5 9 Z " /><path fill="rgb(239,123,33)" stroke="rgb(239,123,33)" stroke-width="1" opacity="0.6666666666666666" d="M 201.5 13 L 204 14.5 L 202.5 14 L 201.5 13 Z " /><path fill="rgb(239,123,33)" stroke="rgb(239,123,33)" stroke-width="1" opacity="0.6666666666666666" d="M 211.5 17 L 213.5 20 Q 211.3 20.8 212 18.5 L 211.5 17 Z " /><path fill="rgb(239,123,33)" stroke="rgb(239,123,33)" stroke-width="1" opacity="0.6666666666666666" d="M 83.5 18 L 86.5 19 L 88.5 18 L 87.5 20 L 84.5 19 L 81.5 22 Q 73.9 20.9 71 24.5 L 70.5 28 L 67.5 26 L 66 26.5 L 66 25 L 70 25 L 70 23.5 L 72.5 21 Q 81 22.5 83.5 18 Z " /><path fill="rgb(239,123,33)" stroke="rgb(239,123,33)" stroke-width="1" opacity="0.6666666666666666" d="M 220.5 19 L 221.5 21 L 220.5 19 Z " /><path fill="rgb(239,123,33)" stroke="rgb(239,123,33)" stroke-width="1" opacity="0.6666666666666666" d="M 215.5 20 L 219.5 21 L 226 25.5 L 224.5 25 L 220 24 Q 221.3 21 217.5 22 L 215.5 20 Z " /><path fill="rgb(239,123,33)" stroke="rgb(239,123,33)" stroke-width="1" opacity="0.6666666666666666" d="M 228.5 24 L 230 26.5 L 228.5 26 L 227 25.5 L 228.5 24 Z " /><path fill="rgb(239,123,33)" stroke="rgb(239,123,33)" stroke-width="1" opacity="0.6666666666666666" d="M 233.5 28 L 234 30 L 236 30.5 L 233 31 L 233.5 28 Z " /><path fill="rgb(239,123,33)" stroke="rgb(239,123,33)" stroke-width="1" opacity="0.6666666666666666" d="M 63.5 29 L 61.5 32 L 57.5 35 L 58 33.5 L 57 31.5 L 58.5 32 L 63.5 29 Z " /><path fill="rgb(239,123,33)" stroke="rgb(239,123,33)" stroke-width="1" opacity="0.6666666666666666" d="M 237.5 32 L 246 38.5 L 244.5 39 L 243 36 Q 238.2 35.7 237.5 32 Z " /><path fill="rgb(239,123,33)" stroke="rgb(239,123,33)" stroke-width="1" opacity="0.6666666666666666" d="M 50.5 36 Q 54.3 35.3 55 37.5 L 53.5 38 L 51.5 37 L 49.5 38 L 50.5 36 Z " /><path fill="rgb(239,123,33)" stroke="rgb(239,123,33)" stroke-width="1" opacity="0.6666666666666666" d="M 247 38 Q 250 36.8 249 40.5 L 247 39.5 L 247 38 Z " /><path fill="rgb(239,123,33)" stroke="rgb(239,123,33)" stroke-width="1" opacity="0.6666666666666666" d="M 49.5 39 L 51 39.5 L 46 42 L 42.5 47 L 42 45 L 45 43.5 L 44 41.5 L 49.5 39 Z " /><path fill="rgb(239,123,33)" stroke="rgb(239,123,33)" stroke-width="1" opacity="0.6666666666666666" d="M 250.5 41 L 249.5 43 L 250.5 41 Z " /><path fill="rgb(239,123,33)" stroke="rgb(239,123,33)" stroke-width="1" opacity="0.6666666666666666" d="M 251.5 44 L 255 46.5 L 253.5 46 L 251.5 44 Z " /><path fill="rgb(239,123,33)" stroke="rgb(239,123,33)" stroke-width="1" opacity="0.6666666666666666" d="M 38.5 47 L 42 48.5 L 40.5 48 L 39 48.5 L 40 50.5 L 39 50.5 Q 39.8 48.3 37.5 49 L 38.5 47 Z " /><path fill="rgb(239,123,33)" stroke="rgb(239,123,33)" stroke-width="1" opacity="0.6666666666666666" d="M 258.5 51 Q 260.8 50.3 260 52.5 L 262.5 56 L 258.5 51 Z " /><path fill="rgb(239,123,33)" stroke="rgb(239,123,33)" stroke-width="1" opacity="0.6666666666666666" d="M 33.5 55 L 34 57.5 Q 35.1 60.8 32.5 60 L 29 62.5 Q 30.1 65.8 27.5 65 L 28 63.5 L 30.5 60 L 33 58.5 L 32 56.5 L 33.5 55 Z " /><path fill="rgb(239,123,33)" stroke="rgb(239,123,33)" stroke-width="1" opacity="0.6666666666666666" d="M 268.5 63 L 273 65 Q 274.1 67.7 271.5 67 L 269 66 L 268.5 63 Z " /><path fill="rgb(239,123,33)" stroke="rgb(239,123,33)" stroke-width="1" opacity="0.6666666666666666" d="M 25.5 66 L 27 66.5 L 24 68 L 24 71.5 L 18.5 77 L 19 75.5 L 23 69.5 Q 20.8 68.3 23.5 67 L 25.5 66 Z " /><path fill="rgb(239,123,33)" stroke="rgb(239,123,33)" stroke-width="1" opacity="0.6666666666666666" d="M 271.5 68 L 273.5 69 Q 275.3 66.3 277 70.5 L 276.5 73 L 274.5 70 Q 270.7 70.5 271.5 68 Z " /><path fill="rgb(239,123,33)" stroke="rgb(239,123,33)" stroke-width="1" opacity="0.6666666666666666" d="M 277.5 76 L 281 78 L 286 91 Q 288.7 89.9 288 92.5 L 290 95.5 L 289 99 Q 291.7 97.9 291 100.5 L 291 102.5 L 293 106.5 L 293 112 L 296 113.5 L 294.5 117 Q 291.8 115.8 294 114.5 Q 291 112.5 292 106.5 L 289 101.5 Q 291.5 100 288 98.5 L 287 96.5 Q 289.5 95 286 93.5 L 281 81 L 279 80.5 L 280 79.5 L 277.5 76 Z " /><path fill="rgb(239,123,33)" stroke="rgb(239,123,33)" stroke-width="1" opacity="0.6666666666666666" d="M 18.5 78 L 19 79.5 L 15.5 86 L 15 83.5 L 18.5 78 Z " /><path fill="rgb(239,123,33)" stroke="rgb(239,123,33)" stroke-width="1" opacity="0.6666666666666666" d="M 13.5 81 L 14 82.5 L 12.5 86 L 11 85.5 L 13 84.5 L 13 82.5 L 13.5 81 Z " /><path fill="rgb(239,123,33)" stroke="rgb(239,123,33)" stroke-width="1" opacity="0.6666666666666666" d="M 14.5 87 L 14 88.5 Q 14.8 90.8 12.5 90 L 13 91.5 L 14 95 L 11 95 Q 12.1 97.7 9.5 97 L 10 95.5 L 12 92.5 L 11 90.5 L 14.5 87 Z " /><path fill="rgb(239,123,33)" stroke="rgb(239,123,33)" stroke-width="1" opacity="0.6666666666666666" d="M 10.5 99 L 10 100.5 L 8 110.5 L 5 114.5 L 5 120 L 3 119.5 L 4 116.5 L 5 112.5 L 4.5 111 Q 5.8 113.3 7 110.5 Q 6.5 102.5 10.5 99 Z " /><path fill="rgb(239,123,33)" stroke="rgb(239,123,33)" stroke-width="1" opacity="0.6666666666666666" d="M 297.5 125 L 298 128.5 L 297 128.5 L 297.5 125 Z " /><path fill="rgb(239,123,33)" stroke="rgb(239,123,33)" stroke-width="1" opacity="0.6666666666666666" d="M 1.5 131 L 3 134.5 L 1.5 137 L 1 135.5 L 2 133.5 L 1.5 131 Z " /><path fill="rgb(239,123,33)" stroke="rgb(239,123,33)" stroke-width="1" opacity="0.6666666666666666" d="M 297.5 136 L 298 139.5 L 297 139.5 L 297.5 136 Z " /><path fill="rgb(239,123,33)" stroke="rgb(239,123,33)" stroke-width="1" opacity="0.6666666666666666" d="M 1.5 139 L 2 145.5 L 2 147.5 Q 3 151.3 0 150 L 1.5 139 Z " /><path fill="rgb(239,123,33)" stroke="rgb(239,123,33)" stroke-width="1" opacity="0.6666666666666666" d="M 298.5 150 L 299 158.5 L 297 157.5 L 298.5 150 Z " /><path fill="rgb(239,123,33)" stroke="rgb(239,123,33)" stroke-width="1" opacity="0.6666666666666666" d="M 298.5 160 L 298.5 163 Q 295.5 161.5 298.5 160 Z " /><path fill="rgb(239,123,33)" stroke="rgb(239,123,33)" stroke-width="1" opacity="0.6666666666666666" d="M 2.5 163 L 3 170.5 L 2 170.5 L 2.5 163 Z " /><path fill="rgb(239,123,33)" stroke="rgb(239,123,33)" stroke-width="1" opacity="0.6666666666666666" d="M 297.5 165 L 299 169.5 L 296.5 174 L 296 171.5 L 298 168.5 L 297.5 165 Z " /><path fill="rgb(239,123,33)" stroke="rgb(239,123,33)" stroke-width="1" opacity="0.6666666666666666" d="M 2.5 172 L 5 178 L 3 177.5 L 4 176.5 L 1 173.5 L 2.5 172 Z " /><path fill="rgb(239,123,33)" stroke="rgb(239,123,33)" stroke-width="1" opacity="0.6666666666666666" d="M 295.5 176 L 297 181.5 L 294.5 188 Q 291.1 187.1 293 192.5 L 290.5 199 L 290 196.5 L 292 188.5 L 295 183.5 L 295.5 176 Z " /><path fill="rgb(239,123,33)" stroke="rgb(239,123,33)" stroke-width="1" opacity="0.6666666666666666" d="M 5.5 184 L 9 195.5 L 8 195.5 L 6 192.5 L 7 189.5 L 6 187 L 4 186.5 L 5.5 184 Z " /><path fill="rgb(239,123,33)" stroke="rgb(239,123,33)" stroke-width="1" opacity="0.6666666666666666" d="M 9.5 197 Q 9.4 202.1 13 203.5 L 13 205.5 L 17 212.5 L 16 213.5 L 20 219.5 Q 18.9 222.8 21.5 222 L 22.5 224 L 19 223 L 17 216.5 L 10 204.5 L 11 202 Q 6.9 203.2 9.5 197 Z " /><path fill="rgb(239,123,33)" stroke="rgb(239,123,33)" stroke-width="1" opacity="0.6666666666666666" d="M 289.5 200 L 291 204.5 L 288 207.5 L 289 208.5 Q 290.3 212.3 286.5 211 L 286.5 210 L 288 209.5 L 287 207 L 285 206.5 L 288 206 L 289.5 200 Z " /><path fill="rgb(239,123,33)" stroke="rgb(239,123,33)" stroke-width="1" opacity="0.6666666666666666" d="M 285.5 212 Q 287.8 211.3 287 213.5 L 285.5 212 Z " /><path fill="rgb(239,123,33)" stroke="rgb(239,123,33)" stroke-width="1" opacity="0.6666666666666666" d="M 284.5 214 L 285 217 L 282.5 218 L 284 215.5 L 284.5 214 Z " /><path fill="rgb(239,123,33)" stroke="rgb(239,123,33)" stroke-width="1" opacity="0.6666666666666666" d="M 286.5 215 L 289 215.5 L 286 217.5 L 286.5 215 Z " /><path fill="rgb(239,123,33)" stroke="rgb(239,123,33)" stroke-width="1" opacity="0.6666666666666666" d="M 282.5 219 L 283 221 L 281 220.5 L 282.5 219 Z " /><path fill="rgb(239,123,33)" stroke="rgb(239,123,33)" stroke-width="1" opacity="0.6666666666666666" d="M 280.5 222 L 282 225 Q 279 224 280 227 L 277.5 227 L 277.5 226 Q 279.8 226.8 279 224.5 L 280.5 222 Z " /><path fill="rgb(239,123,33)" stroke="rgb(239,123,33)" stroke-width="1" opacity="0.6666666666666666" d="M 284.5 223 L 286 223.5 L 283.5 225 L 284.5 223 Z " /><path fill="rgb(239,123,33)" stroke="rgb(239,123,33)" stroke-width="1" opacity="0.6666666666666666" d="M 22.5 228 L 25.5 230 L 29 232.5 Q 28.3 234.8 30.5 234 L 30.5 237 L 27.5 235 L 28 233.5 Q 28.8 230.9 25.5 232 L 22.5 228 Z " /><path fill="rgb(239,123,33)" stroke="rgb(239,123,33)" stroke-width="1" opacity="0.6666666666666666" d="M 276 228 L 278 228.5 L 276 229.5 L 276 228 Z " /><path fill="rgb(239,123,33)" stroke="rgb(239,123,33)" stroke-width="1" opacity="0.6666666666666666" d="M 274.5 232 L 277 232.5 L 273 234.5 L 272.5 236 L 272 234.5 L 274.5 232 Z " /><path fill="rgb(239,123,33)" stroke="rgb(239,123,33)" stroke-width="1" opacity="0.6666666666666666" d="M 271.5 237 L 270.5 239 L 271.5 237 Z " /><path fill="rgb(239,123,33)" stroke="rgb(239,123,33)" stroke-width="1" opacity="0.6666666666666666" d="M 33.5 240 L 35.5 243 L 33.5 240 Z " /><path fill="rgb(239,123,33)" stroke="rgb(239,123,33)" stroke-width="1" opacity="0.6666666666666666" d="M 267.5 240 L 269 240.5 L 267 244.5 L 266.5 246 L 266 241.5 L 267.5 240 Z " /><path fill="rgb(239,123,33)" stroke="rgb(239,123,33)" stroke-width="1" opacity="0.6666666666666666" d="M 37.5 244 L 38.5 246 L 37.5 244 Z " /><path fill="rgb(239,123,33)" stroke="rgb(239,123,33)" stroke-width="1" opacity="0.6666666666666666" d="M 262 246 L 265 246.5 L 262.5 248 L 262 246 Z " /><path fill="rgb(239,123,33)" stroke="rgb(239,123,33)" stroke-width="1" opacity="0.6666666666666666" d="M 39.5 247 L 41.5 250 L 39.5 247 Z " /><path fill="rgb(239,123,33)" stroke="rgb(239,123,33)" stroke-width="1" opacity="0.6666666666666666" d="M 261.5 250 L 262 252.5 L 259.5 254 L 258 253.5 Q 258.8 255.8 256.5 255 L 254.5 260 L 252.5 260 L 250.5 261 L 250 259 L 254 257.5 L 257 252 Q 261.8 253.7 261.5 250 Z " /><path fill="rgb(239,123,33)" stroke="rgb(239,123,33)" stroke-width="1" opacity="0.6666666666666666" d="M 44.5 252 L 47 255.5 L 45 256 L 44.5 252 Z " /><path fill="rgb(239,123,33)" stroke="rgb(239,123,33)" stroke-width="1" opacity="0.6666666666666666" d="M 48.5 257 L 52 259.5 L 53 261.5 L 51 262 L 51 259 Q 46.5 260.3 48.5 257 Z " /><path fill="rgb(239,123,33)" stroke="rgb(239,123,33)" stroke-width="1" opacity="0.6666666666666666" d="M 245.5 263 L 249 263.5 L 245.5 264 L 245.5 263 Z " /><path fill="rgb(239,123,33)" stroke="rgb(239,123,33)" stroke-width="1" opacity="0.6666666666666666" d="M 56.5 264 L 63 267.5 L 61.5 268 L 56.5 265 L 56.5 264 Z " /><path fill="rgb(239,123,33)" stroke="rgb(239,123,33)" stroke-width="1" opacity="0.6666666666666666" d="M 241.5 266 L 243 268.5 L 241.5 269 Q 240 266.5 238.5 270 L 237 270.5 Q 239.3 271.8 236.5 273 Q 233 271 237.5 269 L 241.5 266 Z " /><path fill="rgb(239,123,33)" stroke="rgb(239,123,33)" stroke-width="1" opacity="0.6666666666666666" d="M 65.5 269 L 66 271.5 L 65 271.5 L 65.5 269 Z " /><path fill="rgb(239,123,33)" stroke="rgb(239,123,33)" stroke-width="1" opacity="0.6666666666666666" d="M 68.5 271 L 71.5 275 L 73.5 274 L 77 275.5 L 74.5 276 L 72.5 275 L 70 276 L 68.5 271 Z " /><path fill="rgb(239,123,33)" stroke="rgb(239,123,33)" stroke-width="1" opacity="0.6666666666666666" d="M 229.5 273 L 234 274.5 L 222.5 281 L 220 280.5 L 220.5 278 L 222.5 279 L 226.5 278 L 229 275.5 L 229.5 273 Z " /><path fill="rgb(239,123,33)" stroke="rgb(239,123,33)" stroke-width="1" opacity="0.6666666666666666" d="M 78.5 276 L 82 278.5 L 78.5 281 L 78 279 L 80 278.5 L 78.5 276 Z " /><path fill="rgb(239,123,33)" stroke="rgb(239,123,33)" stroke-width="1" opacity="0.6666666666666666" d="M 85.5 280 Q 88.8 278.9 88 281.5 L 88.5 283 L 85.5 281 L 85.5 280 Z " /><path fill="rgb(239,123,33)" stroke="rgb(239,123,33)" stroke-width="1" opacity="0.6666666666666666" d="M 218.5 280 L 216.5 283 L 212 282.5 L 218.5 280 Z " /><path fill="rgb(239,123,33)" stroke="rgb(239,123,33)" stroke-width="1" opacity="0.6666666666666666" d="M 204.5 284 L 209 284.5 L 205.5 285 L 198 289.5 Q 199.5 294.8 195 293 Q 196.1 290.3 193.5 291 L 191 289.5 L 193.5 289 L 196 289.5 L 196.5 291 L 197 287 Q 202.3 287.5 204.5 284 Z " /><path fill="rgb(239,123,33)" stroke="rgb(239,123,33)" stroke-width="1" opacity="0.6666666666666666" d="M 211.5 284 L 210.5 286 L 211.5 284 Z " /><path fill="rgb(239,123,33)" stroke="rgb(239,123,33)" stroke-width="1" opacity="0.6666666666666666" d="M 95.5 285 L 99 287.5 L 96.5 286 L 95.5 285 Z " /><path fill="rgb(239,123,33)" stroke="rgb(239,123,33)" stroke-width="1" opacity="0.6666666666666666" d="M 101.5 287 L 102.5 289 L 101.5 287 Z " /><path fill="rgb(239,123,33)" stroke="rgb(239,123,33)" stroke-width="1" opacity="0.6666666666666666" d="M 108.5 289 L 109.5 291 L 108.5 289 Z " /><path fill="rgb(239,123,33)" stroke="rgb(239,123,33)" stroke-width="1" opacity="0.6666666666666666" d="M 114.5 291 L 116.5 292 L 119.5 291 L 120.5 293 L 118.5 292 L 116.5 293 L 114.5 291 Z " /><path fill="rgb(239,123,33)" stroke="rgb(239,123,33)" stroke-width="1" opacity="0.6666666666666666" d="M 186 291 L 190 291.5 L 186.5 293 L 186 291 Z " /><path fill="rgb(239,123,33)" stroke="rgb(239,123,33)" stroke-width="1" opacity="0.6666666666666666" d="M 122.5 292 L 125 293.5 L 123.5 293 L 122.5 292 Z " /><path fill="rgb(239,123,33)" stroke="rgb(239,123,33)" stroke-width="1" opacity="0.6666666666666666" d="M 127.5 293 L 130.5 295 L 132 294.5 L 129 296 Q 130.1 293.3 127.5 294 L 127.5 293 Z " /><path fill="rgb(239,123,33)" stroke="rgb(239,123,33)" stroke-width="1" opacity="0.6666666666666666" d="M 180.5 293 L 181.5 295 L 176.5 296 Q 175 293.5 169.5 295 L 167.5 296 L 167.5 295 Q 171.3 292.3 179.5 294 L 180.5 293 Z " /><path fill="rgb(239,123,33)" stroke="rgb(239,123,33)" stroke-width="1" opacity="0.6666666666666666" d="M 133 295 L 140 296.5 L 135.5 297 L 133 296.5 L 133 295 Z " /><path fill="rgb(239,123,33)" stroke="rgb(239,123,33)" stroke-width="1" opacity="0.6666666666666666" d="M 143.5 296 L 145 296.5 L 142.5 298 L 143.5 296 Z " /><path fill="rgb(239,123,33)" stroke="rgb(239,123,33)" stroke-width="1" opacity="0.6666666666666666" d="M 147.5 296 L 150 297.5 L 148.5 297 L 147.5 296 Z " /><path fill="rgb(239,123,33)" stroke="rgb(239,123,33)" stroke-width="1" opacity="0.6666666666666666" d="M 156.5 296 L 161 296.5 L 158.5 298 L 156.5 296 Z " /><path fill="rgb(239,118,23)" stroke="rgb(239,118,23)" stroke-width="1" opacity="0.996078431372549" d="M 150.5 3 L 153 4.5 L 150 5 L 150.5 3 Z " /><path fill="rgb(239,118,23)" stroke="rgb(239,118,23)" stroke-width="1" opacity="0.996078431372549" d="M 139.5 4 L 144 4.5 L 139.5 5 L 139.5 4 Z " /><path fill="rgb(239,118,23)" stroke="rgb(239,118,23)" stroke-width="1" opacity="0.996078431372549" d="M 145.5 4 L 148 4.5 L 145.5 5 L 145.5 4 Z " /><path fill="rgb(239,118,23)" stroke="rgb(239,118,23)" stroke-width="1" opacity="0.996078431372549" d="M 160.5 4 L 163 4.5 L 160.5 5 L 160.5 4 Z " /><path fill="rgb(239,118,23)" stroke="rgb(239,118,23)" stroke-width="1" opacity="0.996078431372549" d="M 131.5 5 L 132 7 L 127 6.5 L 131.5 5 Z " /><path fill="rgb(239,118,23)" stroke="rgb(239,118,23)" stroke-width="1" opacity="0.996078431372549" d="M 133.5 5 L 136 5.5 L 133.5 6 L 133.5 5 Z " /><path fill="rgb(239,118,23)" stroke="rgb(239,118,23)" stroke-width="1" opacity="0.996078431372549" d="M 167.5 5 L 170 5.5 Q 170.7 8.5 167 7 L 167.5 5 Z " /><path fill="rgb(239,118,23)" stroke="rgb(239,118,23)" stroke-width="1" opacity="0.996078431372549" d="M 116.5 6 L 122.5 7 L 124 6.5 Q 123 9 118.5 8 L 116.5 7 Q 114.7 10.7 109.5 11 L 110.5 9 Q 115.7 9.7 116.5 6 Z " /><path fill="rgb(239,118,23)" stroke="rgb(239,118,23)" stroke-width="1" opacity="0.996078431372549" d="M 175.5 8 L 178 8.5 L 175.5 9 L 175.5 8 Z " /><path fill="rgb(239,118,23)" stroke="rgb(239,118,23)" stroke-width="1" opacity="0.996078431372549" d="M 183.5 8 L 184.5 10 L 182 9.5 L 183.5 8 Z " /><path fill="rgb(239,118,23)" stroke="rgb(239,118,23)" stroke-width="1" opacity="0.996078431372549" d="M 103.5 9 L 104 11 L 108 11.5 L 103 12 L 103.5 9 Z " /><path fill="rgb(239,118,23)" stroke="rgb(239,118,23)" stroke-width="1" opacity="0.996078431372549" d="M 102.5 13 L 101.5 15 L 102.5 13 Z " /><path fill="rgb(239,118,23)" stroke="rgb(239,118,23)" stroke-width="1" opacity="0.996078431372549" d="M 200.5 13 L 207 16.5 L 205.5 16 Q 200.5 15.8 200.5 13 Z " /><path fill="rgb(239,118,23)" stroke="rgb(239,118,23)" stroke-width="1" opacity="0.996078431372549" d="M 88.5 15 Q 90.8 14.3 90 16.5 L 88.5 15 Z " /><path fill="rgb(239,118,23)" stroke="rgb(239,118,23)" stroke-width="1" opacity="0.996078431372549" d="M 97.5 15 L 100 15.5 L 97.5 16 L 97.5 15 Z " /><path fill="rgb(239,118,23)" stroke="rgb(239,118,23)" stroke-width="1" opacity="0.996078431372549" d="M 94.5 16 L 96 16.5 L 88.5 20 L 89.5 18 Q 93.8 18.8 94.5 16 Z " /><path fill="rgb(239,118,23)" stroke="rgb(239,118,23)" stroke-width="1" opacity="0.996078431372549" d="M 210.5 18 Q 213.1 17.3 212 20 L 214.5 20 L 220 22.5 L 217.5 23 L 212.5 21 L 210.5 18 Z " /><path fill="rgb(239,118,23)" stroke="rgb(239,118,23)" stroke-width="1" opacity="0.996078431372549" d="M 84.5 19 L 87 20.5 L 85.5 21 L 84 20.5 Q 84.8 22.8 82.5 22 L 84.5 19 Z " /><path fill="rgb(239,118,23)" stroke="rgb(239,118,23)" stroke-width="1" opacity="0.996078431372549" d="M 75.5 22 L 80 22.5 L 75.5 23 L 75.5 22 Z " /><path fill="rgb(239,118,23)" stroke="rgb(239,118,23)" stroke-width="1" opacity="0.996078431372549" d="M 72.5 23 L 71.5 25 L 72.5 23 Z " /><path fill="rgb(239,118,23)" stroke="rgb(239,118,23)" stroke-width="1" opacity="0.996078431372549" d="M 220.5 24 L 230 27.5 L 231 29.5 L 227.5 27 L 220.5 25 L 220.5 24 Z " /><path fill="rgb(239,118,23)" stroke="rgb(239,118,23)" stroke-width="1" opacity="0.996078431372549" d="M 67.5 26 L 70 27.5 L 68.5 27 L 67.5 26 Z " /><path fill="rgb(239,118,23)" stroke="rgb(239,118,23)" stroke-width="1" opacity="0.996078431372549" d="M 65.5 27 L 65 28.5 L 62.5 32 L 64 29.5 L 65.5 27 Z " /><path fill="rgb(239,118,23)" stroke="rgb(239,118,23)" stroke-width="1" opacity="0.996078431372549" d="M 232.5 29 L 233 31 L 235 31.5 L 233.5 32 L 232.5 29 Z " /><path fill="rgb(239,118,23)" stroke="rgb(239,118,23)" stroke-width="1" opacity="0.996078431372549" d="M 60.5 32 L 58.5 35 L 60.5 32 Z " /><path fill="rgb(239,118,23)" stroke="rgb(239,118,23)" stroke-width="1" opacity="0.996078431372549" d="M 236.5 32 L 238.5 35 L 236.5 32 Z " /><path fill="rgb(239,118,23)" stroke="rgb(239,118,23)" stroke-width="1" opacity="0.996078431372549" d="M 51 37 L 53 37.5 L 48.5 43 L 47 43 L 47 45 L 45 45 L 45 47 Q 42.3 45.9 43 48.5 L 42 48.5 L 46 42 L 51 39.5 L 51 37 Z " /><path fill="rgb(239,118,23)" stroke="rgb(239,118,23)" stroke-width="1" opacity="0.996078431372549" d="M 245.5 39 L 249 41.5 L 249.5 43 L 251 42.5 Q 249 46 247 41.5 Q 247.8 39.3 245.5 40 L 245.5 39 Z " /><path fill="rgb(239,118,23)" stroke="rgb(239,118,23)" stroke-width="1" opacity="0.996078431372549" d="M 39.5 48 Q 42.1 47.2 41 50.5 L 40 50.5 L 39.5 48 Z " /><path fill="rgb(239,118,23)" stroke="rgb(239,118,23)" stroke-width="1" opacity="0.996078431372549" d="M 257.5 49 L 258 51.5 L 257 51.5 L 257.5 49 Z " /><path fill="rgb(239,118,23)" stroke="rgb(239,118,23)" stroke-width="1" opacity="0.996078431372549" d="M 38.5 50 L 38 51.5 L 37.5 55 L 37 51.5 L 38.5 50 Z " /><path fill="rgb(239,118,23)" stroke="rgb(239,118,23)" stroke-width="1" opacity="0.996078431372549" d="M 259.5 53 L 263.5 58 L 259.5 53 Z " /><path fill="rgb(239,118,23)" stroke="rgb(239,118,23)" stroke-width="1" opacity="0.996078431372549" d="M 35.5 54 L 34 56.5 L 35 57.5 L 33.5 61 L 32 60.5 L 34 60 L 33 56.5 L 35.5 54 Z " /><path fill="rgb(239,118,23)" stroke="rgb(239,118,23)" stroke-width="1" opacity="0.996078431372549" d="M 264.5 59 Q 267.1 58.2 266 61.5 L 269 66 Q 271.7 64.9 271 67.5 L 269.5 67 Q 266.9 67.8 268 64.5 L 264.5 59 Z " /><path fill="rgb(239,118,23)" stroke="rgb(239,118,23)" stroke-width="1" opacity="0.996078431372549" d="M 30.5 61 L 31 62.5 L 29 63.5 L 30.5 61 Z " /><path fill="rgb(239,118,23)" stroke="rgb(239,118,23)" stroke-width="1" opacity="0.996078431372549" d="M 24 68 L 26 68.5 L 24.5 71 L 24 68 Z " /><path fill="rgb(239,118,23)" stroke="rgb(239,118,23)" stroke-width="1" opacity="0.996078431372549" d="M 274.5 70 L 277 76.5 L 280 79.5 L 276 76.5 L 274.5 70 Z " /><path fill="rgb(239,118,23)" stroke="rgb(239,118,23)" stroke-width="1" opacity="0.996078431372549" d="M 23.5 72 L 23 73.5 L 21 76.5 L 16.5 85 L 17 83.5 L 19 76.5 L 23.5 72 Z " /><path fill="rgb(239,118,23)" stroke="rgb(239,118,23)" stroke-width="1" opacity="0.996078431372549" d="M 13.5 83 L 12.5 85 L 13.5 83 Z " /><path fill="rgb(239,118,23)" stroke="rgb(239,118,23)" stroke-width="1" opacity="0.996078431372549" d="M 15.5 86 L 16 87.5 L 15 91 L 12 90.5 L 14 90 L 15.5 86 Z " /><path fill="rgb(239,118,23)" stroke="rgb(239,118,23)" stroke-width="1" opacity="0.996078431372549" d="M 284.5 90 L 288 95.5 L 285 93.5 L 284.5 90 Z " /><path fill="rgb(239,118,23)" stroke="rgb(239,118,23)" stroke-width="1" opacity="0.996078431372549" d="M 13.5 92 L 15 94.5 L 14 94.5 L 13.5 92 Z " /><path fill="rgb(239,118,23)" stroke="rgb(239,118,23)" stroke-width="1" opacity="0.996078431372549" d="M 11.5 95 L 12 96.5 L 11 98.5 L 11 100.5 L 10.5 102 L 10 100.5 L 10 98.5 L 11.5 95 Z " /><path fill="rgb(239,118,23)" stroke="rgb(239,118,23)" stroke-width="1" opacity="0.996078431372549" d="M 288.5 99 L 290 100.5 L 289.5 103 L 288 101.5 L 288.5 99 Z " /><path fill="rgb(239,118,23)" stroke="rgb(239,118,23)" stroke-width="1" opacity="0.996078431372549" d="M 9.5 104 L 10 106.5 L 8 114 Q 5 112.8 6 116.5 L 5 116.5 L 9.5 104 Z " /><path fill="rgb(239,118,23)" stroke="rgb(239,118,23)" stroke-width="1" opacity="0.996078431372549" d="M 290.5 105 L 294 114.5 L 292 113.5 L 290.5 105 Z " /><path fill="rgb(239,118,23)" stroke="rgb(239,118,23)" stroke-width="1" opacity="0.996078431372549" d="M 294.5 117 L 294 118.5 L 297 126.5 L 294 124.5 L 293 118.5 L 294.5 117 Z " /><path fill="rgb(239,118,23)" stroke="rgb(239,118,23)" stroke-width="1" opacity="0.996078431372549" d="M 4.5 120 L 5 126.5 L 3.5 130 L 3 127.5 L 4.5 120 Z " /><path fill="rgb(239,118,23)" stroke="rgb(239,118,23)" stroke-width="1" opacity="0.996078431372549" d="M 2.5 135 L 3 145.5 L 3 147.5 L 2.5 150 L 1 146.5 L 2 145.5 L 2.5 135 Z " /><path fill="rgb(239,118,23)" stroke="rgb(239,118,23)" stroke-width="1" opacity="0.996078431372549" d="M 297.5 148 L 300 149.5 L 298 150 L 297.5 157 L 297.5 148 Z " /><path fill="rgb(239,118,23)" stroke="rgb(239,118,23)" stroke-width="1" opacity="0.996078431372549" d="M 2.5 154 L 3 156.5 L 2 156.5 L 2.5 154 Z " /><path fill="rgb(239,118,23)" stroke="rgb(239,118,23)" stroke-width="1" opacity="0.996078431372549" d="M 2.5 158 L 3 160.5 L 2 160.5 L 2.5 158 Z " /><path fill="rgb(239,118,23)" stroke="rgb(239,118,23)" stroke-width="1" opacity="0.996078431372549" d="M 297.5 158 L 298 160.5 L 297 160.5 L 297.5 158 Z " /><path fill="rgb(239,118,23)" stroke="rgb(239,118,23)" stroke-width="1" opacity="0.996078431372549" d="M 297.5 162 L 298 164.5 L 297 164.5 L 297.5 162 Z " /><path fill="rgb(239,118,23)" stroke="rgb(239,118,23)" stroke-width="1" opacity="0.996078431372549" d="M 3.5 165 L 4 170.5 L 2 171.5 L 3.5 165 Z " /><path fill="rgb(239,118,23)" stroke="rgb(239,118,23)" stroke-width="1" opacity="0.996078431372549" d="M 296.5 167 Q 299.3 168.3 297 169.5 L 296.5 171 L 296 169.5 L 296.5 167 Z " /><path fill="rgb(239,118,23)" stroke="rgb(239,118,23)" stroke-width="1" opacity="0.996078431372549" d="M 295.5 173 L 296 175.5 L 295 175.5 L 295.5 173 Z " /><path fill="rgb(239,118,23)" stroke="rgb(239,118,23)" stroke-width="1" opacity="0.996078431372549" d="M 5.5 178 L 6 180.5 L 5 180.5 L 5.5 178 Z " /><path fill="rgb(239,118,23)" stroke="rgb(239,118,23)" stroke-width="1" opacity="0.996078431372549" d="M 294.5 181 L 295 183.5 L 294 183.5 L 294.5 181 Z " /><path fill="rgb(239,118,23)" stroke="rgb(239,118,23)" stroke-width="1" opacity="0.996078431372549" d="M 5.5 182 L 9 188.5 L 10 196.5 L 9 196.5 L 8 189.5 L 5.5 182 Z " /><path fill="rgb(239,118,23)" stroke="rgb(239,118,23)" stroke-width="1" opacity="0.996078431372549" d="M 293.5 186 L 292 188.5 L 291.5 192 L 291 188.5 L 293.5 186 Z " /><path fill="rgb(239,118,23)" stroke="rgb(239,118,23)" stroke-width="1" opacity="0.996078431372549" d="M 10.5 198 L 13 202.5 L 10 200.5 L 10.5 198 Z " /><path fill="rgb(239,118,23)" stroke="rgb(239,118,23)" stroke-width="1" opacity="0.996078431372549" d="M 289.5 198 L 290 199.5 L 288.5 204 L 288 200.5 L 289.5 198 Z " /><path fill="rgb(239,118,23)" stroke="rgb(239,118,23)" stroke-width="1" opacity="0.996078431372549" d="M 285.5 205 L 288 205.5 L 285.5 206 L 285.5 205 Z " /><path fill="rgb(239,118,23)" stroke="rgb(239,118,23)" stroke-width="1" opacity="0.996078431372549" d="M 13.5 206 L 15 208.5 L 14 208.5 L 13.5 206 Z " /><path fill="rgb(239,118,23)" stroke="rgb(239,118,23)" stroke-width="1" opacity="0.996078431372549" d="M 285.5 207 Q 287.8 206.3 287 208.5 L 287.5 210 Q 285.3 209.3 286 211.5 L 282.5 217 L 283 215.5 L 286 208.5 L 285.5 207 Z " /><path fill="rgb(239,118,23)" stroke="rgb(239,118,23)" stroke-width="1" opacity="0.996078431372549" d="M 15.5 210 L 16.5 212 L 15.5 210 Z " /><path fill="rgb(239,118,23)" stroke="rgb(239,118,23)" stroke-width="1" opacity="0.996078431372549" d="M 16.5 213 L 18.5 216 L 16.5 213 Z " /><path fill="rgb(239,118,23)" stroke="rgb(239,118,23)" stroke-width="1" opacity="0.996078431372549" d="M 287.5 215 L 286.5 217 L 287.5 215 Z " /><path fill="rgb(239,118,23)" stroke="rgb(239,118,23)" stroke-width="1" opacity="0.996078431372549" d="M 282.5 218 L 281 220.5 L 280.5 222 L 280 220.5 L 282.5 218 Z " /><path fill="rgb(239,118,23)" stroke="rgb(239,118,23)" stroke-width="1" opacity="0.996078431372549" d="M 20.5 219 L 23 222.5 L 21.5 222 Q 18.4 222.7 20.5 219 Z " /><path fill="rgb(239,118,23)" stroke="rgb(239,118,23)" stroke-width="1" opacity="0.996078431372549" d="M 23.5 224 L 25 227.5 L 24 227.5 L 23.5 224 Z " /><path fill="rgb(239,118,23)" stroke="rgb(239,118,23)" stroke-width="1" opacity="0.996078431372549" d="M 284.5 224 L 286 224.5 L 284 225 L 281.5 230 L 281 228.5 L 284.5 224 Z " /><path fill="rgb(239,118,23)" stroke="rgb(239,118,23)" stroke-width="1" opacity="0.996078431372549" d="M 275.5 228 L 276 232 L 274 231.5 L 275.5 228 Z " /><path fill="rgb(239,118,23)" stroke="rgb(239,118,23)" stroke-width="1" opacity="0.996078431372549" d="M 26.5 230 Q 29.8 228.9 29 231.5 L 30 233.5 L 29 233.5 L 27.5 231 L 26.5 230 Z " /><path fill="rgb(239,118,23)" stroke="rgb(239,118,23)" stroke-width="1" opacity="0.996078431372549" d="M 31.5 234 L 33 237.5 L 30 235.5 L 31.5 234 Z " /><path fill="rgb(239,118,23)" stroke="rgb(239,118,23)" stroke-width="1" opacity="0.996078431372549" d="M 271.5 235 L 271 236.5 L 268.5 240 L 266 241.5 L 265.5 243 L 265 240 L 270 238 L 271.5 235 Z " /><path fill="rgb(239,118,23)" stroke="rgb(239,118,23)" stroke-width="1" opacity="0.996078431372549" d="M 34.5 239 L 38 243.5 L 34 240.5 L 34.5 239 Z " /><path fill="rgb(239,118,23)" stroke="rgb(239,118,23)" stroke-width="1" opacity="0.996078431372549" d="M 39.5 245 L 43 251 L 46 252.5 L 44.5 252 L 41 250.5 L 42 249.5 L 39 246.5 L 39.5 245 Z " /><path fill="rgb(239,118,23)" stroke="rgb(239,118,23)" stroke-width="1" opacity="0.996078431372549" d="M 262.5 248 L 261.5 250 L 262.5 248 Z " /><path fill="rgb(239,118,23)" stroke="rgb(239,118,23)" stroke-width="1" opacity="0.996078431372549" d="M 255 253 L 257 253.5 L 252.5 259 L 253 257.5 L 255 253 Z " /><path fill="rgb(239,118,23)" stroke="rgb(239,118,23)" stroke-width="1" opacity="0.996078431372549" d="M 46.5 254 L 49 255.5 L 47.5 255 L 46.5 254 Z " /><path fill="rgb(239,118,23)" stroke="rgb(239,118,23)" stroke-width="1" opacity="0.996078431372549" d="M 49.5 257 Q 52.8 255.9 52 258.5 L 57 261 L 56.5 264 L 56 262 L 52 261 L 50.5 258 L 49.5 257 Z " /><path fill="rgb(239,118,23)" stroke="rgb(239,118,23)" stroke-width="1" opacity="0.996078431372549" d="M 250.5 258 L 250 259.5 Q 250.8 261.8 248.5 261 L 248.5 263 L 244.5 264 L 244 262 Q 249.1 262.8 250.5 258 Z " /><path fill="rgb(239,118,23)" stroke="rgb(239,118,23)" stroke-width="1" opacity="0.996078431372549" d="M 58.5 264 L 64 267.5 L 65 269.5 L 63 268.5 Q 63.8 266.3 61.5 267 L 58.5 264 Z " /><path fill="rgb(239,118,23)" stroke="rgb(239,118,23)" stroke-width="1" opacity="0.996078431372549" d="M 241.5 265 L 243 265.5 L 235.5 271 L 237.5 268 L 241.5 265 Z " /><path fill="rgb(239,118,23)" stroke="rgb(239,118,23)" stroke-width="1" opacity="0.996078431372549" d="M 66.5 269 L 67 271.5 L 66 271.5 L 66.5 269 Z " /><path fill="rgb(239,118,23)" stroke="rgb(239,118,23)" stroke-width="1" opacity="0.996078431372549" d="M 69.5 271 Q 72.1 270.3 71 273 L 73.5 273 L 76 274.5 L 74.5 275 L 72.5 274 L 71 274.5 L 69.5 271 Z " /><path fill="rgb(239,118,23)" stroke="rgb(239,118,23)" stroke-width="1" opacity="0.996078431372549" d="M 228 272 L 231 273.5 L 229 273.5 Q 229.5 277.5 226.5 278 L 225 277.5 L 228 275.5 L 228 272 Z " /><path fill="rgb(239,118,23)" stroke="rgb(239,118,23)" stroke-width="1" opacity="0.996078431372549" d="M 77 275 L 81 277.5 L 77 276.5 L 77 275 Z " /><path fill="rgb(239,118,23)" stroke="rgb(239,118,23)" stroke-width="1" opacity="0.996078431372549" d="M 220.5 277 L 217.5 281 L 220.5 277 Z " /><path fill="rgb(239,118,23)" stroke="rgb(239,118,23)" stroke-width="1" opacity="0.996078431372549" d="M 82.5 278 Q 84.8 277.3 84 279.5 L 82.5 278 Z " /><path fill="rgb(239,118,23)" stroke="rgb(239,118,23)" stroke-width="1" opacity="0.996078431372549" d="M 210.5 281 L 213 281.5 L 210 282 L 211 284.5 L 209.5 284 L 205 283.5 Q 209.3 283.8 210.5 281 Z " /><path fill="rgb(239,118,23)" stroke="rgb(239,118,23)" stroke-width="1" opacity="0.996078431372549" d="M 92.5 283 Q 94.8 282.3 94 284.5 L 91.5 285 L 90 284.5 L 92.5 283 Z " /><path fill="rgb(239,118,23)" stroke="rgb(239,118,23)" stroke-width="1" opacity="0.996078431372549" d="M 96.5 284 L 98.5 287 L 96.5 284 Z " /><path fill="rgb(239,118,23)" stroke="rgb(239,118,23)" stroke-width="1" opacity="0.996078431372549" d="M 203.5 284 L 202.5 286 L 196.5 288 L 197.5 286 L 203.5 284 Z " /><path fill="rgb(239,118,23)" stroke="rgb(239,118,23)" stroke-width="1" opacity="0.996078431372549" d="M 102.5 287 L 112 289.5 L 109.5 290 Q 108.3 287.7 103.5 289 L 102.5 287 Z " /><path fill="rgb(239,118,23)" stroke="rgb(239,118,23)" stroke-width="1" opacity="0.996078431372549" d="M 190.5 289 L 189.5 291 L 187 290.5 L 190.5 289 Z " /><path fill="rgb(239,118,23)" stroke="rgb(239,118,23)" stroke-width="1" opacity="0.996078431372549" d="M 113.5 290 L 116.5 291 L 119.5 290 L 131 293 L 130.5 295 L 128.5 293 L 117.5 291 L 115.5 291 Q 112.5 291.5 113.5 290 Z " /><path fill="rgb(239,118,23)" stroke="rgb(239,118,23)" stroke-width="1" opacity="0.996078431372549" d="M 180.5 292 L 181.5 294 L 179.5 294 L 178 293.5 L 180.5 292 Z " /><path fill="rgb(239,118,23)" stroke="rgb(239,118,23)" stroke-width="1" opacity="0.996078431372549" d="M 169.5 293 L 171 293.5 L 168.5 295 L 169.5 293 Z " /><path fill="rgb(239,118,23)" stroke="rgb(239,118,23)" stroke-width="1" opacity="0.996078431372549" d="M 172.5 293 L 176 293.5 L 172.5 294 L 172.5 293 Z " /><path fill="rgb(239,118,23)" stroke="rgb(239,118,23)" stroke-width="1" opacity="0.996078431372549" d="M 132.5 294 Q 136.3 293.3 137 295.5 L 135.5 295 Q 131.5 295.8 132.5 294 Z " /><path fill="rgb(239,118,23)" stroke="rgb(239,118,23)" stroke-width="1" opacity="0.996078431372549" d="M 138.5 295 L 143 296.5 Q 141.3 299.8 139.5 296 L 138.5 295 Z " /><path fill="rgb(239,118,23)" stroke="rgb(239,118,23)" stroke-width="1" opacity="0.996078431372549" d="M 148.5 295 L 151.5 296 L 153.5 295 L 155.5 296 L 158.5 295 L 158.5 296 L 154.5 297 L 152.5 296 L 149.5 297 L 148.5 295 Z " /><path fill="rgb(239,118,23)" stroke="rgb(239,118,23)" stroke-width="1" opacity="0.996078431372549" d="M 160.5 295 L 165 295.5 L 160.5 296 L 160.5 295 Z " /><path fill="rgb(239,118,23)" stroke="rgb(239,118,23)" stroke-width="1" opacity="0.996078431372549" d="M 175.5 295 L 177 297.5 L 176 297.5 L 175.5 296 L 174 296.5 L 175.5 295 Z " /><path fill="rgb(239,118,23)" stroke="rgb(239,118,23)" stroke-width="1" opacity="1" d="M 144.5 4 L 147.5 5 L 149.5 4 L 152.5 5 Q 154 2.5 159.5 4 L 165.5 6 L 167 5.5 Q 166.1 8.5 170.5 7 L 179.5 10 L 186 10 Q 184.9 12.7 187.5 12 L 189.5 12 L 199.5 13 Q 202.3 16.7 208.5 17 L 212.5 21 L 220 23 Q 218.9 25.7 221.5 25 L 227.5 27 L 230.5 30 L 232 29.5 L 233.5 32 L 235.5 31 L 238.5 35 L 243 37.5 Q 242.3 39.8 244.5 39 L 247 40 L 249.5 44 L 251 43.5 L 251 46 L 254 46 L 254 49 L 257 49 L 257 52 Q 259.7 50.9 259 53.5 Q 265.7 58.5 268 67 L 271 68.5 Q 270.2 71.1 273.5 70 L 276 76.5 L 279 79.5 L 279 82 Q 282 80.8 281 84.5 L 289 100.5 Q 286.5 102 290 103.5 L 291 111.5 L 294 117.5 L 293 119.5 L 294 124.5 L 297 127.5 L 297 131.5 L 296 135.5 L 297 136.5 L 297 166.5 L 296 169.5 L 294 185.5 L 291 188.5 L 291 193.5 L 288 200.5 L 288 205 Q 283.9 203.3 285 207.5 L 286 209.5 L 279 225 L 277 225 L 277 228 Q 274 226.8 275 230.5 L 274 233 Q 271.3 231.9 272 234.5 L 270 238 L 265 240 L 266 243.5 L 262 245 Q 262.8 250 259.5 252 L 257 251 L 257 253 Q 254.3 251.9 255 254.5 L 251.5 259 L 250.5 258 L 246.5 262 L 244 262 Q 245.7 266.1 241.5 265 L 235 270.5 Q 236.1 273.8 233.5 273 L 231.5 274 L 228 272 Q 229 275.8 226.5 277 L 221.5 278 L 220.5 277 L 216.5 281 L 213.5 282 L 210.5 281 L 208.5 283 L 205.5 283 L 196 287.5 L 196.5 289 Q 186.2 288.2 182.5 294 Q 181 290.5 179.5 293 L 176.5 294 L 172.5 293 L 170.5 293 L 167.5 295 Q 161.3 293.3 159.5 296 L 156.5 295 L 154.5 296 L 152.5 295 L 149.5 296 L 147.5 296 L 138.5 295 Q 137 297.5 135.5 294 L 131.5 294 L 128.5 292 L 117.5 290 L 115.5 290 L 99.5 287 L 96.5 284 L 94 285 Q 95.3 281.7 90.5 283 L 89 280 L 84.5 280 L 84 278 L 81.5 278 L 78.5 275 L 71 273 L 71 271 L 67 271 L 67 269 Q 63.3 270.5 64 267.5 L 57 264 Q 58.5 260.2 55.5 261 L 52 258.5 L 52 257 Q 48.3 258.5 49 255.5 L 46 254 L 44.5 251 Q 42.3 251.8 43 249.5 L 40 245 Q 37.3 246.1 38 243.5 L 35 239 Q 32.3 240.1 33 237.5 L 32 234 Q 29.3 235.1 30 232.5 L 29 230 Q 25.2 231 24 228.5 L 25 225.5 L 21 219 Q 17.7 220.3 19 215.5 L 10 197.5 L 9 188.5 L 7 186.5 L 6 178.5 L 3 171.5 Q 5.3 170.3 4 165.5 L 3 164.5 L 3 154.5 L 1 150 Q 4 151.3 3 147.5 L 3 145.5 L 3 130.5 L 5 126.5 Q 3.2 120.3 6 118.5 L 6 116.5 L 6 114 Q 9 115.3 8 111.5 Q 10.6 108.6 10 102.5 L 12 99.5 L 11 97.5 L 12 95 Q 15.7 96.5 15 93.5 L 13.5 91 Q 16.1 91.8 15 88.5 L 21 75 Q 23.7 76.1 23 73.5 L 26 67 Q 28.7 68.1 28 65.5 L 31 61 L 35 59.5 L 34 56.5 L 38 55 L 39.5 51 L 41 51 L 41 49 L 43 49 L 43 47 L 45 47 L 45 45 L 47 45 Q 45.9 42.3 48.5 43 L 52 38 L 56 38 Q 54.3 33.9 58.5 35 L 65 29.5 L 66.5 27 L 72 28 L 71 25.5 L 73.5 23 L 84 22 L 84.5 20 L 86.5 21 L 103 13.5 Q 102.1 10.1 107.5 12 L 117.5 7 L 122.5 8 L 123.5 7 L 132 7 L 132.5 5 L 135.5 6 L 144.5 4 Z M 220 115 L 209 119 L 199 130 L 196 141 L 197 149 L 201 157 L 211 165 L 221 168 Q 232 168 239 163 Q 246 157 249 147 L 249 137 L 244 126 Q 237 115 220 115 Z M 66 117 L 66 126 L 78 126 L 78 170 L 77 172 L 72 176 Q 63 178 61 173 L 57 176 L 54 180 L 60 184 L 68 186 L 75 185 L 82 181 L 88 169 L 88 117 L 66 117 Z M 97 117 L 97 149 L 100 159 Q 105 166 116 168 L 124 167 L 128 165 L 136 155 L 137 150 L 137 117 L 128 117 L 127 118 L 127 153 Q 125 158 119 159 L 112 157 L 107 152 L 107 118 L 107 117 L 97 117 Z M 148 117 L 148 167 L 149 167 L 158 167 L 159 135 L 179 166 L 181 167 L 189 167 L 189 118 L 189 117 L 180 117 L 180 149 L 159 119 L 158 117 L 148 117 Z " /><path fill="rgb(239,118,23)" stroke="rgb(239,118,23)" stroke-width="1" opacity="1" d="M 218.5 125 L 227.5 125 L 237 132.5 Q 240.7 136.8 239 146.5 L 231.5 156 Q 227.5 159.5 218.5 158 L 209 151.5 Q 205.1 147.4 206 138.5 Q 207.9 130.8 213.5 127 L 218.5 125 Z " /><path fill="rgb(248,191,149)" stroke="rgb(248,191,149)" stroke-width="1" opacity="0.3686274509803922" d="M 131.5 0 L 136 1 L 136.5 3 L 138.5 0 Q 144 -1.5 145.5 1 L 149.5 0 L 152.5 1 L 155.5 0 L 157.5 1 L 159.5 0 L 163.5 0 L 169 3.5 Q 169.8 5.8 167.5 5 L 164.5 3 L 162.5 3 L 156.5 2 L 156.5 4 L 150.5 2 L 146.5 4 L 141.5 2 L 141 4 L 134.5 4 L 133.5 5 L 131.5 4 Q 129.8 7.8 128 4.5 L 129 1 L 131.5 0 Z " /><path fill="rgb(248,191,149)" stroke="rgb(248,191,149)" stroke-width="1" opacity="0.3686274509803922" d="M 180.5 0 L 183 0.5 L 180.5 1 L 180.5 0 Z " /><path fill="rgb(248,191,149)" stroke="rgb(248,191,149)" stroke-width="1" opacity="0.3686274509803922" d="M 115.5 2 L 119 4.5 L 118.5 6 L 116 5 Q 117.1 7.7 114.5 7 L 112.5 7 Q 108.8 7.8 108 5.5 L 109.5 3 Q 114.3 4.3 115.5 2 Z " /><path fill="rgb(248,191,149)" stroke="rgb(248,191,149)" stroke-width="1" opacity="0.3686274509803922" d="M 171.5 2 L 177.5 3 L 182 2 L 181.5 5 L 179 3.5 L 178 5.5 L 185.5 7 L 185.5 5 L 187 5 L 187.5 3 L 192.5 3 L 195 7 Q 190.9 5.7 192 9 L 196 8 L 196 10 L 202 10 L 202.5 8 L 204 11 L 202 11.5 L 204.5 13 Q 206 10.5 207.5 14 Q 209.8 14.8 209 12.5 L 208 10 Q 211.8 8.5 211 11.5 L 214.5 16 Q 216.8 15.3 216 17.5 L 218.5 19 L 221.5 18 L 223 21 Q 226.3 19.9 225 24 L 227.5 24 L 226.5 26 L 219.5 21 L 214 20 Q 215.1 17.3 212.5 18 L 210 17 Q 211.1 14.3 208.5 15 L 206.5 15 L 204.5 15 L 199.5 11 L 198.5 13 L 196.5 11 L 191.5 11 L 182.5 8 L 178.5 8 L 175.5 6 L 172.5 7 L 170 3.5 L 171.5 2 Z M 189 4 L 187 7 L 189 7 L 189 4 Z M 190 4 L 190 7 L 194 6 L 190 4 Z M 221 19 Q 219 22 222 21 L 221 19 Z " /><path fill="rgb(248,191,149)" stroke="rgb(248,191,149)" stroke-width="1" opacity="0.3686274509803922" d="M 196.5 6 Q 198.8 5.3 198 7.5 L 196.5 6 Z " /><path fill="rgb(248,191,149)" stroke="rgb(248,191,149)" stroke-width="1" opacity="0.3686274509803922" d="M 109.5 8 L 110 10 L 106 9.5 L 109.5 8 Z " /><path fill="rgb(248,191,149)" stroke="rgb(248,191,149)" stroke-width="1" opacity="0.3686274509803922" d="M 96 10 Q 100.5 8.5 99 13 Q 94.5 14.5 96 10 Z " /><path fill="rgb(248,191,149)" stroke="rgb(248,191,149)" stroke-width="1" opacity="0.3686274509803922" d="M 87 13 L 90.5 14 Q 92.2 11.3 94 15.5 L 88.5 18 Q 86 16.8 87 13 Z M 88 15 Q 87 18 90 17 Q 91 14 88 15 Z " /><path fill="rgb(248,191,149)" stroke="rgb(248,191,149)" stroke-width="1" opacity="0.3686274509803922" d="M 76 17 L 79 18.5 L 76 20 L 76 17 Z " /><path fill="rgb(248,191,149)" stroke="rgb(248,191,149)" stroke-width="1" opacity="0.3686274509803922" d="M 65 23 Q 70.2 21.3 69 25 L 66 25 L 66 27 Q 63.3 25.9 64 28.5 L 58 32 Q 59.1 34.7 56.5 34 L 54.5 37 L 52 36 L 55 30 Q 58 31.3 57 27.5 L 59 27.5 Q 58.3 25.3 60.5 26 L 62.5 27 L 65 23 Z " /><path fill="rgb(248,191,149)" stroke="rgb(248,191,149)" stroke-width="1" opacity="0.3686274509803922" d="M 230 26 L 235 27 Q 233.9 29.7 236.5 29 L 240 33.5 L 237.5 32 L 232.5 28 Q 231.3 30.3 230 27.5 L 230 26 Z " /><path fill="rgb(248,191,149)" stroke="rgb(248,191,149)" stroke-width="1" opacity="0.3686274509803922" d="M 247.5 33 Q 250.1 32.2 249 35.5 L 246.5 39 L 242.5 34 L 246 36.5 L 247.5 33 Z " /><path fill="rgb(248,191,149)" stroke="rgb(248,191,149)" stroke-width="1" opacity="0.3686274509803922" d="M 48.5 38 L 51 38.5 L 46.5 40 L 46.5 39 L 48.5 38 Z " /><path fill="rgb(248,191,149)" stroke="rgb(248,191,149)" stroke-width="1" opacity="0.3686274509803922" d="M 251.5 41 L 252 43 L 256 45.5 Q 255.3 47.8 257.5 47 L 262.5 53 Q 265.5 52.1 264 56.5 L 267 58 L 271 63.5 L 269.5 63 L 266 61.5 L 266 59.5 L 260 51 L 258 50.5 L 258.5 49 L 255 48 L 253.5 45 Q 251.3 45.8 252 43.5 L 251.5 41 Z " /><path fill="rgb(248,191,149)" stroke="rgb(248,191,149)" stroke-width="1" opacity="0.3686274509803922" d="M 44.5 42 L 45 43.5 L 43 44.5 L 44.5 42 Z " /><path fill="rgb(248,191,149)" stroke="rgb(248,191,149)" stroke-width="1" opacity="0.3686274509803922" d="M 37.5 49 L 39 49.5 L 38.5 52 L 36.5 51 L 35.5 56 L 33.5 55 L 32 55.5 L 33 52 L 37.5 49 Z " /><path fill="rgb(248,191,149)" stroke="rgb(248,191,149)" stroke-width="1" opacity="0.3686274509803922" d="M 30.5 57 L 33 57.5 L 31.5 60 L 28 62.5 L 27 66 L 24.5 67 L 25 65.5 L 27 62.5 L 30.5 57 Z " /><path fill="rgb(248,191,149)" stroke="rgb(248,191,149)" stroke-width="1" opacity="0.3686274509803922" d="M 274.5 66 Q 279.3 64.7 278 68 L 274.5 67 L 274 69 L 271 67.5 L 274.5 66 Z " /><path fill="rgb(248,191,149)" stroke="rgb(248,191,149)" stroke-width="1" opacity="0.3686274509803922" d="M 17 69 Q 21.5 67.3 20 72.5 L 17 74 L 17 69 Z M 19 70 L 18 73 L 19 73 L 19 70 Z " /><path fill="rgb(248,191,149)" stroke="rgb(248,191,149)" stroke-width="1" opacity="0.3686274509803922" d="M 276.5 73 L 279 74.5 L 280 77.5 L 277 75.5 L 276.5 73 Z " /><path fill="rgb(248,191,149)" stroke="rgb(248,191,149)" stroke-width="1" opacity="0.3686274509803922" d="M 17 77 L 19 77.5 L 17 78.5 L 17 77 Z " /><path fill="rgb(248,191,149)" stroke="rgb(248,191,149)" stroke-width="1" opacity="0.3686274509803922" d="M 13.5 79 L 17 80.5 Q 14.4 81.9 15 86.5 L 11.5 90 L 9 84.5 L 11 84 L 13.5 79 Z M 14 81 L 12 85 L 12 86 L 14 85 L 14 81 Z " /><path fill="rgb(248,191,149)" stroke="rgb(248,191,149)" stroke-width="1" opacity="0.3686274509803922" d="M 281.5 80 L 282.5 82 L 281.5 80 Z " /><path fill="rgb(248,191,149)" stroke="rgb(248,191,149)" stroke-width="1" opacity="0.3686274509803922" d="M 289.5 96 L 292 99.5 L 293 105.5 L 291 104.5 L 290 101.5 L 291 99 Q 287.5 100.1 289.5 96 Z " /><path fill="rgb(248,191,149)" stroke="rgb(248,191,149)" stroke-width="1" opacity="0.3686274509803922" d="M 9.5 97 L 10 99.5 L 9 99.5 L 9.5 97 Z " /><path fill="rgb(248,191,149)" stroke="rgb(248,191,149)" stroke-width="1" opacity="0.3686274509803922" d="M 6 101 L 9 101.5 L 7.5 104 L 6 101 Z " /><path fill="rgb(248,191,149)" stroke="rgb(248,191,149)" stroke-width="1" opacity="0.3686274509803922" d="M 295 108 L 298 109.5 Q 297.3 112.1 300 111 L 300 114 L 297 114 L 297 111 Q 293.7 112.1 295 108 Z " /><path fill="rgb(248,191,149)" stroke="rgb(248,191,149)" stroke-width="1" opacity="0.3686274509803922" d="M 3 110 Q 6.7 108.5 6 111.5 L 6.5 113 L 3 111.5 L 3 110 Z " /><path fill="rgb(248,191,149)" stroke="rgb(248,191,149)" stroke-width="1" opacity="0.3686274509803922" d="M 295.5 115 L 297 120.5 L 295 121.5 L 295.5 115 Z " /><path fill="rgb(248,191,149)" stroke="rgb(248,191,149)" stroke-width="1" opacity="0.3686274509803922" d="M 297 116 Q 301.5 114.5 300 119 L 297 117.5 L 297 116 Z " /><path fill="rgb(248,191,149)" stroke="rgb(248,191,149)" stroke-width="1" opacity="0.3686274509803922" d="M 3.5 120 L 4 121.5 L 3 123.5 L 4 125.5 L 2 129.5 L 2.5 131 Q 0.3 131.8 1 129.5 L 3 125.5 Q -1 123.5 3 121.5 L 3.5 120 Z " /><path fill="rgb(248,191,149)" stroke="rgb(248,191,149)" stroke-width="1" opacity="0.3686274509803922" d="M 296.5 123 Q 299.5 124.5 296.5 126 L 296.5 123 Z " /><path fill="rgb(248,191,149)" stroke="rgb(248,191,149)" stroke-width="1" opacity="0.3686274509803922" d="M 298.5 126 Q 301.5 127.5 298.5 129 L 298.5 126 Z " /><path fill="rgb(248,191,149)" stroke="rgb(248,191,149)" stroke-width="1" opacity="0.3686274509803922" d="M 299.5 130 L 300 132 Q 297 130.8 298 134.5 L 300 137.5 L 300 149 L 298 148.5 L 298 136.5 L 297 132.5 L 299.5 130 Z " /><path fill="rgb(248,191,149)" stroke="rgb(248,191,149)" stroke-width="1" opacity="0.3686274509803922" d="M 1.5 133 L 2 134.5 L 1 136.5 L 2 138.5 L 0.5 142 L 0 139.5 L 1 137.5 L 0 135.5 L 1.5 133 Z " /><path fill="rgb(248,191,149)" stroke="rgb(248,191,149)" stroke-width="1" opacity="0.3686274509803922" d="M 0.5 151 Q 3.6 155.8 2 165.5 L 1 165.5 L 0 163.5 L 0.5 151 Z " /><path fill="rgb(248,191,149)" stroke="rgb(248,191,149)" stroke-width="1" opacity="0.3686274509803922" d="M 299.5 153 L 300 156.5 L 299 156.5 L 299.5 153 Z " /><path fill="rgb(248,191,149)" stroke="rgb(248,191,149)" stroke-width="1" opacity="0.3686274509803922" d="M 125.5 154 L 124.5 156 L 125.5 154 Z " /><path fill="rgb(248,191,149)" stroke="rgb(248,191,149)" stroke-width="1" opacity="0.3686274509803922" d="M 298.5 159 Q 300.8 158.3 300 160.5 L 299 163.5 L 298.5 167 L 298 163.5 L 298.5 159 Z " /><path fill="rgb(248,191,149)" stroke="rgb(248,191,149)" stroke-width="1" opacity="0.3686274509803922" d="M 0 168 Q 3.7 166.7 2 172.5 L 0 173.5 L 0 168 Z " /><path fill="rgb(248,191,149)" stroke="rgb(248,191,149)" stroke-width="1" opacity="0.3686274509803922" d="M 296.5 174 L 298 177.5 L 296.5 180 L 296.5 174 Z " /><path fill="rgb(248,191,149)" stroke="rgb(248,191,149)" stroke-width="1" opacity="0.3686274509803922" d="M 2.5 175 L 3.5 177 L 2.5 175 Z " /><path fill="rgb(248,191,149)" stroke="rgb(248,191,149)" stroke-width="1" opacity="0.3686274509803922" d="M 4.5 178 L 5 180.5 L 4.5 186 L 3 182.5 L 3 180.5 L 4.5 178 Z " /><path fill="rgb(248,191,149)" stroke="rgb(248,191,149)" stroke-width="1" opacity="0.3686274509803922" d="M 0 182 Q 3 181 2 184 Q -1 185 0 182 Z " /><path fill="rgb(248,191,149)" stroke="rgb(248,191,149)" stroke-width="1" opacity="0.3686274509803922" d="M 1.5 186 L 5 192 L 1 192 L 1 190.5 L 1.5 189 Q -0.8 189.8 0 187.5 L 1.5 186 Z " /><path fill="rgb(248,191,149)" stroke="rgb(248,191,149)" stroke-width="1" opacity="0.3686274509803922" d="M 4.5 187 Q 6.8 186.3 6 188.5 L 7 190.5 L 6 190.5 L 4.5 187 Z " /><path fill="rgb(248,191,149)" stroke="rgb(248,191,149)" stroke-width="1" opacity="0.3686274509803922" d="M 6 194 Q 8.7 192.9 8 195.5 L 9 200.5 L 8 200.5 Q 5.2 198.5 6 194 Z " /><path fill="rgb(248,191,149)" stroke="rgb(248,191,149)" stroke-width="1" opacity="0.3686274509803922" d="M 291.5 197 L 293 200 Q 290.3 198.9 291 201.5 L 290 201.5 L 291.5 197 Z " /><path fill="rgb(248,191,149)" stroke="rgb(248,191,149)" stroke-width="1" opacity="0.3686274509803922" d="M 9.5 202 Q 11.8 201.3 11 203.5 L 9.5 202 Z " /><path fill="rgb(248,191,149)" stroke="rgb(248,191,149)" stroke-width="1" opacity="0.3686274509803922" d="M 288.5 212 L 290 212 L 290 217 L 287 218.5 L 286.5 221 L 283 220 L 283.5 217 L 285 217.5 L 285.5 213 Q 287 215.5 288.5 212 Z M 286 215 L 286 218 L 289 216 L 286 215 Z " /><path fill="rgb(248,191,149)" stroke="rgb(248,191,149)" stroke-width="1" opacity="0.3686274509803922" d="M 10 215 Q 13 214 12 217 Q 9 218 10 215 Z " /><path fill="rgb(248,191,149)" stroke="rgb(248,191,149)" stroke-width="1" opacity="0.3686274509803922" d="M 281 221 Q 283.7 219.9 283 222.5 L 284.5 222 L 288 224.5 L 288 226 Q 284.3 224.5 285 227.5 L 283 231 Q 279.6 231.8 278.5 229 L 276.5 232 L 276 230.5 L 278.5 227 Q 280.3 229.7 282 225.5 L 283 223.5 L 281 223 L 281 221 Z M 285 223 L 282 228 L 284 227 Q 283 224 286 225 Q 287 222 285 223 Z M 280 228 Q 279 231 282 230 Q 283 227 280 228 Z " /><path fill="rgb(248,191,149)" stroke="rgb(248,191,149)" stroke-width="1" opacity="0.3686274509803922" d="M 20.5 223 L 23 224 L 24 228 L 21 226.5 L 20.5 223 Z " /><path fill="rgb(248,191,149)" stroke="rgb(248,191,149)" stroke-width="1" opacity="0.3686274509803922" d="M 22.5 229 Q 25.8 230.2 25 234 L 21 233.5 L 24 231.5 L 22.5 229 Z " /><path fill="rgb(248,191,149)" stroke="rgb(248,191,149)" stroke-width="1" opacity="0.3686274509803922" d="M 26 232 Q 29 231 28 234 Q 25 235 26 232 Z " /><path fill="rgb(248,191,149)" stroke="rgb(248,191,149)" stroke-width="1" opacity="0.3686274509803922" d="M 274.5 233 L 275 235.5 L 268.5 243 L 267 242.5 L 269 239 L 272 237.5 L 271.5 236 Q 273.8 236.8 273 234.5 L 274.5 233 Z " /><path fill="rgb(248,191,149)" stroke="rgb(248,191,149)" stroke-width="1" opacity="0.3686274509803922" d="M 30.5 237 L 34 239.5 L 32.5 240 L 30.5 237 Z " /><path fill="rgb(248,191,149)" stroke="rgb(248,191,149)" stroke-width="1" opacity="0.3686274509803922" d="M 33.5 241 L 37 243 L 41 251 L 45 253.5 L 44.5 255 L 44 253 L 40 251.5 L 36 246.5 L 36 244 Q 33.3 245.1 34 242.5 L 33.5 241 Z " /><path fill="rgb(248,191,149)" stroke="rgb(248,191,149)" stroke-width="1" opacity="0.3686274509803922" d="M 264.5 245 L 267 246.5 L 262 250.5 L 263 247 L 265 246.5 L 264.5 245 Z " /><path fill="rgb(248,191,149)" stroke="rgb(248,191,149)" stroke-width="1" opacity="0.3686274509803922" d="M 47.5 255 Q 50.3 256.3 48 257.5 L 47.5 259 L 46 256.5 L 47.5 255 Z " /><path fill="rgb(248,191,149)" stroke="rgb(248,191,149)" stroke-width="1" opacity="0.3686274509803922" d="M 255 256 L 257 256.5 L 255.5 259 L 255 256 Z " /><path fill="rgb(248,191,149)" stroke="rgb(248,191,149)" stroke-width="1" opacity="0.3686274509803922" d="M 253.5 259 L 254 261 L 249.5 264 L 249 261 L 253.5 259 Z " /><path fill="rgb(248,191,149)" stroke="rgb(248,191,149)" stroke-width="1" opacity="0.3686274509803922" d="M 53.5 261 L 54 263 L 56 263 Q 54.9 265.7 57.5 265 L 59 268 Q 56.3 269.1 57 266.5 L 54 265 Q 55.1 262.3 52.5 263 L 53.5 261 Z " /><path fill="rgb(248,191,149)" stroke="rgb(248,191,149)" stroke-width="1" opacity="0.3686274509803922" d="M 244.5 264 L 248 265.5 L 242 270.5 L 243 273 L 239.5 275 L 239 273 L 237 273 Q 238.1 275.7 235.5 275 L 235.5 277 L 233.5 277 Q 229.8 278 231 275 Q 234.7 276.5 234 273.5 L 240.5 268 L 242.5 269 L 242 267.5 Q 241.1 264.5 245.5 266 L 245.5 265 L 244.5 264 Z " /><path fill="rgb(248,191,149)" stroke="rgb(248,191,149)" stroke-width="1" opacity="0.3686274509803922" d="M 53.5 267 Q 56.8 265.9 56 268.5 L 52 271 L 53.5 267 Z " /><path fill="rgb(248,191,149)" stroke="rgb(248,191,149)" stroke-width="1" opacity="0.3686274509803922" d="M 60.5 267 L 63 268 L 63 270 L 65 270 Q 63.9 272.7 66.5 272 Q 67.8 269.8 69 272.5 L 70 274.5 L 67.5 273 L 64 273 L 64 271 Q 60.3 272.5 61 269.5 L 60.5 267 Z " /><path fill="rgb(248,191,149)" stroke="rgb(248,191,149)" stroke-width="1" opacity="0.3686274509803922" d="M 72.5 275 L 83 279 L 83.5 281 Q 84.8 278.8 86 281.5 Q 85.2 284.5 89 283 L 89 285 L 91.5 285 L 93.5 285 L 98.5 288 L 100.5 287 L 104.5 290 L 107.5 289 Q 109 292.5 110.5 290 L 112 290.5 L 110 291.5 L 112.5 292 L 114.5 292 L 117.5 293 L 120 292 Q 121.3 295.3 116.5 294 Q 115.3 291.8 114 294.5 L 112.5 297 L 112 294 L 114 293.5 Q 108.2 294.3 106.5 291 L 104.5 292 Q 102.8 288.7 97 289.5 L 97.5 288 L 93.5 288 L 91.5 286 L 84.5 285 L 86 287.5 Q 86.8 290.1 83.5 289 L 82 285 Q 84.7 286.1 84 283.5 L 83 281 L 78.5 282 L 75 280 Q 76.5 276.2 73.5 277 L 72.5 275 Z M 78 279 Q 77 282 80 281 Q 81 278 78 279 Z " /><path fill="rgb(248,191,149)" stroke="rgb(248,191,149)" stroke-width="1" opacity="0.3686274509803922" d="M 219 279 L 222 280.5 Q 222.8 282.8 220.5 282 L 219 279 Z " /><path fill="rgb(248,191,149)" stroke="rgb(248,191,149)" stroke-width="1" opacity="0.3686274509803922" d="M 211.5 282 L 214 283.5 L 212 287 L 209 285.5 L 211.5 282 Z M 210 284 L 210 286 L 212 285 L 210 284 Z " /><path fill="rgb(248,191,149)" stroke="rgb(248,191,149)" stroke-width="1" opacity="0.3686274509803922" d="M 202 287 L 205 288.5 Q 205.7 291.5 202 290 L 202 287 Z " /><path fill="rgb(248,191,149)" stroke="rgb(248,191,149)" stroke-width="1" opacity="0.3686274509803922" d="M 190 290 Q 194.1 288.7 193 292 Q 188.9 293.3 190 290 Z " /><path fill="rgb(248,191,149)" stroke="rgb(248,191,149)" stroke-width="1" opacity="0.3686274509803922" d="M 121.5 292 L 124.5 294 L 126.5 293 L 129 294 L 130 296.5 Q 129.3 298.8 125.5 298 L 122.5 297 L 118 300 Q 119.1 297.3 116.5 298 L 115.5 296 L 117.5 296 L 120.5 297 L 121.5 292 Z " /><path fill="rgb(248,191,149)" stroke="rgb(248,191,149)" stroke-width="1" opacity="0.3686274509803922" d="M 186 293 L 189.5 294 L 191 293.5 L 192 295.5 L 190.5 297 L 183.5 298 L 181 297 Q 179.7 293.7 184.5 295 L 186 295.5 L 186 293 Z " /><path fill="rgb(248,191,149)" stroke="rgb(248,191,149)" stroke-width="1" opacity="0.3686274509803922" d="M 131 295 Q 133.7 293.9 133 296.5 L 135.5 297 L 142.5 298 Q 143.8 295.8 148.5 297 L 150.5 297 Q 156.7 295.3 158.5 298 L 165.5 295 L 168.5 296 Q 169.7 293.8 174.5 295 L 174 296.5 Q 173.3 299.5 177 298 L 177.5 295 L 178 299 L 171.5 298 L 167.5 300 L 163.5 298 L 161.5 299 L 160 298.5 Q 160.8 300.8 158.5 300 L 156.5 299 L 155.5 300 L 143.5 300 L 141.5 300 L 134.5 300 L 131 298 L 131 295 Z M 170 296 L 168 298 L 170 298 L 170 296 Z " /><path fill="rgb(0,0,0)" stroke="rgb(0,0,0)" stroke-width="1" opacity="0" d="M 0 0 L 131 0.5 L 129 1 L 127.5 5 L 125.5 6 L 121.5 5 L 119 6 L 116.5 2 L 108 3 L 109.5 7 L 111 7.5 L 105.5 9 Q 103.2 4.8 101 9.5 Q 101.8 13.3 99.5 14 L 93.5 15 Q 92 11.8 87 13 L 88 17.5 Q 86.8 20.3 85.5 18 L 82 18 Q 83.1 20.7 80.5 20 Q 78.8 22.8 72.5 21 L 70 23.5 L 69.5 25 L 69 23 L 65 23 L 65 24.5 L 61 27 Q 62 24 59 25 Q 60.1 27.7 57.5 27 L 52 36 Q 48.3 34.5 49 37.5 L 46 39 L 46 41 Q 43.3 39.9 44 42.5 L 40.5 47 L 37 48.5 L 34.5 52 Q 32.3 51.3 33 53.5 L 31.5 58 L 30 57.5 L 27.5 62 Q 25.3 61.3 26 63.5 L 17 77.5 L 17 80 L 13.5 79 L 11 84 Q 8.3 82.9 9 85.5 Q 11.7 87.8 11 93.5 Q 7.7 95 9 100 L 6 101.5 L 8 105.5 L 6.5 111 L 3.5 110 Q 0.3 111.8 4 113.5 L 3 117.5 L 3 119.5 Q 4 123.3 1 122 L 1 125 L 3 125.5 Q 0.3 128.8 0.5 135 L 0 0 Z M 96 10 Q 95 15 99 13 Q 101 9 96 10 Z M 75 17 L 75 19 L 79 20 Q 81 15 75 17 Z M 17 69 L 16 72 L 18 74 L 20 73 Q 22 67 17 69 Z " /><path fill="rgb(0,0,0)" stroke="rgb(0,0,0)" stroke-width="1" opacity="0" d="M 132.5 0 Q 138.3 -2.1 137 2.5 L 136 2.5 Q 136.9 -0.5 132.5 1 L 132.5 0 Z " /><path fill="rgb(0,0,0)" stroke="rgb(0,0,0)" stroke-width="1" opacity="0" d="M 165.5 0 Q 176.3 -1.8 182.5 1 L 183.5 0 L 300 0 L 300 110.5 L 298 111 Q 299.5 106.5 295 108 L 295 111 L 297 111 L 297 114 Q 301.1 112.7 300 116 Q 295.5 114.5 297 119 L 300 119 L 300 126.5 L 298 125.5 L 296 121.5 L 297 119.5 L 293 106.5 L 293 104.5 L 288 91 Q 285 92.3 286 88.5 L 285 85 L 283 85 L 283 80 Q 280.3 81.1 281 78.5 L 275 68.5 L 278 68 Q 279.3 64.7 274.5 66 L 273 66.5 L 271 63.5 L 259 47 L 252 43 Q 253.1 40.3 250.5 41 L 248 36.5 Q 251.7 34.8 248.5 33 L 246 34.5 L 245.5 37 Q 242.8 31.6 240 33.5 L 238.5 30 L 225 22.5 L 223 19.5 L 219.5 18 L 217.5 19 L 216 16 L 213 14.5 L 210.5 9 L 208 10 L 209 14 L 202 11.5 L 204 11 Q 205.3 6.9 202 8 L 202 10 L 196 10 Q 197.1 7.3 194.5 8 Q 193.3 10.3 192 7.5 L 195 7 Q 196.5 3.3 193.5 4 L 187 3 L 187 5 L 185 5 Q 186.1 7.7 183.5 7 L 179 6 L 179.5 3 Q 181 6.5 182.5 4 L 184 3.5 Q 182.3 1.3 177.5 2 L 175.5 3 L 170 2 L 169.5 4 L 169 2 Q 164.8 2.1 165.5 0 Z M 196 5 Q 195 9 198 8 Q 199 4 196 5 Z " /><path fill="rgb(0,0,0)" stroke="rgb(0,0,0)" stroke-width="1" opacity="0" d="M 299.5 132 L 300 136.5 L 299 136.5 L 298 133.5 L 299.5 132 Z " /><path fill="rgb(0,0,0)" stroke="rgb(0,0,0)" stroke-width="1" opacity="0" d="M 299.5 163 L 300 300 L 169 299.5 L 173.5 298 L 178 299 Q 176.1 293.4 181 295 Q 179.9 297.7 182.5 297 L 186.5 298 L 192 297 L 191 292 L 195 291 Q 193.9 294.3 198 293 Q 197 289.2 199.5 288 L 201.5 287 L 203.5 291 L 205 288.5 L 204 286.5 L 206.5 285 L 213 287 L 214.5 283 L 219.5 281 L 221.5 282 L 230.5 276 L 237 277 L 237 273 L 238.5 273 L 238.5 275 L 243 273 L 244.5 269 Q 246.8 269.8 246 267.5 L 251 264 L 252.5 261 L 256 258.5 L 257 256.5 L 256.5 255 L 262 252.5 L 268.5 243 L 271 241.5 L 271 239 Q 273.7 240.1 273 237.5 Q 275.8 236.4 275 233 Q 277.7 234.1 277 231.5 L 278.5 229 L 280 232 L 283 230.5 L 285 226 Q 288.7 227.5 288 224.5 Q 286.8 221.3 283 222 Q 281.9 219.3 284.5 220 L 286.5 221 L 288 217 L 291 215.5 L 290 212 L 287 211.5 L 289 211 L 291 200 Q 293.7 201.1 293 198.5 L 292 194.5 L 293 189.5 L 296 186.5 L 298 176.5 L 297 174.5 Q 299.8 170.3 299.5 163 Z " /><path fill="rgb(0,0,0)" stroke="rgb(0,0,0)" stroke-width="1" opacity="0" d="M 0.5 165 L 2 168 Q -1.5 169.1 0.5 165 Z " /><path fill="rgb(0,0,0)" stroke="rgb(0,0,0)" stroke-width="1" opacity="0" d="M 0 174 Q 3 172.8 2 176.5 L 4 181.5 L 2.5 182 L 0 181.5 L 0 174 Z " /><path fill="rgb(0,0,0)" stroke="rgb(0,0,0)" stroke-width="1" opacity="0" d="M 2.5 183 Q 5.9 182.1 4 187.5 L 7 191.5 L 6 194.5 L 6 197.5 L 24 231.5 L 21 232 Q 19.8 235 23.5 234 L 25 234.5 L 25.5 232 L 27.5 235 Q 29.8 234.3 29 236.5 L 31.5 240 Q 33.8 239.3 33 241.5 L 34 245 Q 36.7 243.9 36 246.5 L 37 249 L 40 250.5 L 41.5 253 L 44 254.5 L 46 257.5 L 51 260.5 L 52.5 263 L 54 263.5 L 53.5 265 L 57 266.5 Q 56.3 268.8 58.5 268 L 60 267.5 L 61 271 Q 65.1 269.7 64 273 L 67.5 273 Q 69.8 277 75 277 Q 73.5 280.7 76.5 280 L 80.5 282 Q 82.3 279.3 84 283.5 L 83.5 285 Q 82.3 282.8 81 285.5 L 83.5 289 Q 86.8 290.1 86 287.5 L 85 285 L 91.5 286 L 98.5 291 L 101.5 290 L 105.5 292 L 107 291.5 L 107 293 L 112 293 L 112 294.5 L 111 297 L 114 295.5 Q 113.1 292.1 118.5 294 L 120 294.5 L 120.5 293 L 121 296.5 L 119.5 296 Q 113.7 294.3 115 298 L 118 298.5 L 116.5 300 L 0 300 L 0.5 189 L 1 192 L 5 192 L 5 190.5 L 1.5 186 Q -1.1 186.7 0 184 L 2.5 183 Z M 10 215 Q 9 218 13 217 Q 14 214 10 215 Z M 54 267 Q 49 269 53 271 L 56 269 Q 57 266 54 267 Z M 107 293 L 105 295 L 107 296 L 107 293 Z " /><path fill="rgb(0,0,0)" stroke="rgb(0,0,0)" stroke-width="1" opacity="0" d="M 130.5 296 L 131 298 L 134 299.5 L 120.5 300 L 122.5 297 Q 125.8 295.9 125 298.5 L 126.5 298 Q 131 299.3 130.5 296 Z " /><path fill="rgb(0,0,0)" stroke="rgb(0,0,0)" stroke-width="1" opacity="0" d="M 163.5 298 L 164.5 300 L 162 299.5 L 163.5 298 Z " /><path fill="rgb(254,252,251)" stroke="rgb(254,252,251)" stroke-width="1" opacity="0.9568627450980393" d="M 199.5 11 L 200.5 13 Q 197.7 13.7 199.5 11 Z " /><path fill="rgb(254,252,251)" stroke="rgb(254,252,251)" stroke-width="1" opacity="0.9568627450980393" d="M 211.5 11 L 212.5 13 L 211.5 11 Z " /><path fill="rgb(254,252,251)" stroke="rgb(254,252,251)" stroke-width="1" opacity="0.9568627450980393" d="M 207.5 16 L 211 17.5 L 209.5 18 L 207.5 16 Z " /><path fill="rgb(254,252,251)" stroke="rgb(254,252,251)" stroke-width="1" opacity="0.9568627450980393" d="M 238.5 30 L 239.5 32 L 238.5 30 Z " /><path fill="rgb(254,252,251)" stroke="rgb(254,252,251)" stroke-width="1" opacity="0.9568627450980393" d="M 54.5 31 L 53.5 33 L 54.5 31 Z " /><path fill="rgb(254,252,251)" stroke="rgb(254,252,251)" stroke-width="1" opacity="0.9568627450980393" d="M 56.5 34 L 55.5 36 L 56.5 34 Z " /><path fill="rgb(254,252,251)" stroke="rgb(254,252,251)" stroke-width="1" opacity="0.9568627450980393" d="M 261.5 51 L 262.5 53 L 261.5 51 Z " /><path fill="rgb(254,252,251)" stroke="rgb(254,252,251)" stroke-width="1" opacity="0.9568627450980393" d="M 264.5 56 L 265.5 58 L 264.5 56 Z " /><path fill="rgb(254,252,251)" stroke="rgb(254,252,251)" stroke-width="1" opacity="0.9568627450980393" d="M 2.5 111 L 3.5 113 L 2.5 111 Z " /><path fill="rgb(254,252,251)" stroke="rgb(254,252,251)" stroke-width="1" opacity="0.9568627450980393" d="M 219.5 115 L 230.5 116 Q 238.9 119.1 244 125.5 L 249 136.5 L 249 146.5 Q 246.6 156.6 239.5 162 L 230.5 167 L 221.5 168 L 210.5 165 L 201 156.5 L 198 151.5 L 196 141.5 L 199 129.5 L 208.5 119 L 219.5 115 Z M 218 125 L 214 127 Q 208 131 206 138 L 206 146 L 209 152 L 218 158 Q 227 160 232 156 L 239 147 L 239 137 L 235 129 L 228 125 L 218 125 Z " /><path fill="rgb(254,252,251)" stroke="rgb(254,252,251)" stroke-width="1" opacity="0.9568627450980393" d="M 66 117 L 88 117 L 88 168.5 Q 86 178.5 78.5 183 L 74.5 185 L 67.5 186 L 62.5 185 L 54 179.5 L 56.5 176 L 61.5 174 L 68.5 177 L 72.5 176 L 77 171.5 L 78 169.5 L 78 128.5 L 79 127.5 L 77.5 126 L 66 126 L 66 117 Z " /><path fill="rgb(254,252,251)" stroke="rgb(254,252,251)" stroke-width="1" opacity="0.9568627450980393" d="M 97 117 L 106.5 117 L 107 117.5 L 107 152.5 Q 109.5 159 118.5 159 L 126 154.5 L 128 147.5 L 127 146.5 L 127 117 L 136.5 117 L 137 117.5 L 137 149.5 Q 135.4 160.4 127.5 165 L 115.5 168 Q 105.5 166.5 101 159.5 L 97 148.5 L 97 117 Z " /><path fill="rgb(254,252,251)" stroke="rgb(254,252,251)" stroke-width="1" opacity="0.9568627450980393" d="M 148 117 L 157.5 117 L 159 118.5 L 179.5 149 L 180 117 L 188.5 117 L 189 117.5 L 189 167 L 180.5 167 L 179 165.5 L 158.5 135 L 158 167 L 149.5 167 L 148 165.5 L 148 117 Z " /><path fill="rgb(254,252,251)" stroke="rgb(254,252,251)" stroke-width="1" opacity="0.9568627450980393" d="M 297.5 118 L 296.5 120 L 297.5 118 Z " /><path fill="rgb(254,252,251)" stroke="rgb(254,252,251)" stroke-width="1" opacity="0.9568627450980393" d="M 299.5 128 L 300 129.5 L 297.5 131 L 299.5 128 Z " /><path fill="rgb(254,252,251)" stroke="rgb(254,252,251)" stroke-width="1" opacity="0.9568627450980393" d="M 1.5 181 L 2.5 183 L 1.5 181 Z " /><path fill="rgb(254,252,251)" stroke="rgb(254,252,251)" stroke-width="1" opacity="0.9568627450980393" d="M 30.5 238 L 31.5 240 L 30.5 238 Z " /><path fill="rgb(254,252,251)" stroke="rgb(254,252,251)" stroke-width="1" opacity="0.9568627450980393" d="M 270.5 241 L 269.5 243 L 270.5 241 Z " /><path fill="rgb(254,252,251)" stroke="rgb(254,252,251)" stroke-width="1" opacity="0.9568627450980393" d="M 235.5 275 Q 237.8 274.3 237 276.5 L 234 276.5 L 235.5 275 Z " /><path fill="rgb(254,252,251)" stroke="rgb(254,252,251)" stroke-width="1" opacity="0.9568627450980393" d="M 83.5 280 L 82.5 282 L 83.5 280 Z " /><path fill="rgb(254,252,251)" stroke="rgb(254,252,251)" stroke-width="1" opacity="0.9568627450980393" d="M 89.5 282 L 92 283.5 L 89 284 L 89.5 282 Z " /><path fill="rgb(254,252,251)" stroke="rgb(254,252,251)" stroke-width="1" opacity="0.9568627450980393" d="M 82.5 284 L 81.5 286 L 82.5 284 Z " /><path fill="rgb(254,252,251)" stroke="rgb(254,252,251)" stroke-width="1" opacity="0.9568627450980393" d="M 112.5 290 L 113 292 L 111 291.5 L 112.5 290 Z " /><path fill="rgb(254,252,251)" stroke="rgb(254,252,251)" stroke-width="1" opacity="0.9568627450980393" d="M 107.5 292 L 106.5 296 Q 103 294 107.5 292 Z " /><path fill="rgb(254,252,251)" stroke="rgb(254,252,251)" stroke-width="1" opacity="0.9568627450980393" d="M 189 292 L 191 292.5 L 189 293.5 L 189 292 Z " /><path fill="rgb(254,252,251)" stroke="rgb(254,252,251)" stroke-width="1" opacity="0.9568627450980393" d="M 185.5 293 L 186 295 L 182 294.5 L 185.5 293 Z " /><path fill="rgb(254,252,251)" stroke="rgb(254,252,251)" stroke-width="1" opacity="0.9568627450980393" d="M 116.5 296 L 115.5 298 L 116.5 296 Z " /><path fill="rgb(254,252,251)" stroke="rgb(254,252,251)" stroke-width="1" opacity="0.9568627450980393" d="M 160.5 298 L 163 298.5 Q 160.9 301.8 160.5 298 Z " /></svg>