<svg width="235" height="65" version="1.1" xmlns="http://www.w3.org/2000/svg" desc="Created with imagetracer.js version 1.2.6" ><path fill="rgb(0,0,0)" stroke="rgb(0,0,0)" stroke-width="1" opacity="0" d="M 0 0 L 122.5 0 L 123 1.5 L 115.5 16 L 109 19.5 L 112 25.5 L 109.5 31 L 109 23 L 106 23 L 106 29 L 100.5 29 Q 97.3 30.8 97 35.5 L 101.5 42 Q 104.8 40.9 104 43.5 L 94 65 L 0 65 L 0 0 Z M 42 23 L 42 41 L 47 42 Q 48 38 45 39 L 45 24 L 42 23 Z M 27 29 Q 22 31 23 39 Q 24 43 32 42 L 33 39 Q 28 40 26 37 L 27 34 L 27 32 L 32 32 Q 34 27 27 29 Z M 59 29 L 55 35 L 57 41 L 60 42 L 66 41 L 68 37 L 67 32 Q 66 28 59 29 Z M 77 29 Q 76 37 78 41 Q 80 43 87 42 L 88 41 L 88 29 L 84 29 L 84 39 L 81 39 L 81 29 L 77 29 Z " /><path fill="rgb(0,0,0)" stroke="rgb(0,0,0)" stroke-width="1" opacity="0" d="M 149.5 0 L 235 0 L 235 65 L 120.5 65 L 120 63.5 L 126 49 Q 133.5 51.5 131 44 L 129 43.5 L 130 41 Q 132.4 42.8 138.5 42 Q 141.5 41.5 141 37.5 L 140 35 L 135 32.5 L 140 32 Q 141.8 27.5 136.5 29 L 137 27.5 L 149.5 0 Z M 190 23 L 188 25 L 188 40 Q 189 43 193 42 Q 194 39 191 38 L 192 37 L 192 25 L 190 23 Z M 153 29 L 149 35 L 151 41 L 159 42 Q 161 37 155 39 Q 152 38 153 34 Q 154 31 159 32 L 159 29 L 153 29 Z M 169 29 L 169 32 Q 174 31 175 34 L 170 34 Q 167 36 168 41 Q 170 43 177 42 L 178 41 L 178 32 Q 176 27 169 29 Z M 206 29 L 203 30 L 202 33 Q 201 41 206 42 L 212 42 L 212 39 Q 207 40 206 38 L 207 36 L 213 36 L 213 32 Q 212 28 206 29 Z " /><path fill="rgb(0,0,0)" stroke="rgb(0,0,0)" stroke-width="1" opacity="0" d="M 60.5 32 L 64 33.5 Q 65 38 62.5 39 L 59 37.5 Q 58 33 60.5 32 Z " /><path fill="rgb(0,0,0)" stroke="rgb(0,0,0)" stroke-width="1" opacity="0" d="M 102.5 32 L 106 32 L 106 39 Q 102.2 40 101 37.5 Q 100 33 102.5 32 Z " /><path fill="rgb(0,0,0)" stroke="rgb(0,0,0)" stroke-width="1" opacity="0" d="M 206.5 32 L 210 33.5 L 205.5 34 L 206.5 32 Z " /><path fill="rgb(0,0,0)" stroke="rgb(0,0,0)" stroke-width="1" opacity="0" d="M 132 36 L 137 37 Q 138.4 41 131.5 39 L 132 37.5 L 132 36 Z " /><path fill="rgb(0,0,0)" stroke="rgb(0,0,0)" stroke-width="1" opacity="0" d="M 172.5 36 L 175 37.5 L 175 39 L 171 39 L 172.5 36 Z " /><path fill="rgb(128,186,231)" stroke="rgb(128,186,231)" stroke-width="1" opacity="0.9529411764705882" d="M 123 0 L 149 0.5 L 135.5 29 L 132 30 L 133 35.5 L 129 43.5 L 131 44 L 131 49 L 126 49 L 126 51.5 L 120 65 L 94.5 65 L 94 63.5 L 104 42 L 109 41 Q 107.3 30.6 112 25.5 L 109 19.5 L 117 14.5 L 123 0 Z " /><path fill="rgb(0,1,1)" stroke="rgb(0,1,1)" stroke-width="1" opacity="0.9137254901960784" d="M 42 24 L 45 24.5 L 45 38.5 L 46 41 L 42 39.5 L 42 24 Z " /><path fill="rgb(0,1,1)" stroke="rgb(0,1,1)" stroke-width="1" opacity="0.9137254901960784" d="M 106 24 L 109 24.5 L 109 41 L 103.5 42 L 99 39.5 L 98 32.5 Q 99.6 27.7 106 29 L 106 24 Z M 103 31 L 101 33 Q 100 38 103 39 L 106 39 L 106 33 L 103 31 Z " /><path fill="rgb(0,1,1)" stroke="rgb(0,1,1)" stroke-width="1" opacity="0.9137254901960784" d="M 189 24 L 191 24.5 L 191 38.5 Q 193.8 37.9 193 41 L 189 40.5 L 189 24 Z " /><path fill="rgb(0,1,1)" stroke="rgb(0,1,1)" stroke-width="1" opacity="0.9137254901960784" d="M 27.5 29 Q 33.4 27.3 32 31 Q 27.3 30 26 33.5 Q 25 38 27.5 39 Q 33.4 37.3 32 41 L 28.5 42 L 24 39.5 L 23 33.5 L 25.5 30 L 27.5 29 Z " /><path fill="rgb(0,1,1)" stroke="rgb(0,1,1)" stroke-width="1" opacity="0.9137254901960784" d="M 59.5 29 Q 66 28 67 32.5 Q 68 39 64.5 41 L 61.5 42 L 57 39.5 L 56 32.5 L 59.5 29 Z M 61 31 L 58 35 L 59 38 L 59 39 L 64 39 L 65 36 L 64 33 L 61 31 Z " /><path fill="rgb(0,1,1)" stroke="rgb(0,1,1)" stroke-width="1" opacity="0.9137254901960784" d="M 78 29 L 80 29.5 L 80 37.5 Q 81.2 40 85 39 L 85 29.5 L 87 29 L 87 40.5 L 84.5 41 L 82.5 42 L 78 39.5 L 78 29 Z " /><path fill="rgb(0,1,1)" stroke="rgb(0,1,1)" stroke-width="1" opacity="0.9137254901960784" d="M 134.5 29 Q 139 28 140 30.5 Q 135.4 29.9 134 32.5 L 140 36.5 Q 140.8 40.3 138.5 41 L 134.5 42 L 132 41 Q 130.8 38 134.5 39 L 136.5 39 Q 139.1 39.7 138 37 L 132 35 L 132 30 L 133.5 30 L 134.5 29 Z " /><path fill="rgb(0,1,1)" stroke="rgb(0,1,1)" stroke-width="1" opacity="0.9137254901960784" d="M 153.5 29 Q 158 28 159 30.5 L 153 32 L 152 35.5 L 154.5 39 Q 160.3 37.3 159 41 L 155.5 42 L 150 38.5 Q 148.5 30.5 153.5 29 Z " /><path fill="rgb(0,1,1)" stroke="rgb(0,1,1)" stroke-width="1" opacity="0.9137254901960784" d="M 170.5 29 L 177 30 L 177 41 L 169.5 41 Q 167.3 40.3 168 36.5 Q 169.5 32.8 175 34 L 173.5 31 L 169 30.5 L 170.5 29 Z M 171 36 L 173 40 L 175 39 Q 176 34 171 36 Z " /><path fill="rgb(0,1,1)" stroke="rgb(0,1,1)" stroke-width="1" opacity="0.9137254901960784" d="M 206.5 29 Q 212.3 28.3 213 32.5 L 213 36 L 205.5 36 L 205 37.5 Q 206.6 40.5 212 39 Q 213.3 42 209.5 41 L 207.5 42 L 203 39.5 L 202 33.5 L 204.5 30 L 206.5 29 Z M 207 31 L 205 34 L 210 34 L 210 33 L 207 31 Z " /><path fill="rgb(0,0,0)" stroke="rgb(0,0,0)" stroke-width="1" opacity="0.3843137254901961" d="M 42.5 23 L 45 23.5 L 42.5 24 L 42.5 23 Z " /><path fill="rgb(0,0,0)" stroke="rgb(0,0,0)" stroke-width="1" opacity="0.3843137254901961" d="M 106.5 23 L 109 23.5 L 106.5 24 L 106.5 23 Z " /><path fill="rgb(0,0,0)" stroke="rgb(0,0,0)" stroke-width="1" opacity="0.3843137254901961" d="M 189.5 23 L 192 24.5 L 191.5 37 L 191 24 L 189 24.5 L 189 39.5 L 188 39.5 L 188 24.5 L 189.5 23 Z " /><path fill="rgb(0,0,0)" stroke="rgb(0,0,0)" stroke-width="1" opacity="0.3843137254901961" d="M 58.5 29 L 56.5 32 L 58.5 29 Z " /><path fill="rgb(0,0,0)" stroke="rgb(0,0,0)" stroke-width="1" opacity="0.3843137254901961" d="M 64.5 29 L 66.5 32 L 64.5 29 Z " /><path fill="rgb(0,0,0)" stroke="rgb(0,0,0)" stroke-width="1" opacity="0.3843137254901961" d="M 77.5 29 L 78 38.5 L 77 38.5 L 77.5 29 Z " /><path fill="rgb(0,0,0)" stroke="rgb(0,0,0)" stroke-width="1" opacity="0.3843137254901961" d="M 80.5 29 L 81 37.5 L 80 37.5 L 80.5 29 Z " /><path fill="rgb(0,0,0)" stroke="rgb(0,0,0)" stroke-width="1" opacity="0.3843137254901961" d="M 84.5 29 L 85 38.5 L 84 38.5 L 84.5 29 Z " /><path fill="rgb(0,0,0)" stroke="rgb(0,0,0)" stroke-width="1" opacity="0.3843137254901961" d="M 87.5 29 L 88 40.5 L 84.5 42 L 84.5 41 L 87 40.5 L 87.5 29 Z " /><path fill="rgb(0,0,0)" stroke="rgb(0,0,0)" stroke-width="1" opacity="0.3843137254901961" d="M 100.5 29 L 98.5 32 L 100.5 29 Z " /><path fill="rgb(0,0,0)" stroke="rgb(0,0,0)" stroke-width="1" opacity="0.3843137254901961" d="M 152.5 29 L 150.5 32 L 152.5 29 Z " /><path fill="rgb(0,0,0)" stroke="rgb(0,0,0)" stroke-width="1" opacity="0.3843137254901961" d="M 210.5 29 L 212.5 32 L 210.5 29 Z " /><path fill="rgb(0,0,0)" stroke="rgb(0,0,0)" stroke-width="1" opacity="0.3843137254901961" d="M 28.5 31 L 32 31.5 L 28.5 32 L 28.5 31 Z " /><path fill="rgb(0,0,0)" stroke="rgb(0,0,0)" stroke-width="1" opacity="0.3843137254901961" d="M 60.5 31 L 64 32.5 L 62.5 32 L 59.5 33 L 60.5 31 Z " /><path fill="rgb(0,0,0)" stroke="rgb(0,0,0)" stroke-width="1" opacity="0.3843137254901961" d="M 102.5 31 L 105 31.5 L 101.5 33 L 102.5 31 Z " /><path fill="rgb(0,0,0)" stroke="rgb(0,0,0)" stroke-width="1" opacity="0.3843137254901961" d="M 135.5 31 L 140 31.5 L 135 32.5 L 135.5 34 Q 132.5 32.5 135.5 31 Z " /><path fill="rgb(0,0,0)" stroke="rgb(0,0,0)" stroke-width="1" opacity="0.3843137254901961" d="M 155.5 31 L 159 31.5 L 155.5 32 L 155.5 31 Z " /><path fill="rgb(0,0,0)" stroke="rgb(0,0,0)" stroke-width="1" opacity="0.3843137254901961" d="M 169.5 31 Q 174 30 175 32.5 L 173.5 32 Q 168.5 33 169.5 31 Z " /><path fill="rgb(0,0,0)" stroke="rgb(0,0,0)" stroke-width="1" opacity="0.3843137254901961" d="M 177.5 31 L 178 40.5 Q 176.5 43.5 170.5 42 L 170.5 41 L 177 41 L 177.5 31 Z " /><path fill="rgb(0,0,0)" stroke="rgb(0,0,0)" stroke-width="1" opacity="0.3843137254901961" d="M 206.5 31 L 210 32.5 L 208.5 32 L 205.5 33 L 206.5 31 Z " /><path fill="rgb(0,0,0)" stroke="rgb(0,0,0)" stroke-width="1" opacity="0.3843137254901961" d="M 55.5 34 L 56 36.5 L 55 36.5 L 55.5 34 Z " /><path fill="rgb(0,0,0)" stroke="rgb(0,0,0)" stroke-width="1" opacity="0.3843137254901961" d="M 58.5 34 L 59 36.5 L 58 36.5 L 58.5 34 Z " /><path fill="rgb(0,0,0)" stroke="rgb(0,0,0)" stroke-width="1" opacity="0.3843137254901961" d="M 67.5 34 L 68 36.5 L 67 36.5 L 67.5 34 Z " /><path fill="rgb(0,0,0)" stroke="rgb(0,0,0)" stroke-width="1" opacity="0.3843137254901961" d="M 149.5 34 L 150 36.5 L 149 36.5 L 149.5 34 Z " /><path fill="rgb(0,0,0)" stroke="rgb(0,0,0)" stroke-width="1" opacity="0.3843137254901961" d="M 169.5 34 L 168.5 36 L 169.5 34 Z " /><path fill="rgb(0,0,0)" stroke="rgb(0,0,0)" stroke-width="1" opacity="0.3843137254901961" d="M 205.5 36 L 207 38.5 L 205 37.5 L 205.5 36 Z " /><path fill="rgb(0,0,0)" stroke="rgb(0,0,0)" stroke-width="1" opacity="0.3843137254901961" d="M 26.5 37 L 27.5 39 L 26.5 37 Z " /><path fill="rgb(0,0,0)" stroke="rgb(0,0,0)" stroke-width="1" opacity="0.3843137254901961" d="M 140.5 37 L 141 39.5 Q 140.5 42.5 136.5 42 L 136.5 41 L 140 39.5 L 140.5 37 Z " /><path fill="rgb(0,0,0)" stroke="rgb(0,0,0)" stroke-width="1" opacity="0.3843137254901961" d="M 32.5 39 L 33 40.5 L 30.5 42 L 30.5 41 Q 33 41.7 32.5 39 Z " /><path fill="rgb(0,0,0)" stroke="rgb(0,0,0)" stroke-width="1" opacity="0.3843137254901961" d="M 46.5 39 L 47 42 L 44 41.5 L 46 41 L 46.5 39 Z " /><path fill="rgb(0,0,0)" stroke="rgb(0,0,0)" stroke-width="1" opacity="0.3843137254901961" d="M 131.5 39 L 132 41 L 134 41.5 L 132.5 42 L 131.5 39 Z " /><path fill="rgb(0,0,0)" stroke="rgb(0,0,0)" stroke-width="1" opacity="0.3843137254901961" d="M 190.5 41 L 193 41.5 L 190.5 42 L 190.5 41 Z " /><path fill="rgb(0,0,0)" stroke="rgb(0,0,0)" stroke-width="1" opacity="0.3843137254901961" d="M 209.5 41 L 212 41.5 L 209.5 42 L 209.5 41 Z " /></svg>