<svg version="1.1" id="Layer_1" xmlns="http://www.w3.org/2000/svg" xmlns:xlink="http://www.w3.org/1999/xlink" x="0px" y="0px"
	 width="100%" viewBox="0 0 1024 1024" enable-background="new 0 0 1024 1024" xml:space="preserve">
<path fill="#045C32" opacity="1.000000" stroke="none" 
	d="
M57.242428,531.795044 
	C70.206406,566.980957 92.838776,593.121338 125.897690,610.273804 
	C133.004944,613.961365 140.596909,614.368103 148.113922,615.341309 
	C168.586578,617.991699 189.155518,619.787903 209.817734,619.542847 
	C219.436646,619.428772 229.044983,618.424072 238.654419,617.470215 
	C227.298798,617.470459 215.962677,617.360352 204.663239,616.275085 
	C175.797958,613.502686 147.240311,609.066223 119.426163,600.570251 
	C117.369774,599.942139 115.623466,599.127686 115.272606,596.823120 
	C114.908356,594.430542 116.652618,593.158142 118.327522,592.082275 
	C157.968002,566.620361 200.227432,556.043945 246.885406,568.814270 
	C265.853119,574.005798 283.997070,581.725342 303.119904,586.383484 
	C313.660339,588.950989 324.124756,589.628479 334.643036,586.485168 
	C336.086426,586.053772 337.688782,585.378479 338.760712,586.915283 
	C340.051514,588.765930 338.757080,590.404175 337.841583,591.971069 
	C325.808319,612.566711 310.195618,629.934021 290.427551,643.313049 
	C259.296478,664.382568 225.151443,672.967224 187.839767,666.334351 
	C164.968613,662.268494 144.968445,652.118835 128.298584,635.752808 
	C125.898453,633.396423 123.234749,631.559875 120.247894,629.957642 
	C70.538246,603.292969 41.220207,561.958252 35.173748,505.951111 
	C26.756670,427.985443 78.259964,356.573181 155.104355,340.485748 
	C212.494446,328.471130 261.776031,345.625763 301.197083,389.304108 
	C322.063080,412.423492 332.621857,440.362579 336.992615,470.859344 
	C337.321320,473.152985 337.182678,475.517242 337.204193,477.849213 
	C337.211517,478.647858 337.043854,479.448120 336.552795,480.292175 
	C333.978607,474.839600 334.200378,468.815826 333.067719,463.104553 
	C324.149994,418.137878 299.500549,384.646606 259.538818,362.545654 
	C235.489426,349.245056 209.369614,343.191223 182.049713,345.526581 
	C132.420319,349.769043 94.091827,373.208221 68.449135,416.251953 
	C52.453995,443.101379 47.477165,472.467010 50.517826,503.289612 
	C51.465675,512.897766 54.077934,522.239868 57.242428,531.795044 
z"/>
<path fill="#045C32" opacity="1.000000" stroke="none" 
	d="
M276.539429,547.519165 
	C270.999908,554.519165 264.565948,560.021973 257.691101,565.075134 
	C255.078094,566.995789 252.683701,567.384277 250.106598,565.130798 
	C250.155289,562.763855 252.186203,562.184692 253.550201,561.166443 
	C284.304962,538.206421 298.523224,500.760864 288.204071,463.698669 
	C277.816071,426.389160 252.624664,403.628510 214.273026,396.301270 
	C199.091019,393.400696 184.114410,394.970062 169.517426,400.047180 
	C168.580505,400.373077 167.627487,400.715576 166.774445,401.209961 
	C157.546890,406.557190 131.439499,429.348480 124.112305,438.654236 
	C134.837433,429.277466 146.201355,420.734955 158.053604,412.868744 
	C164.153229,408.820526 170.510712,405.155609 176.816055,401.426270 
	C178.450363,400.459656 180.312408,398.857513 182.266373,400.624512 
	C184.035950,402.224792 183.106155,404.278748 182.693954,406.237762 
	C175.162109,442.032867 154.150330,466.737579 120.970955,481.516449 
	C113.973488,484.633301 107.104385,488.032043 100.542542,492.018860 
	C94.770599,495.525787 89.698746,499.738617 86.232704,505.662109 
	C85.579063,506.779175 85.086067,508.258301 83.466728,508.232513 
	C81.697609,508.204376 81.517952,506.559021 81.167542,505.366852 
	C67.825714,459.976074 89.857353,403.515717 140.977921,390.388428 
	C142.747177,389.934113 144.574982,389.330109 146.360535,389.376099 
	C162.008331,389.779449 176.446060,382.797943 192.073730,382.387787 
	C218.766663,381.687225 242.378723,389.309082 262.802521,406.294067 
	C305.667725,441.941803 311.886078,505.780365 276.539429,547.519165 
z"/>
<path fill="#045C32" opacity="1.000000" stroke="none" 
	d="
M748.776367,488.000000 
	C748.774597,451.534760 748.768005,415.569550 748.775818,379.604309 
	C748.777344,372.722504 748.803589,372.703979 755.703369,372.696075 
	C768.524292,372.681366 781.345337,372.649597 794.166077,372.697815 
	C829.391907,372.830322 855.303589,393.410461 863.599243,427.796265 
	C871.376160,460.032349 859.075684,493.225281 833.094116,509.827484 
	C822.321960,516.710815 810.458923,520.206970 797.674011,520.296814 
	C783.188721,520.398621 768.700745,520.213928 754.217163,520.404236 
	C750.118042,520.458069 748.612427,519.119263 748.717468,514.972656 
	C748.940979,506.153625 748.779968,497.324799 748.776367,488.000000 
M785.472290,516.940796 
	C786.804932,516.909851 788.137573,516.879883 789.470215,516.847778 
	C813.079102,516.278198 830.966736,506.059479 842.463135,485.239655 
	C851.885010,468.176941 853.927551,449.804718 850.524414,430.973450 
	C845.880493,405.275787 830.406860,385.060486 804.337463,378.864807 
	C793.727600,376.343262 782.954651,376.177734 772.086853,376.885834 
	C763.063110,377.473877 761.875671,378.343933 761.636292,387.468536 
	C761.610291,388.463379 761.783325,389.462250 761.780640,390.459045 
	C761.710693,416.106049 761.628418,441.753021 761.551025,467.399994 
	C761.509827,481.062378 761.328064,494.726593 761.499023,508.386353 
	C761.581055,514.937927 763.818909,516.756165 770.484924,516.839417 
	C775.150085,516.897705 779.815796,516.908875 785.472290,516.940796 
z"/>
<path fill="#045C32" opacity="1.000000" stroke="none" 
	d="
M430.930573,369.752533 
	C442.587006,370.383453 453.645081,371.579834 464.178650,375.746185 
	C469.033569,377.666473 473.556671,380.100006 477.281982,383.792786 
	C482.607635,389.071869 484.074371,398.040131 480.505554,403.015411 
	C479.626190,404.241302 478.642029,405.466827 476.963501,405.497772 
	C475.487000,405.525024 475.153900,404.268372 474.759888,403.171448 
	C467.863434,383.971527 452.125580,376.971100 433.793121,374.516724 
	C422.544922,373.010803 411.123962,373.604248 400.467194,378.538025 
	C388.004333,384.307983 381.201904,393.754852 380.889160,407.833069 
	C380.697571,416.458344 384.681152,422.070953 391.975403,425.748505 
	C401.173279,430.385834 411.232819,431.932434 421.238586,433.710754 
	C434.165375,436.008209 447.205383,437.899658 459.588745,442.536896 
	C469.474335,446.238861 478.267365,451.442993 483.322723,461.267426 
	C493.405060,480.861145 485.562469,505.141907 464.547821,515.014832 
	C436.906769,528.000854 408.997833,526.624939 381.914825,512.589233 
	C374.032806,508.504395 368.969971,501.728607 367.100708,492.851685 
	C366.124542,488.215912 366.943542,483.864807 369.621979,479.987396 
	C373.211731,474.790894 379.418976,473.971252 384.111298,477.919098 
	C377.599243,487.168365 378.097778,493.968109 386.073639,502.526398 
	C394.364838,511.423004 404.960724,516.064636 416.658356,518.199646 
	C433.390320,521.253418 449.277893,518.835449 463.136688,508.531769 
	C472.996277,501.201447 477.011353,490.726898 475.385376,478.597412 
	C473.805359,466.810455 466.149078,459.807251 455.403564,455.816925 
	C448.520752,453.261017 441.401917,451.524414 434.171509,450.338226 
	C421.537384,448.265594 408.803925,446.681885 396.505493,442.958893 
	C384.749847,439.400208 374.569702,433.794586 370.713165,420.981812 
	C365.752502,404.500488 371.621735,389.011536 386.313629,379.995148 
	C399.852386,371.686432 414.899933,369.569305 430.930573,369.752533 
z"/>
<path fill="#045C32" opacity="1.000000" stroke="none" 
	d="
M894.740601,415.082672 
	C897.737244,422.104034 903.338318,425.436157 909.765320,427.855042 
	C922.973877,432.826233 937.074524,433.632172 950.680786,436.734467 
	C958.618164,438.544312 966.589539,440.143646 974.230591,443.181213 
	C989.231445,449.144562 999.156555,458.991669 1000.251038,475.861359 
	C1001.414734,493.798920 993.630615,507.414062 977.790344,514.875427 
	C949.805237,528.057495 921.603210,526.728088 894.310974,512.149963 
	C886.288269,507.864624 881.497986,500.672943 880.050964,491.498627 
	C878.739868,483.185608 883.943176,475.547913 891.069885,475.475281 
	C893.215088,475.453369 895.450989,475.498169 896.880371,477.578918 
	C890.679688,490.050354 891.800964,496.552063 902.200256,505.554016 
	C921.616943,522.361877 954.214233,524.029541 974.893555,509.613892 
	C986.369812,501.613800 991.301147,488.113770 987.683716,474.921539 
	C984.376160,462.859375 974.961304,457.656372 964.036133,454.223267 
	C952.389648,450.563507 940.264343,449.383911 928.322632,447.238647 
	C919.151611,445.591125 910.083130,443.572418 901.403259,439.961945 
	C876.699585,429.686218 877.844482,397.314392 893.660645,384.208527 
	C901.453735,377.750946 910.367004,373.767761 920.095215,371.870056 
	C939.406738,368.102905 958.525757,369.019196 977.175598,375.754944 
	C981.757202,377.409637 985.973145,379.760681 989.582092,383.073486 
	C995.058228,388.100220 997.064941,396.084106 994.291321,401.684418 
	C993.388672,403.506775 992.302734,405.417023 989.999023,405.346588 
	C987.788208,405.278992 987.969055,403.043457 987.415894,401.575073 
	C984.089905,392.745850 978.047607,386.212677 969.882202,381.807037 
	C951.621887,371.954773 932.659912,371.408630 913.419189,378.555542 
	C900.124573,383.493713 890.721497,399.379303 894.740601,415.082672 
z"/>
<path fill="#045C32" opacity="1.000000" stroke="none" 
	d="
M674.999878,520.336060 
	C660.508179,520.335022 646.514587,520.207214 632.525818,520.409546 
	C628.318237,520.470398 626.656433,519.377686 626.670349,514.836609 
	C626.809570,469.363983 626.817688,423.890472 626.652832,378.417999 
	C626.635193,373.548584 628.558167,372.606140 632.863892,372.624481 
	C662.845581,372.752350 692.828125,372.684784 722.810364,372.692505 
	C729.297974,372.694183 729.335510,372.717804 729.337097,379.384308 
	C729.337585,381.506470 729.822449,383.697052 728.790283,385.853394 
	C726.062622,387.001953 723.584900,385.473877 721.102478,384.922760 
	C696.961670,379.563232 672.483521,377.391602 647.815857,377.026215 
	C641.721436,376.935944 639.565918,378.772491 639.469177,385.015564 
	C639.226624,400.668854 639.258972,416.330048 639.457703,431.984558 
	C639.524902,437.279694 642.031982,439.059540 648.178650,439.068298 
	C668.166809,439.096802 688.154907,439.071381 708.143066,439.066437 
	C714.517700,439.064880 717.967712,445.028870 714.952942,450.770477 
	C714.022217,452.543091 712.512817,452.301575 711.064697,451.982208 
	C695.123474,448.466949 678.952271,446.499634 662.738586,444.868286 
	C657.780945,444.369507 652.777405,444.179413 647.792419,444.137115 
	C641.384033,444.082733 639.460083,445.997223 639.406311,452.495148 
	C639.300110,465.320099 639.349243,478.146362 639.341125,490.972076 
	C639.337708,496.302246 639.246338,501.635132 639.383545,506.961945 
	C639.575867,514.426514 641.277039,516.029846 648.666870,515.992065 
	C674.210815,515.861389 699.479187,513.244446 724.403992,507.547729 
	C725.532043,507.289917 726.674194,507.081085 727.819702,506.920258 
	C728.110291,506.879456 728.439209,507.111237 728.962524,507.290344 
	C729.945618,510.603699 729.308167,514.094299 729.268188,517.529602 
	C729.229553,520.843567 726.528259,520.306091 724.470764,520.311218 
	C708.147278,520.352051 691.823547,520.335083 674.999878,520.336060 
z"/>
<path fill="#045C32" opacity="1.000000" stroke="none" 
	d="
M517.325073,391.108002 
	C517.318481,404.424927 517.281372,417.257324 517.314148,430.089539 
	C517.332397,437.225769 519.641052,439.251617 526.613464,439.208252 
	C546.943726,439.081757 567.274902,439.094696 587.605713,439.101837 
	C589.531738,439.102509 592.167419,438.665649 592.689209,441.144745 
	C593.399292,444.518066 593.948608,448.204865 592.203186,451.393616 
	C591.274536,453.090118 589.209106,451.960419 587.605713,451.662750 
	C567.969055,448.017029 548.272400,444.817108 528.258789,444.177399 
	C518.753845,443.873596 517.404602,445.184418 517.382568,454.484772 
	C517.341858,471.650024 517.294006,488.815369 517.311523,505.980621 
	C517.320435,514.731445 518.751648,516.075012 527.546265,515.986816 
	C552.086365,515.740784 576.394714,513.408142 600.354126,507.913300 
	C602.271423,507.473572 604.221985,507.179108 606.325256,506.785706 
	C607.995605,510.561859 607.324707,514.215759 607.162537,517.773071 
	C607.027771,520.730103 604.538086,520.300659 602.619019,520.308960 
	C591.953369,520.354797 581.287476,520.337036 570.621643,520.337524 
	C550.623230,520.338501 530.623840,520.234436 510.627075,520.416504 
	C506.217010,520.456665 504.559570,519.345764 504.577118,514.581177 
	C504.743958,469.252014 504.729034,423.921783 504.584747,378.592468 
	C504.570251,374.035706 505.929382,372.550110 510.530640,372.576447 
	C540.693909,372.749268 570.859619,372.796967 601.022095,372.569916 
	C606.212280,372.530853 607.652649,374.208710 607.430481,379.155609 
	C607.081970,386.915222 607.343811,386.893585 599.909668,385.201874 
	C576.118835,379.788055 551.967651,377.523376 527.619141,377.062042 
	C519.012268,376.898987 517.495361,378.429321 517.324036,387.124023 
	C517.301025,388.290039 517.322754,389.456909 517.325073,391.108002 
z"/>
<path fill="#045C32" opacity="1.000000" stroke="none" 
	d="
M718.134949,593.998657 
	C718.158508,598.829468 718.028931,603.169128 718.243408,607.491699 
	C718.518188,613.029114 722.574280,616.665710 728.075745,616.626770 
	C733.676575,616.587158 737.435730,613.022888 737.785828,607.375732 
	C737.868225,606.046936 737.710205,604.696289 737.868286,603.380371 
	C738.320129,599.619873 736.620117,598.150574 732.990051,598.515442 
	C732.166077,598.598267 731.325500,598.535583 730.493225,598.514160 
	C728.524597,598.463440 727.356445,597.537292 727.305237,595.482910 
	C727.259949,593.668213 728.231934,592.766052 729.980957,592.512390 
	C733.964294,591.934692 737.949951,591.972229 741.939697,592.390625 
	C743.941772,592.600647 744.867676,593.863892 744.934082,595.752930 
	C745.132935,601.416443 745.394958,607.131653 743.724182,612.616516 
	C741.764160,619.050781 735.222290,623.167969 727.733215,623.074280 
	C720.108887,622.978882 713.132874,618.532959 711.978577,611.652161 
	C709.934448,599.466980 709.848511,587.064453 711.987427,574.897522 
	C713.334595,567.234192 721.688843,562.857239 730.413696,563.994873 
	C738.915222,565.103394 744.608521,571.217468 744.761047,579.312744 
	C744.804749,581.631348 744.219666,583.205750 741.526306,583.306885 
	C738.938049,583.404114 738.161011,582.033875 737.785522,579.699158 
	C736.658325,572.692200 733.599487,570.036011 727.346497,570.283691 
	C722.129333,570.490356 718.566223,573.714355 718.266663,579.007080 
	C717.994019,583.825073 718.161316,588.667969 718.134949,593.998657 
z"/>
<path fill="#045C32" opacity="1.000000" stroke="none" 
	d="
M656.458313,607.297607 
	C655.128540,601.189453 656.118774,595.532532 657.102600,590.019226 
	C658.600220,581.625854 667.069153,577.411987 675.162109,580.627197 
	C677.036438,581.371765 678.356445,582.029724 680.549377,580.641235 
	C683.523071,578.758484 686.094666,580.512512 686.119873,584.200928 
	C686.208435,597.178955 686.445862,610.171753 685.945984,623.132629 
	C685.587463,632.429871 679.291626,637.947388 669.949585,638.249023 
	C667.847473,638.316956 664.840454,639.334778 664.444519,635.752502 
	C664.042786,632.116699 666.813110,632.036194 669.397827,631.749634 
	C676.504333,630.961914 679.353943,627.277588 678.246399,620.467957 
	C664.942566,624.876770 657.607788,620.575073 656.458313,607.297607 
M677.536743,612.822144 
	C680.122131,606.752380 678.761047,600.394592 678.759216,594.165894 
	C678.757629,588.851685 676.004333,586.163879 671.354187,586.119629 
	C666.614502,586.074524 663.554993,589.072388 663.343628,594.325623 
	C663.170349,598.631348 663.344055,602.949951 663.306030,607.262451 
	C663.276001,610.668152 664.294922,613.716309 667.475281,615.137329 
	C670.826416,616.634705 674.293274,616.509644 677.536743,612.822144 
z"/>
<path fill="#045C32" opacity="1.000000" stroke="none" 
	d="
M887.378845,613.998169 
	C882.935791,623.103333 876.548279,625.066162 866.206482,620.218872 
	C866.206482,624.606323 866.197144,628.656189 866.209778,632.706055 
	C866.218079,635.354309 866.091003,637.921936 862.446838,637.828125 
	C859.245544,637.745667 858.844055,635.542725 858.847900,632.979065 
	C858.871521,617.000671 858.803894,601.021973 858.900085,585.044189 
	C858.928955,580.250061 861.076050,578.746887 865.157166,580.901917 
	C867.080322,581.917358 868.137573,581.270569 869.643372,580.673218 
	C877.424927,577.586731 884.590149,580.782654 887.259277,588.634644 
	C890.072266,596.909607 890.158142,605.263977 887.378845,613.998169 
M881.195923,591.522339 
	C879.805603,587.554260 877.128296,585.592407 872.825806,586.100342 
	C868.649414,586.593445 867.601318,589.764099 866.916138,593.118042 
	C865.840393,598.383240 865.940369,603.661987 866.958740,608.947632 
	C867.701477,612.802795 869.090149,616.335938 873.555054,616.473572 
	C878.303894,616.619751 880.500671,613.273376 881.588379,609.037231 
	C883.027161,603.433411 882.877380,597.857056 881.195923,591.522339 
z"/>
<path fill="#045C32" opacity="1.000000" stroke="none" 
	d="
M381.707153,570.320435 
	C374.246460,570.707153 371.240784,573.579224 371.147980,580.445312 
	C371.030945,589.104004 371.038116,597.767090 371.165466,606.425720 
	C371.257050,612.653748 374.255554,615.968262 379.917419,616.569031 
	C385.069397,617.115723 389.594086,613.821533 390.592712,608.259399 
	C391.101166,605.427307 391.967163,603.942932 395.050415,604.500244 
	C398.469086,605.118103 398.030212,607.406067 397.551361,609.839233 
	C395.948486,617.983826 389.248566,623.246460 380.613434,623.090454 
	C372.158173,622.937744 365.089752,617.718079 364.312775,609.795105 
	C363.241608,598.872192 363.039520,587.813232 364.403198,576.904663 
	C365.440063,568.610657 372.013763,563.820312 380.698273,563.798340 
	C389.584778,563.775879 395.975037,568.830383 397.541718,577.094116 
	C397.957825,579.289001 398.554047,581.584595 395.404449,582.186218 
	C392.682800,582.706116 391.049164,581.837097 390.626953,578.721985 
	C389.970001,573.874756 387.037354,571.004211 381.707153,570.320435 
z"/>
<path fill="#045C32" opacity="1.000000" stroke="none" 
	d="
M789.486694,621.928101 
	C784.019226,619.689758 781.426270,615.771362 780.511047,610.427551 
	C779.430054,604.115723 779.427246,597.857117 780.616455,591.570068 
	C782.072083,583.874695 787.354004,579.610779 795.446350,579.693726 
	C803.368286,579.774902 809.247192,584.382568 810.077026,591.887817 
	C810.658508,597.146362 811.175903,602.447449 810.475891,607.821960 
	C808.921936,619.752869 801.634277,624.910950 789.486694,621.928101 
M789.400879,613.966125 
	C795.088135,618.065125 800.953796,617.046570 802.629150,611.238220 
	C804.534058,604.634155 804.329163,597.789001 802.698425,591.114380 
	C801.842834,587.612488 799.064148,586.259033 795.546692,586.099609 
	C791.980774,585.937927 788.765625,587.251160 788.067139,590.575928 
	C786.474854,598.155151 785.561890,605.904419 789.400879,613.966125 
z"/>
<path fill="#045C32" opacity="1.000000" stroke="none" 
	d="
M406.572083,611.951477 
	C405.194824,604.260864 404.942535,596.948792 406.769196,589.763855 
	C408.429230,583.234436 413.451508,579.774231 420.504272,579.686829 
	C427.731323,579.597229 433.499481,583.064575 435.119110,589.396118 
	C437.121002,597.221802 437.090393,605.295715 435.161774,613.131226 
	C433.635468,619.332275 427.925049,622.980591 421.117126,623.048157 
	C413.990387,623.118896 409.104065,619.509583 406.572083,611.951477 
M429.032990,604.322021 
	C428.954895,600.675964 429.021423,597.019470 428.760406,593.386536 
	C428.463989,589.260437 426.351257,586.564331 421.984222,586.170166 
	C417.359100,585.752686 414.388306,587.753845 413.086761,592.277832 
	C411.912018,596.360901 412.425476,600.521973 412.410950,604.647095 
	C412.383881,612.326965 415.370972,616.485901 420.744812,616.605469 
	C425.885529,616.719849 428.546326,613.058533 429.032990,604.322021 
z"/>
<path fill="#045C32" opacity="1.000000" stroke="none" 
	d="
M508.520386,603.657288 
	C513.928345,612.241638 510.317230,620.504517 500.763367,622.283813 
	C493.781281,623.584106 486.967896,621.379456 484.299805,616.681641 
	C483.031006,614.447632 481.206512,611.526978 484.244354,609.628235 
	C487.344330,607.690674 488.723724,610.175903 490.034943,612.872986 
	C491.839294,616.584534 496.617371,617.868591 500.436829,616.126282 
	C502.374817,615.242249 503.670898,613.859253 503.848846,611.591675 
	C504.025208,609.344604 503.191223,607.569275 501.206207,606.641785 
	C497.895905,605.095093 494.424805,603.892334 491.115662,602.343506 
	C484.669403,599.326416 482.070679,595.034180 483.131531,589.509277 
	C484.203613,583.925781 488.864075,580.238159 495.464752,579.750488 
	C502.160828,579.255676 508.472961,582.652100 510.198517,587.786804 
	C510.829651,589.664978 511.670074,591.881165 508.990051,592.872437 
	C506.883514,593.651611 504.901489,593.072144 504.118225,590.733215 
	C502.720490,586.559326 499.524445,585.833740 495.761444,586.104553 
	C493.098511,586.296265 490.803558,587.147827 490.221375,590.163147 
	C489.661530,593.062500 491.028137,594.999573 493.593750,596.134155 
	C495.722473,597.075500 497.904144,597.899963 500.076996,598.738220 
	C503.036346,599.880066 505.999542,601.003723 508.520386,603.657288 
z"/>
<path fill="#045C32" opacity="1.000000" stroke="none" 
	d="
M840.675720,611.368896 
	C842.429077,602.567078 841.235413,594.060242 841.619080,585.606079 
	C841.727234,583.222107 840.967957,580.162048 844.887268,580.181824 
	C848.634155,580.200684 848.302002,583.087524 848.308105,585.577515 
	C848.333923,596.055664 848.367554,606.533936 848.314148,617.011841 
	C848.287598,622.218445 846.718262,623.369263 841.985107,621.249329 
	C840.243347,620.469177 839.250977,621.052185 837.884583,621.598389 
	C827.878601,625.598145 819.553284,620.093933 819.677856,609.273804 
	C819.771606,601.129761 818.626770,593.004333 819.492798,584.854065 
	C819.745117,582.479370 819.510193,579.908691 823.032104,580.159241 
	C826.374023,580.396973 826.246277,582.930725 826.251770,585.303528 
	C826.269104,592.787842 826.303223,600.272339 826.264832,607.756409 
	C826.244202,611.775696 827.326233,615.097595 831.663940,616.180359 
	C835.784302,617.208740 838.778625,615.593750 840.675720,611.368896 
z"/>
<path fill="#045C32" opacity="1.000000" stroke="none" 
	d="
M458.464417,586.305908 
	C453.615234,587.663147 452.393280,591.132446 452.347809,595.229553 
	C452.264771,602.712708 452.284943,610.197449 452.310089,617.681335 
	C452.318756,620.257812 451.992004,622.348022 448.617554,622.236328 
	C445.389954,622.129517 445.528442,620.023010 445.529724,617.728394 
	C445.535797,606.753235 445.467651,595.778076 445.427551,584.802917 
	C445.410797,580.217468 447.909943,578.453369 451.632111,580.987854 
	C453.560974,582.301270 454.498352,581.553772 455.978973,580.929199 
	C465.535980,576.897644 474.252289,582.398193 474.421173,592.684753 
	C474.557678,600.997742 474.428162,609.315247 474.394165,617.630676 
	C474.385162,619.835266 474.483612,622.113403 471.248901,622.180176 
	C467.790283,622.251587 467.707550,619.909058 467.703796,617.454407 
	C467.692413,609.970398 467.750824,602.485413 467.651672,595.002625 
	C467.568085,588.693970 465.271973,586.498291 458.464417,586.305908 
z"/>
<path fill="#045C32" opacity="1.000000" stroke="none" 
	d="
M525.297607,586.214172 
	C525.304504,593.681396 525.239258,600.673889 525.341614,607.664001 
	C525.424866,613.348206 528.142517,616.522949 532.654358,616.527527 
	C537.096191,616.531982 540.412415,613.251953 540.584167,607.966675 
	C540.832764,600.317017 540.685425,592.654297 540.697449,584.997192 
	C540.701294,582.567383 540.679260,580.078674 544.107361,580.127136 
	C547.556641,580.175842 547.382385,582.731873 547.381470,585.115295 
	C547.377502,595.935425 547.424072,606.755859 547.346497,617.575439 
	C547.313782,622.145203 545.266052,623.609436 541.542175,621.383606 
	C539.872742,620.385742 539.038147,620.719177 537.631287,621.315552 
	C527.109253,625.775574 518.743958,620.308472 518.668335,608.939880 
	C518.617432,601.282837 518.598816,593.624512 518.691650,585.968323 
	C518.719543,583.663452 517.735596,580.446838 521.568054,580.182495 
	C525.648132,579.901123 525.259460,583.065002 525.297607,586.214172 
z"/>
<path fill="#045C32" opacity="1.000000" stroke="none" 
	d="
M622.971802,622.094604 
	C619.147522,622.615784 618.233398,620.885925 618.288269,617.768738 
	C618.479004,606.948669 618.480713,596.125427 618.604736,585.304016 
	C618.666992,579.869751 619.885864,578.972229 624.807556,581.327759 
	C626.622986,582.196594 627.593811,581.341309 628.903198,580.827759 
	C638.606323,577.022644 647.123779,582.522095 647.284302,592.842957 
	C647.413696,601.167664 647.287537,609.496216 647.297668,617.823059 
	C647.300537,620.168518 647.078430,622.231506 643.937866,622.170471 
	C640.810974,622.109619 640.659668,619.967834 640.655945,617.678345 
	C640.645020,611.016907 640.659851,604.355225 640.611450,597.694092 
	C640.599365,596.037109 640.501282,594.363525 640.243530,592.728943 
	C639.540894,588.273071 636.949036,585.887451 632.350525,586.180054 
	C627.704163,586.475769 625.476685,589.434143 625.352234,593.753235 
	C625.131714,601.407837 625.283936,609.072632 625.215271,616.732605 
	C625.197998,618.653198 625.721069,620.845764 622.971802,622.094604 
z"/>
<path fill="#045C32" opacity="1.000000" stroke="none" 
	d="
M576.603088,598.115967 
	C576.589050,595.144348 576.538330,592.652100 576.573120,590.161011 
	C576.602966,588.019592 576.458008,586.169495 573.611389,585.990540 
	C572.129822,585.897461 571.250977,584.816956 571.145935,583.305359 
	C571.042175,581.813599 571.678223,580.536743 573.165833,580.283508 
	C576.585388,579.700989 576.586304,577.298096 576.571350,574.679504 
	C576.559204,572.564758 576.231140,570.053650 579.457581,569.900146 
	C582.689758,569.746216 583.382751,571.925232 583.207092,574.502197 
	C582.965454,578.047485 583.776611,580.352173 588.027161,580.024109 
	C589.973389,579.873840 591.754211,580.623047 591.795349,583.025940 
	C591.837036,585.463257 590.089478,586.207581 588.109436,586.036926 
	C583.932922,585.676819 583.076660,587.818054 583.199829,591.458374 
	C583.407593,597.598206 583.302490,603.749695 583.271484,609.896057 
	C583.255005,613.156799 584.426758,615.400391 587.950439,615.769714 
	C590.359253,616.022156 591.586182,617.204590 591.268188,619.711975 
	C590.947021,622.245178 589.016052,622.192322 587.156067,622.267395 
	C580.526123,622.534973 576.788513,619.139221 576.645020,612.549866 
	C576.543762,607.900391 576.611328,603.247314 576.603088,598.115967 
z"/>
<path fill="#045C32" opacity="1.000000" stroke="none" 
	d="
M760.452209,581.012268 
	C761.042419,581.990784 761.374268,582.737793 761.828918,583.761169 
	C764.497253,581.725342 767.052246,579.432678 770.638062,579.805786 
	C772.854309,580.036377 775.205200,580.502869 774.934814,583.483521 
	C774.721191,585.838074 773.588989,587.177429 770.718994,587.256836 
	C764.542603,587.427795 761.511719,590.683289 761.349915,597.039734 
	C761.176392,603.856567 761.280212,610.680908 761.295654,617.501892 
	C761.301270,619.996643 761.197205,622.291626 757.746704,622.188354 
	C754.498047,622.091003 754.674866,619.775879 754.671631,617.585999 
	C754.655334,606.605713 754.686462,595.625244 754.640930,584.645142 
	C754.623962,580.559204 756.206238,578.999695 760.452209,581.012268 
z"/>
<path fill="#045C32" opacity="1.000000" stroke="none" 
	d="
M557.578857,576.022034 
	C557.584473,573.359375 557.592957,571.193298 557.596008,569.027283 
	C557.599304,566.709045 557.799438,564.600586 560.974976,564.707092 
	C564.084351,564.811401 564.244995,566.959351 564.255005,569.237915 
	C564.275513,573.903198 564.282715,578.568542 564.281128,583.233887 
	C564.277222,594.564026 564.281128,605.894226 564.239746,617.224243 
	C564.233276,619.006714 564.546021,621.012512 562.395447,621.987549 
	C559.628052,623.242004 557.592346,621.610840 557.584961,618.006897 
	C557.556396,604.177551 557.577087,590.348083 557.578857,576.022034 
z"/>
<path fill="#045C32" opacity="1.000000" stroke="none" 
	d="
M600.604248,589.069824 
	C600.619751,586.914917 600.658386,585.248352 600.646729,583.582214 
	C600.631165,581.355713 601.625793,580.099670 603.934143,580.167114 
	C606.186829,580.232849 607.220032,581.527161 607.236145,583.703674 
	C607.259521,586.869812 607.266541,590.036072 607.265991,593.202271 
	C607.264648,601.201782 607.251099,609.201233 607.251465,617.200745 
	C607.251587,619.849487 607.170959,622.373352 603.434204,622.215576 
	C599.584961,622.053101 600.636292,619.173279 600.620789,617.056274 
	C600.553650,607.890747 600.599976,598.724365 600.604248,589.069824 
z"/>
<path fill="#045C32" opacity="1.000000" stroke="none" 
	d="
M608.197449,571.076843 
	C606.406311,573.710205 604.330261,574.697021 601.655090,573.351685 
	C599.722961,572.380005 598.768494,570.667786 598.847168,568.513428 
	C598.928406,566.288818 600.209412,564.846375 602.259155,564.148071 
	C606.142090,562.825195 608.871155,565.793457 608.197449,571.076843 
z"/>
</svg>
