<svg version="1.1" id="Layer_1" xmlns="http://www.w3.org/2000/svg" xmlns:xlink="http://www.w3.org/1999/xlink" x="0px" y="0px"
	 width="100%" viewBox="0 0 1024 1024" enable-background="new 0 0 1024 1024" xml:space="preserve">
<path fill="#045C32" opacity="1.000000" stroke="none" 
	d="
M344.160339,880.832520 
	C340.358063,876.920898 335.901886,874.660156 331.397919,872.462830 
	C286.155243,850.390015 246.101013,820.991333 211.006470,785.104736 
	C170.350494,743.531067 139.163025,695.549072 117.793922,641.363953 
	C103.314575,604.648987 93.575050,566.782532 89.383644,527.421875 
	C86.977280,504.824188 85.846779,482.222717 86.975822,459.609924 
	C89.212761,414.807739 97.834618,371.220367 113.528442,329.070374 
	C132.042969,279.344635 158.552704,234.443802 193.407104,194.428604 
	C221.760101,161.877457 254.394608,134.396835 291.083649,111.745483 
	C330.664398,87.308838 373.169525,69.830826 418.460571,59.217625 
	C452.640411,51.208153 487.336670,47.254326 522.414185,47.980049 
	C565.446167,48.870350 607.489136,56.091106 648.367126,69.780571 
	C698.510498,86.572899 744.177368,111.461838 784.957031,145.193054 
	C838.936768,189.842926 878.913513,244.757095 905.565857,309.499756 
	C916.383301,335.777069 924.470032,362.846588 929.656067,390.746429 
	C934.098328,414.645111 937.008301,438.744324 936.903687,463.119812 
	C936.893799,465.425598 937.157288,467.790680 935.695496,470.427612 
	C934.458679,468.819366 934.833740,467.191345 934.798889,465.722076 
	C933.520813,411.916870 921.415649,360.598114 899.624023,311.456970 
	C877.160461,260.800751 845.673828,216.553131 805.114014,178.874298 
	C756.792358,133.985031 700.941772,102.309959 637.377197,84.303894 
	C611.828613,77.066696 585.870178,72.386688 559.432434,70.199699 
	C526.742859,67.495552 494.216431,68.957558 461.900665,74.417755 
	C403.065552,84.358757 348.674713,105.690094 299.694702,139.844925 
	C220.470123,195.089966 167.635345,269.367737 141.277512,362.364929 
	C134.175339,387.423218 130.036209,412.984131 128.165710,438.955170 
	C125.187958,480.300201 128.503326,521.156067 138.499512,561.322693 
	C149.075714,603.819946 166.208557,643.624512 190.061264,680.450684 
	C219.541977,725.965881 256.737701,763.865601 302.000580,793.779663 
	C319.967407,805.653870 338.800690,816.023438 358.524872,824.634949 
	C365.539673,827.697571 373.511566,827.501282 381.058441,828.573059 
	C416.475403,833.602661 451.990295,837.580872 487.708588,840.109436 
	C525.654236,842.795715 563.611084,843.633545 601.564148,842.467773 
	C634.489441,841.456360 667.373596,838.844360 699.644104,831.276733 
	C690.036743,832.066040 680.440247,833.041199 670.819702,833.605652 
	C651.038696,834.766357 631.259949,835.660889 611.418335,834.641479 
	C598.284485,833.966675 585.155518,833.324219 572.038391,832.346741 
	C549.797119,830.689331 527.630310,828.440247 505.497101,825.638489 
	C474.935974,821.769897 444.633850,816.409058 414.465088,810.354126 
	C383.788452,804.197205 353.386383,796.789673 323.396332,787.776306 
	C318.779236,786.388733 314.902466,784.378296 314.085724,779.220642 
	C313.251526,773.952576 316.022095,770.367920 320.271271,767.651062 
	C348.531036,749.581787 377.793701,733.379944 408.694641,720.245178 
	C438.823517,707.438599 469.855255,697.470581 502.102570,691.664795 
	C532.213806,686.243652 562.557495,685.090393 593.145569,686.562805 
	C636.612549,688.655090 678.420654,698.636536 719.603271,711.700317 
	C750.543152,721.514771 781.138672,732.411377 812.038330,742.357361 
	C837.955627,750.699646 864.480896,756.376953 891.853882,756.560486 
	C905.899597,756.654541 919.675659,754.124207 933.118286,749.978577 
	C936.304199,748.996033 939.606506,747.397156 942.231201,750.880554 
	C944.756470,754.231995 942.694336,757.178162 941.021362,760.074829 
	C906.414246,819.995789 861.388000,870.446106 804.126465,909.547302 
	C758.164795,940.932434 707.868713,962.342468 653.091003,972.690674 
	C623.544189,978.272522 593.646118,980.843994 563.609192,978.942566 
	C518.669617,976.097717 475.486328,965.965576 434.712128,946.251465 
	C400.734894,929.823669 370.632782,908.180847 344.160339,880.832520 
z"/>
<path fill="#045C32" opacity="1.000000" stroke="none" 
	d="
M404.820190,281.789093 
	C431.767151,262.376312 459.317352,244.567825 488.027679,228.575546 
	C489.773254,227.603210 491.567993,226.718750 493.345795,225.804886 
	C496.073914,224.402496 498.814240,224.148682 501.314270,226.187302 
	C503.891571,228.288940 504.524292,231.025665 503.763245,234.274994 
	C500.080750,249.997772 495.996887,265.601288 490.743225,280.887878 
	C480.102264,311.849854 465.513153,340.708282 445.169067,366.486755 
	C422.850403,394.767181 394.992310,416.399658 363.932617,434.257202 
	C337.179047,449.639008 308.614288,461.430206 281.559875,476.195251 
	C263.152740,486.241028 245.855377,497.695343 233.621292,515.329895 
	C231.338943,518.619751 229.154083,521.960327 227.548615,525.648621 
	C226.730270,527.528748 225.795242,529.365906 223.311920,529.239380 
	C220.593231,529.100830 219.859375,527.009644 219.220139,524.871460 
	C215.351532,511.931122 212.906693,498.672882 210.880173,485.359802 
	C207.380310,462.367706 206.765488,439.186676 209.055939,416.093231 
	C211.812363,388.301483 218.477051,361.358032 229.651901,335.646393 
	C245.182755,299.912231 267.419830,269.036591 297.300842,243.983826 
	C329.573120,216.926147 366.459564,199.893356 408.494141,194.569763 
	C416.254913,193.586899 424.000916,192.307709 431.828583,192.748779 
	C439.814331,193.198761 447.351532,191.610016 454.818726,189.045975 
	C473.969421,182.470078 493.780182,179.011703 513.862000,177.063644 
	C538.841248,174.640472 563.746948,175.341385 588.540833,179.414368 
	C616.673157,184.035782 643.601135,192.498596 669.086670,205.242752 
	C745.880493,243.643723 797.317505,303.971649 819.833923,386.721191 
	C844.423401,477.089264 826.750244,560.196594 769.638123,634.550293 
	C753.506958,655.551331 734.134033,673.356995 712.290100,688.406494 
	C704.418640,693.829529 700.166992,693.848267 691.592957,688.400635 
	C691.796387,686.391907 693.623169,685.910645 694.926697,685.019104 
	C750.124329,647.264648 785.551575,595.638977 802.179932,531.113525 
	C809.808228,501.512299 811.481506,471.365936 807.983582,440.934845 
	C800.021118,371.665070 769.202942,314.463440 716.265686,269.483643 
	C678.963562,237.788757 635.462952,218.635803 587.055481,211.664047 
	C545.202576,205.636307 504.051788,209.517624 464.042725,223.884369 
	C454.676758,227.247574 447.478668,233.766602 439.832550,239.525085 
	C403.704132,266.734436 369.632355,296.321075 338.627594,329.312836 
	C329.406403,339.125000 320.013824,348.845276 313.060089,360.649658 
	C327.396393,346.550049 341.792297,332.528198 357.032440,319.407104 
	C372.324097,306.241638 388.262177,293.914093 404.820190,281.789093 
z"/>
<path fill="#045C32" opacity="1.000000" stroke="none" 
	d="
M559.081665,518.000000 
	C559.183167,503.521393 559.300049,489.542877 559.364685,475.564087 
	C559.373901,473.579498 559.454102,471.762695 562.033875,471.681488 
	C576.974304,471.211334 592.097534,469.621002 606.683777,473.681854 
	C627.892273,479.586395 641.612488,498.211243 642.374634,520.283569 
	C643.122925,541.952698 635.782166,559.412903 616.416687,570.605896 
	C609.674255,574.502869 602.228882,576.258240 594.438904,576.307617 
	C584.450378,576.370972 574.459351,576.216064 564.473083,576.381409 
	C560.786743,576.442444 559.563171,575.077026 559.554688,571.425659 
	C559.513550,553.783508 559.259216,536.141846 559.081665,518.000000 
M610.174988,567.737183 
	C616.471313,563.985107 621.477783,558.881653 625.015991,552.530762 
	C632.735718,538.674194 634.607361,523.927612 630.374329,508.646576 
	C626.053406,493.048492 616.782837,481.813446 600.861572,476.788513 
	C593.375366,474.425720 585.699036,475.104950 578.069336,475.008026 
	C569.802795,474.903015 569.152039,475.565948 569.133118,483.665741 
	C569.070801,510.311981 569.031982,536.958313 568.998169,563.604553 
	C568.995850,565.434509 569.087646,567.265625 569.174133,569.094360 
	C569.305054,571.868225 570.833557,573.510742 573.544739,573.589722 
	C585.865906,573.948364 598.262146,574.654663 610.174988,567.737183 
z"/>
<path fill="#045C32" opacity="1.000000" stroke="none" 
	d="
M355.827881,472.926575 
	C361.017395,474.644714 365.508087,476.772308 368.671570,480.936920 
	C372.695312,486.234039 372.057098,491.838226 367.148743,494.942810 
	C366.165588,494.883545 365.683289,494.179565 365.388275,493.401764 
	C360.118317,479.507355 348.666779,474.631683 335.207642,473.364990 
	C326.203949,472.517609 317.169708,473.091766 309.212646,478.335815 
	C301.848602,483.189117 298.727020,490.219238 299.375000,498.856232 
	C299.798615,504.502594 303.728363,507.591034 308.487488,509.774292 
	C316.315979,513.365662 324.821014,514.150635 333.149475,515.705688 
	C342.464691,517.445068 351.672485,519.429749 360.396973,523.493042 
	C378.616364,531.978455 378.225677,557.496155 365.210266,568.118835 
	C355.080200,576.386597 343.170441,578.825012 330.656128,578.768005 
	C323.199951,578.734009 315.739197,577.571716 308.593811,575.089905 
	C302.357544,572.923828 296.668976,569.926025 292.612885,564.488037 
	C289.431061,560.222046 288.382324,555.467896 289.792755,550.320679 
	C291.330170,544.710022 296.432465,542.894226 301.239014,546.123230 
	C296.620361,553.584656 296.841858,558.740356 305.945129,566.167664 
	C320.216187,577.811401 340.733490,578.365295 355.954071,568.674194 
	C363.678925,563.755615 366.566925,556.114563 365.678528,547.091370 
	C364.842957,538.604797 359.598419,533.773499 352.006378,530.931396 
	C342.269867,527.286438 332.002258,526.115723 321.854401,524.393738 
	C315.762085,523.360046 309.869415,521.756165 304.133789,519.388916 
	C286.763275,512.219666 287.389191,489.378784 298.645599,479.844330 
	C305.081787,474.392731 312.637695,471.458344 320.854858,470.371552 
	C332.517303,468.829041 344.112549,469.237091 355.827881,472.926575 
z"/>
<path fill="#045C32" opacity="1.000000" stroke="none" 
	d="
M657.961792,567.003540 
	C653.246033,561.751892 650.497498,556.249084 653.181641,549.450317 
	C655.187012,544.370850 659.661377,543.099243 664.294800,546.070190 
	C660.049805,554.983521 661.276672,560.039368 669.257751,566.521912 
	C682.530396,577.302551 705.204956,578.238098 719.396362,568.476440 
	C727.034973,563.222168 729.647339,555.667236 728.693420,546.706909 
	C727.834839,538.642944 722.805725,533.954529 715.662048,531.142395 
	C705.662537,527.205933 695.016418,526.159546 684.551453,524.312927 
	C678.473633,523.240479 672.500977,521.864502 666.880981,519.163147 
	C651.302917,511.675293 648.930725,490.224487 662.472229,479.262695 
	C670.042419,473.134674 678.974792,470.527496 688.384644,469.921875 
	C701.426208,469.082489 714.429626,469.565247 726.223511,476.326447 
	C731.064758,479.101868 734.665588,482.895813 734.253174,489.081299 
	C734.077393,491.716949 733.133850,493.884460 730.898376,494.924957 
	C729.243347,494.886139 728.746399,493.991730 728.383179,493.051636 
	C723.369141,480.074066 712.686279,475.018951 699.993774,473.423645 
	C691.877075,472.403442 683.685608,472.839203 675.966919,476.267731 
	C668.167725,479.732056 663.588013,485.742065 662.427185,494.108643 
	C661.354126,501.842590 664.389771,506.716522 671.739319,509.848328 
	C677.748535,512.408936 684.076904,513.797974 690.516602,514.762573 
	C699.572449,516.119019 708.570435,517.803589 717.226013,520.861877 
	C727.703125,524.563782 735.907471,530.502563 737.287109,542.626526 
	C738.860413,556.451538 733.654846,567.045166 721.051208,572.900818 
	C701.889099,581.803528 682.616638,580.579224 663.762024,571.468262 
	C661.714111,570.478638 660.056030,568.682190 657.961792,567.003540 
z"/>
<path fill="#045C32" opacity="1.000000" stroke="none" 
	d="
M519.999878,576.342529 
	C505.843475,576.339905 492.184753,576.194092 478.532074,576.417603 
	C474.156494,576.489197 472.739288,575.022522 472.756775,570.678711 
	C472.882141,539.536011 472.909821,508.391937 472.704773,477.250000 
	C472.671082,472.129700 474.930450,471.021118 479.304382,471.080719 
	C498.116486,471.337036 516.930237,471.468323 535.743408,471.642517 
	C536.742554,471.651764 537.742126,471.649994 538.741089,471.631866 
	C546.919678,471.483246 547.539429,472.326233 545.442444,481.486328 
	C538.346924,480.293182 531.208984,479.073090 524.063965,477.895935 
	C512.392944,475.973083 500.636322,475.148407 488.811981,475.000824 
	C484.304596,474.944550 482.393097,477.136078 482.376312,481.338226 
	C482.335144,491.663483 482.349670,501.989105 482.364532,512.314514 
	C482.371216,516.944763 484.827423,518.752014 489.335999,518.719910 
	C503.158203,518.621399 516.981628,518.713867 530.804443,518.671570 
	C533.713562,518.662659 536.064331,518.833557 536.155151,522.737122 
	C536.270752,527.705200 535.476624,528.580444 530.488892,527.539368 
	C516.940125,524.711182 503.186401,523.539612 489.426727,522.448608 
	C484.731323,522.076355 482.450043,524.049866 482.402771,528.741089 
	C482.275116,541.396851 482.383575,554.054871 482.341309,566.711792 
	C482.326721,571.080444 484.273315,573.012695 488.741943,572.939026 
	C506.418915,572.647949 523.960144,571.218140 541.227844,567.237244 
	C542.675171,566.903625 544.063782,566.305176 545.497803,566.961670 
	C547.513916,575.346680 546.823608,576.325867 538.986145,576.335327 
	C532.824097,576.342773 526.661987,576.340454 519.999878,576.342529 
z"/>
<path fill="#045C32" opacity="1.000000" stroke="none" 
	d="
M412.019653,518.695679 
	C424.624878,518.695679 436.733948,518.695679 448.492950,518.695679 
	C448.998260,519.628357 449.260834,519.902954 449.292480,520.201965 
	C450.188965,528.672058 450.009430,528.964111 441.785248,527.198425 
	C429.049347,524.464111 416.093567,523.642883 403.182220,522.432861 
	C398.025299,521.949524 396.341919,523.481628 396.311005,528.445068 
	C396.232086,541.105286 396.355286,553.767639 396.178314,566.426025 
	C396.112396,571.139771 397.994812,573.033569 402.699799,572.934204 
	C420.375336,572.560669 437.928101,571.192261 455.163422,567.020752 
	C457.807953,566.380737 460.019073,566.210266 459.974396,569.744690 
	C459.939941,572.473022 461.306335,576.297485 456.336487,576.303406 
	C434.347137,576.329468 412.357666,576.277527 390.368439,576.335022 
	C386.098602,576.346130 386.688690,573.403625 386.686768,570.805603 
	C386.666443,543.152039 386.672791,515.498535 386.672791,487.844971 
	C386.672791,483.846893 386.770599,479.846008 386.650543,475.851624 
	C386.558411,472.786560 387.477936,471.355103 390.917999,471.385986 
	C412.232452,471.577515 433.549927,472.045776 454.863434,471.222382 
	C456.656860,471.153137 458.843170,471.029907 459.616638,473.122070 
	C460.491852,475.489319 460.630646,478.169128 459.517212,480.440735 
	C458.582703,482.347290 456.580048,481.324219 455.004974,480.995789 
	C438.035645,477.457489 420.930847,475.113831 403.559235,475.035767 
	C397.555298,475.008789 396.320557,476.136597 396.277679,482.360291 
	C396.211121,492.021912 396.214722,501.684387 396.255157,511.346222 
	C396.281219,517.565735 397.367279,518.614746 403.527710,518.680542 
	C406.192749,518.708984 408.858215,518.692017 412.019653,518.695679 
z"/>
</svg>
